<svg xmlns="http://www.w3.org/2000/svg" id="SvgjsSvg2275" width="4095.9248064684125" height="4096" version="1.1" xmlns:xlink="http://www.w3.org/1999/xlink" xmlns:svgjs="http://svgjs.com/svgjs"><defs id="SvgjsDefs2276"></defs><rect id="SvgjsRect2277" width="4095.9248064684125" height="4096" fill="#000000"></rect><g id="SvgjsG2278" transform="translate(328, 328) scale(34.4)" opacity="1"><defs id="SvgjsDefs1337"><linearGradient id="SvgjsLinearGradientM8eqhi-sNz" gradientUnits="userSpaceOnUse" x1="98.18655362364525" y1="56.772608197281286" x2="1.814446376353892" y2="43.22839180271857"><stop id="SvgjsStop1340" stop-color="#ae8d20" offset="0.314"></stop><stop id="SvgjsStop1341" stop-color="#ffffff" offset="0.674"></stop></linearGradient><linearGradient id="SvgjsLinearGradientXgqLguJ1phO" gradientUnits="userSpaceOnUse" x1="15.67458349572454" y1="50.096991989373606" x2="30.223416504275466" y2="-4.199991989373595"><stop id="SvgjsStop1344" stop-color="#000000" offset="0"></stop><stop id="SvgjsStop1345" stop-color="#ffffff" offset="1"></stop></linearGradient><linearGradient id="SvgjsLinearGradientGWIUScNohOJ" gradientUnits="userSpaceOnUse" x1="19.832286000569447" y1="48.33209852828073" x2="26.065713999430567" y2="-2.4350985282807383"><stop id="SvgjsStop1350" stop-color="#000000" offset="0"></stop><stop id="SvgjsStop1351" stop-color="#fffffd" offset="1"></stop></linearGradient><linearGradient id="SvgjsLinearGradientV2nvs7e_IMm" gradientUnits="userSpaceOnUse" x1="29.140267846784784" y1="-3.8688273095794856" x2="16.757732153215226" y2="49.7658273095795"><stop id="SvgjsStop1354" stop-color="#ffffff" offset="0"></stop><stop id="SvgjsStop1355" stop-color="#000000" offset="1"></stop></linearGradient><linearGradient id="SvgjsLinearGradient_QGt8TVg8E-" gradientUnits="userSpaceOnUse" x1="-49.33454195159524" y1="-40.74603410095629" x2="44.83158009966682" y2="35.50818800404802"><stop id="SvgjsStop1363" stop-color="#f3ed95" offset="0"></stop><stop id="SvgjsStop1364" stop-color="#ddd037" offset="1"></stop></linearGradient></defs><g id="SvgjsG1338" transform="scale(0.3510003510003511)" opacity="1"><g id="SvgjsG1342" class="PMLsTnhYJ" transform="translate(104.49508854267552, 80.5828173738599) scale(0.7567198666130018)" light-content="false" non-strokable="false" fill="url(#SvgjsLinearGradientM8eqhi-sNz)"><path d="M56.233 20.564c-.382.794-.647.982-.647 1.657 0 .236.052.468.145.68-.517-.256-.903-.39-1.332.022-.566.566-.134 1.14.578 1.125-.254-.329-.037-.53.23-.513.262.017.493.581.535 1.056a.274.274 0 0 0-.214.268v.02c0 .138.1.25.232.271.04.086.215.504-.125.692-.285.157-.283-.123-.135-.342-.415-.01-.667.371-.338.748.122.135.238.182.36.176.021-.001.042 0 .064-.01l-.055.166c-.03.092.077.175.174.18v2.064a25.512 25.512 0 0 0-2.379-.277h-2.375v50.888h2.375v-5.984h2.38v4.932h1.052V73.45h4.174v4.932h1.053V73.45h4.173v4.932h1.053V73.45h4.174v4.932h1.053V73.45h4.173v4.932h1.053V73.45h4.174v4.932h1.053V73.45h4.174v4.932h1.052V73.45h2.332v4.932h-.908v1.052h5.46v-1.052h-.909V44.887H95v-1.055h-1.89c.01-.175.03-.32.07-.389.183-.316.458-.631.459-1.021a1.368 1.368 0 1 0-2.737 0c0 .39.275.705.458 1.021.039.068.06.214.072.389h-1.89v1.055h.907v3.138a16.31 16.31 0 0 1-2.332-.896v-2.282c.098 0 .205-.088.174-.18l-.054-.163c.022 0 .042.01.064.01.121.01.237-.041.36-.176.33-.377.077-.759-.339-.75.148.22.152.499-.132.342-.34-.188-.166-.606-.125-.692a.272.272 0 0 0 .23-.27v-.021a.274.274 0 0 0-.215-.268c.043-.475.274-1.04.535-1.056.268-.017.484.184.23.513.713.014 1.144-.557.579-1.123-.209-.201-.407-.274-.615-.265-.22.01-.451.108-.717.24a1.69 1.69 0 0 0 .144-.678c0-.675-.264-.864-.646-1.658-.382.794-.645.983-.645 1.658 0 .237.05.467.143.678-.517-.255-.901-.388-1.33.025-.565.565-.134 1.137.578 1.123-.253-.33-.039-.53.229-.514.261.017.494.582.537 1.057a.274.274 0 0 0-.215.267v.022c0 .138.1.25.232.27.04.086.213.504-.127.691-.284.157-.28-.122-.132-.341-.416-.01-.668.373-.338.75.121.134.238.181.359.175.022 0 .042 0 .064-.01l-.054.164c-.03.092.076.175.174.18v1.754c-1.34-.71-2.732-1.592-4.174-2.582v-2.293c.097 0 .204-.088.174-.18l-.055-.164c.022 0 .043.01.064.01.121.01.238-.04.36-.175.33-.377.077-.76-.338-.75.147.219.151.498-.133.341-.34-.187-.165-.603-.125-.69a.274.274 0 0 0 .23-.27v-.02a.277.277 0 0 0-.214-.27c.042-.475.273-1.038.535-1.055.267-.017.483.183.23.512.712.014 1.144-.558.578-1.123-.209-.201-.407-.272-.615-.264-.22.01-.451.107-.717.239.093-.212.145-.442.145-.678 0-.676-.265-.862-.647-1.656-.382.794-.644.98-.644 1.656 0 .236.05.466.142.678-.516-.256-.9-.389-1.33.025-.565.565-.134 1.136.578 1.123-.253-.33-.038-.53.229-.512.261.017.494.58.537 1.055a.277.277 0 0 0-.215.27v.02c0 .137.101.25.233.27.04.087.212.503-.127.69-.285.157-.28-.122-.133-.342-.416-.01-.668.373-.338.75.122.135.238.182.36.176.02-.001.042 0 .064-.01l-.055.164c-.03.092.076.175.174.18v1.549a225.379 225.379 0 0 1-4.174-3.051v-2.315c.098 0 .204-.088.174-.18l-.055-.163c.022 0 .043.01.065.01.12.01.237-.043.359-.178.33-.377.078-.76-.338-.75.148.22.152.499-.133.342-.34-.188-.165-.604-.125-.69a.274.274 0 0 0 .23-.271v-.02a.274.274 0 0 0-.214-.268c.043-.475.273-1.04.535-1.056.267-.017.484.184.23.513.713.014 1.144-.56.579-1.125-.21-.201-.408-.272-.616-.263-.219.01-.449.107-.714.238a1.69 1.69 0 0 0 .142-.678c0-.675-.264-.862-.646-1.656-.382.794-.645.98-.645 1.656 0 .237.05.467.143.678-.517-.255-.901-.388-1.33.025-.566.565-.135 1.139.578 1.125-.254-.33-.039-.53.228-.514.262.017.495.581.537 1.057a.274.274 0 0 0-.214.267v.02c0 .138.1.25.232.272.04.086.213.502-.127.69-.285.156-.28-.123-.133-.342-.415-.01-.667.373-.338.75.122.134.238.183.36.177.021 0 .042 0 .064-.01l-.055.164c-.03.092.076.175.174.18v1.535c-.382-.284-.737-.546-1.125-.832a135.107 135.107 0 0 0-3.049-2.184v-2.32c.098 0 .205-.088.174-.18l-.054-.166c.022 0 .042.012.064.012.121.01.238-.043.36-.177.33-.377.077-.76-.338-.75.147.219.151.498-.133.341-.34-.187-.165-.603-.125-.689a.274.274 0 0 0 .23-.272v-.02a.274.274 0 0 0-.215-.267c.043-.476.274-1.04.535-1.057.268-.017.484.183.23.512.713.014 1.144-.558.58-1.123-.21-.201-.408-.272-.616-.264-.22.01-.45.107-.715.239a1.69 1.69 0 0 0 .143-.678c0-.676-.265-.862-.647-1.656-.382.794-.644.98-.644 1.656 0 .236.05.466.142.678-.517-.256-.901-.389-1.33.025-.565.565-.134 1.136.578 1.123-.253-.33-.039-.53.229-.512.261.017.494.581.537 1.057a.274.274 0 0 0-.215.267v.02c0 .138.1.25.232.272.04.086.213.502-.127.689-.284.157-.28-.122-.132-.342-.416-.01-.668.373-.338.75.122.135.238.184.36.178.02 0 .041 0 .064-.012l-.055.166c-.03.092.076.175.174.18v1.597a64.435 64.435 0 0 0-4.174-2.597V30.77c.098 0 .204-.088.174-.18l-.055-.164c.022 0 .043.01.064.01.122.01.238-.042.36-.176.33-.377.077-.76-.338-.752.148.22.152.501-.133.344-.34-.187-.165-.605-.125-.691a.274.274 0 0 0 .23-.272v-.019a.274.274 0 0 0-.214-.267c.042-.476.275-1.04.537-1.057.267-.017.482.185.228.514.713.014 1.144-.56.578-1.125-.208-.202-.407-.273-.615-.264-.22.01-.449.107-.715.238.093-.211.143-.441.143-.677 0-.676-.263-.862-.645-1.657-.382.795-.646.981-.646 1.657 0 .236.05.466.143.677-.517-.255-.902-.388-1.33.025-.566.566-.135 1.139.578 1.125-.254-.329-.04-.529.228-.511.262.017.495.579.537 1.054a.274.274 0 0 0-.215.268v.02c0 .138.101.251.233.272.04.086.215.504-.125.692-.285.157-.283-.124-.135-.344-.415-.01-.668.373-.338.75.122.135.238.182.36.176.021-.001.042-.01.064-.01l-.055.166c-.03.092.076.175.174.18v1.755a40.308 40.308 0 0 0-4.174-1.95v-2.315c.098 0 .205-.088.174-.18l-.055-.166c.022 0 .043.012.065.012.121.01.237-.043.36-.178.329-.376.077-.759-.339-.75.148.22.152.5-.133.342-.34-.187-.165-.603-.125-.69a.274.274 0 0 0 .23-.27v-.02a.274.274 0 0 0-.214-.268c.043-.476.276-1.04.537-1.057.267-.017.482.183.229.512.712.014 1.143-.558.578-1.123-.21-.202-.408-.273-.615-.264-.22.01-.45.107-.715.238a1.69 1.69 0 0 0 .142-.677c0-.676-.262-.862-.644-1.657-.382.795-.647.981-.647 1.657 0 .236.05.466.143.677-.517-.255-.901-.388-1.33.025-.566.566-.134 1.137.578 1.123-.253-.329-.037-.528.23-.511.262.017.493.58.536 1.056a.274.274 0 0 0-.215.268v.02c0 .137.1.25.232.271.04.086.215.502-.125.69-.284.157-.282-.123-.135-.342-.415-.01-.667.373-.338.75.122.134.239.183.36.178.021-.001.042 0 .064-.012l-.054.166c-.03.092.076.175.173.18v1.908a29.603 29.603 0 0 0-4.173-1.163v-2.25c.097 0 .204-.086.173-.177l-.054-.166c.022 0 .043.01.064.01.122.01.238-.041.36-.176.33-.377.077-.759-.338-.75.147.22.151.499-.133.342-.34-.188-.165-.605-.125-.692a.272.272 0 0 0 .23-.27v-.021a.274.274 0 0 0-.214-.268c.042-.475.275-1.04.537-1.056.267-.017.481.184.228.513.712.014 1.144-.56.578-1.125-.209-.201-.407-.274-.615-.265-.22.01-.45.109-.715.24a1.69 1.69 0 0 0 .143-.678c0-.675-.263-.862-.645-1.656zm-12.465 0c-.382.793-.645.982-.645 1.657 0 .236.05.466.143.677-.266-.13-.496-.23-.715-.24-.208-.01-.406.064-.615.266-.566.565-.134 1.137.578 1.123-.253-.33-.039-.53.228-.512.262.017.495.58.538 1.055a.276.276 0 0 0-.215.27v.02c0 .137.099.25.23.27.04.087.215.505-.125.692-.284.157-.28-.122-.133-.342-.415-.01-.667.372-.338.749.122.134.239.181.36.175.021 0 .042 0 .064-.01l-.054.166c-.031.092.076.176.173.18v2.25a29.603 29.603 0 0 0-4.173 1.162v-1.91c.097 0 .204-.086.173-.178l-.054-.166c.022 0 .043.01.064.01.121.01.238-.043.36-.178.33-.376.077-.757-.338-.748.147.22.15.5-.135.342-.34-.187-.165-.605-.125-.691a.273.273 0 0 0 .232-.27v-.022a.274.274 0 0 0-.215-.267c.043-.476.274-1.04.536-1.057.267-.017.483.185.23.514.712.014 1.143-.558.578-1.123-.429-.414-.815-.281-1.332-.025.093-.212.144-.442.145-.678 0-.676-.265-.864-.647-1.658-.382.794-.644.982-.644 1.658 0 .236.05.466.142.678-.265-.132-.495-.232-.715-.24-.208-.01-.406.063-.615.265-.565.565-.134 1.137.578 1.123-.253-.329-.039-.53.229-.514.261.017.494.582.537 1.057a.275.275 0 0 0-.215.268v.022c0 .137.099.248.23.27.04.085.215.503-.125.69-.284.158-.28-.122-.132-.341-.416-.01-.668.371-.338.748.122.134.238.183.36.177.02 0 .042-.01.064-.01l-.055.166c-.03.092.076.174.174.178v2.315a40.307 40.307 0 0 0-4.174 1.95v-1.755c.098 0 .204-.088.174-.18l-.055-.164c.022 0 .043.01.064.01.122.01.238-.042.36-.176.33-.377.077-.759-.338-.75.148.22.15.5-.135.342-.34-.187-.165-.605-.125-.691a.275.275 0 0 0 .233-.272v-.019a.274.274 0 0 0-.215-.267c.042-.476.273-1.04.535-1.057.267-.017.484.183.23.512.713.014 1.144-.558.579-1.123-.43-.414-.816-.28-1.333-.025.093-.212.145-.441.145-.678 0-.675-.264-.864-.646-1.658-.382.794-.645.982-.645 1.658 0 .236.05.467.143.678-.266-.132-.496-.232-.715-.24-.208-.01-.407.063-.616.265-.565.566-.134 1.137.579 1.123-.254-.329-.04-.529.228-.512.262.017.495.58.537 1.055a.275.275 0 0 0-.215.268v.02c0 .138.1.251.23.272.041.086.216.504-.124.692-.285.157-.28-.125-.133-.344-.415-.01-.668.373-.338.75.122.134.238.183.36.178.021 0 .042-.012.064-.012l-.055.166c-.03.092.076.175.174.18v2.337a64.433 64.433 0 0 0-4.174 2.598v-1.6c.098 0 .205-.086.174-.177l-.055-.166c.022 0 .043.01.065.01.121.01.237-.043.36-.178.329-.377.077-.757-.339-.748.148.22.15.498-.135.342-.34-.188-.165-.606-.125-.692a.273.273 0 0 0 .233-.27v-.021a.274.274 0 0 0-.215-.268c.043-.475.274-1.038.535-1.055.267-.017.484.183.23.512.713.014 1.144-.558.579-1.123-.43-.413-.816-.28-1.332-.025.092-.211.144-.443.144-.68 0-.675-.264-.862-.646-1.656-.382.794-.645.98-.645 1.656 0 .237.05.469.143.68-.266-.131-.496-.231-.715-.24-.208-.01-.406.064-.615.265-.566.566-.134 1.137.578 1.123-.253-.329-.039-.529.228-.511.262.017.495.579.538 1.054a.275.275 0 0 0-.215.268v.022c0 .137.099.249.23.27.04.086.215.504-.125.691-.284.157-.28-.122-.133-.342-.415-.01-.667.371-.338.748.122.134.239.184.36.178.021 0 .042-.01.064-.01l-.054.166c-.031.092.076.173.173.178v2.32a134.68 134.68 0 0 0-3.048 2.184c-.388.285-.743.548-1.125.832v-1.536c.097 0 .204-.086.173-.177l-.054-.166c.022 0 .043.01.064.01.122.01.238-.042.36-.176.33-.377.077-.759-.338-.75.147.22.15.499-.135.342-.34-.188-.165-.605-.125-.692a.273.273 0 0 0 .232-.27v-.021a.272.272 0 0 0-.214-.266c.042-.475.275-1.04.537-1.056.267-.017.481.182.228.511.712.014 1.144-.557.578-1.123-.429-.413-.813-.28-1.33-.025a1.69 1.69 0 0 0 .143-.677c0-.676-.263-.862-.645-1.657-.382.795-.646.981-.646 1.657 0 .236.05.466.142.677-.265-.131-.495-.23-.714-.24-.208-.01-.407.064-.616.266-.565.565-.134 1.137.578 1.123-.253-.33-.038-.53.229-.512.262.017.494.581.537 1.057a.272.272 0 0 0-.215.265v.022c0 .138.1.249.23.27.04.086.215.504-.124.691-.285.157-.28-.122-.133-.342-.416-.01-.668.374-.338.75.122.135.238.182.36.176.021 0 .042 0 .064-.01l-.055.166c-.03.092.076.174.174.178v2.316a225.122 225.122 0 0 1-4.174 3.05v-1.548c.098 0 .204-.088.174-.18l-.055-.165c.022 0 .043.012.065.012.121.01.237-.043.36-.178.329-.377.077-.757-.339-.748.148.22.15.498-.135.342-.34-.188-.165-.606-.125-.692a.275.275 0 0 0 .233-.271v-.02a.274.274 0 0 0-.215-.268c.043-.475.275-1.04.537-1.057.267-.017.482.185.229.514.712.014 1.143-.56.578-1.125-.43-.413-.814-.279-1.33-.023.092-.211.142-.443.142-.68 0-.675-.262-.862-.644-1.656-.382.794-.647.98-.647 1.656 0 .237.05.469.143.68-.266-.131-.496-.231-.715-.24-.208-.01-.406.062-.615.263-.566.566-.134 1.14.578 1.125-.253-.329-.039-.53.228-.513.262.017.495.581.537 1.056a.275.275 0 0 0-.214.268v.02c0 .138.099.25.23.272.04.086.215.504-.125.691-.284.157-.28-.122-.133-.342-.415-.01-.667.371-.338.748.122.135.238.184.36.178.021 0 .042 0 .064-.012l-.054.166c-.031.092.076.175.173.18v2.293c-1.442.99-2.834 1.871-4.173 2.582V44.85c.097 0 .204-.088.173-.18l-.054-.166c.022 0 .043.01.064.01.121.01.238-.04.36-.176.33-.377.077-.757-.338-.748.147.22.151.5-.133.342-.34-.187-.167-.605-.127-.691a.275.275 0 0 0 .232-.272v-.02a.274.274 0 0 0-.215-.267c.043-.476.276-1.04.537-1.057.268-.017.482.184.229.514.712.014 1.144-.56.578-1.125-.429-.414-.813-.28-1.33-.023.093-.212.142-.444.143-.68 0-.676-.263-.862-.645-1.656-.382.794-.646.98-.646 1.656 0 .236.05.466.142.678-.265-.132-.495-.23-.715-.239-.208-.01-.406.062-.615.264-.565.565-.134 1.139.578 1.125-.253-.33-.039-.53.229-.514.261.017.494.582.537 1.057a.275.275 0 0 0-.215.268v.02c0 .137.099.25.23.271.04.086.215.504-.125.691-.284.157-.28-.122-.132-.341-.416-.01-.668.37-.338.748.122.134.238.181.36.175.02 0 .041 0 .064-.01l-.055.166c-.03.092.076.176.174.18v2.281a16.31 16.31 0 0 1-2.332.897v-3.139h.908v-1.055h-1.89c.01-.174.03-.32.07-.388.182-.317.458-.631.459-1.022a1.368 1.368 0 1 0-2.736 0c0 .39.275.705.458 1.022.04.068.06.214.07.388H5v1.055h.908v33.494H5v1.055h5.459v-1.055H9.55v-4.93h2.332v4.93h1.052v-4.93h4.174v4.93h1.053v-4.93h4.174v4.93h1.053v-4.93h4.173v4.93h1.053v-4.93h4.174v4.93h1.053v-4.93h4.173v4.93h1.053v-4.93h4.174v4.93h1.053v-4.93h2.379v5.986h2.375V28.55h-2.375a25.68 25.68 0 0 0-2.38.276v-2.064c.098 0 .205-.088.175-.18l-.055-.165c.022 0 .043.01.064.01.122.01.238-.041.36-.176.33-.377.077-.76-.338-.75.148.22.15.499-.135.342-.34-.188-.165-.604-.125-.69a.275.275 0 0 0 .233-.271v-.02a.276.276 0 0 0-.215-.27c.042-.475.273-1.038.535-1.055.267-.017.484.183.23.512.713.014 1.144-.558.578-1.123-.428-.413-.815-.28-1.332-.025a1.68 1.68 0 0 0 .145-.678c0-.675-.265-.862-.647-1.656zm2.906 9.41v2.256c-.804.052-1.595.155-2.379.282v-2.243c.784-.132 1.576-.24 2.38-.294zm6.652 0c.804.056 1.595.163 2.38.295v2.243a25.102 25.102 0 0 0-2.38-.282v-2.255zm-10.084.497v2.228c-1.424.29-2.816.69-4.173 1.182v-2.176a28.835 28.835 0 0 1 4.173-1.234zm13.516 0c1.421.302 2.813.72 4.174 1.234v2.176a29.388 29.388 0 0 0-4.174-1.182v-2.228zm-18.742 1.646v2.17a40.474 40.474 0 0 0-4.174 1.973v-2.102a41.118 41.118 0 0 1 4.174-2.04zm23.969 0a41.121 41.121 0 0 1 4.173 2.041v2.102a40.475 40.475 0 0 0-4.173-1.973v-2.17zm-15.31.826V35.2c-.806.052-1.597.153-2.38.278v-2.244c.784-.13 1.575-.237 2.38-.29zm6.651 0c.804.054 1.595.16 2.38.291v2.243a25.478 25.478 0 0 0-2.38-.278v-2.256zm-10.084.487v2.231a29.595 29.595 0 0 0-4.173 1.163v-2.178a29.015 29.015 0 0 1 4.173-1.216zm13.516 0c1.422.298 2.815.71 4.174 1.216v2.178a29.596 29.596 0 0 0-4.174-1.164v-2.23zm-23.969 1.328v2.09a65.569 65.569 0 0 0-4.174 2.615v-2.027a69.245 69.245 0 0 1 4.174-2.678zm34.422 0a69.242 69.242 0 0 1 4.174 2.678v2.027a65.563 65.563 0 0 0-4.174-2.615v-2.09zm-29.195.297v2.174a40.286 40.286 0 0 0-4.174 1.951v-2.109a40.83 40.83 0 0 1 4.174-2.016zm23.969 0a40.833 40.833 0 0 1 4.173 2.015v2.11a40.287 40.287 0 0 0-4.173-1.952v-2.174zm-15.31 1.572v35.772h-2.38V36.922c.784-.133 1.576-.24 2.38-.295zm6.651 0c.804.055 1.595.162 2.38.295v35.477h-2.38V36.627zm-10.084.496V72.4H39.07V38.355c1.36-.513 2.752-.93 4.173-1.232zm13.516 0c1.421.303 2.813.719 4.174 1.232V72.4h-4.174V37.123zm-23.969.547v2.092a64.434 64.434 0 0 0-4.174 2.597v-2.033a67.91 67.91 0 0 1 4.174-2.656zm34.422 0a67.911 67.911 0 0 1 4.174 2.656v2.033a64.435 64.435 0 0 0-4.174-2.597V37.67zm-39.648.502v2.017c-.963.672-1.91 1.353-2.836 2.036-.46.338-.886.655-1.338.992v-1.983c.66-.496 1.294-.976 1.97-1.474.725-.534 1.461-1.063 2.204-1.588zm44.875 0c.742.525 1.479 1.054 2.203 1.588.676.498 1.31.978 1.97 1.474v1.983c-.452-.337-.877-.654-1.337-.992a136.41 136.41 0 0 0-2.836-2.036v-2.017zm-34.422.597V72.4h-4.174V40.81a41.077 41.077 0 0 1 4.174-2.042zm23.969 0a41.08 41.08 0 0 1 4.173 2.042v31.588h-4.173v-33.63zm-34.422 2.288v2.023c-1.037.72-2.055 1.452-3.05 2.184-.387.285-.742.55-1.124.834V44.11c.59-.442 1.155-.867 1.76-1.312.793-.584 1.597-1.167 2.414-1.742zm44.875 0c.816.575 1.62 1.158 2.414 1.742.604.445 1.169.87 1.76 1.312v1.987c-.382-.284-.738-.549-1.125-.834a134.508 134.508 0 0 0-3.05-2.184v-2.023zm-39.649.353V72.4h-4.174V44.086c1.36-.936 2.75-1.84 4.174-2.676zm34.422 0a69.163 69.163 0 0 1 4.174 2.676v28.313h-4.174V41.41zm-44.875.611V44a206.172 206.172 0 0 1-4.174 3.053v-1.969c1.352-.947 2.763-2 4.174-3.063zm55.328 0a156.918 156.918 0 0 0 4.174 3.063v1.969A206.144 206.144 0 0 1 77.664 44v-1.979zm-50.101 2.803V72.4h-4.174V47.887c.66-.496 1.294-.977 1.97-1.475.725-.533 1.461-1.063 2.204-1.588zm44.875 0a144.48 144.48 0 0 1 2.203 1.588c.676.498 1.31.979 1.97 1.475v24.512h-4.173V44.824zm-50.102.074v1.979a224.928 224.928 0 0 1-4.174 3.049v-1.969c1.348-.948 2.76-1.998 4.174-3.059zm55.328 0a172.408 172.408 0 0 0 4.174 3.059v1.969a224.861 224.861 0 0 1-4.174-3.05v-1.978zm-60.554.91v1.985c-1.435.98-2.828 1.855-4.174 2.554V48.26c1.37-.667 2.76-1.5 4.174-2.452zm65.78 0c1.415.951 2.805 1.785 4.175 2.452v2.087c-1.347-.7-2.74-1.573-4.174-2.554v-1.985zm-60.554 2.866v23.722h-4.174v-20.66c1.352-.947 2.763-2 4.174-3.062zm55.328 0a156.916 156.916 0 0 0 4.174 3.062v20.66h-4.174V48.674zm-60.554.014v1.984c-1.442.99-2.835 1.872-4.174 2.582v-2.08c1.362-.678 2.752-1.525 4.174-2.486zm65.78 0c1.422.961 2.812 1.808 4.175 2.486v2.08c-1.34-.71-2.732-1.592-4.174-2.582v-1.984zm-71.007.05v2.126a16.11 16.11 0 0 1-2.332.863v-2.195c.773-.191 1.55-.465 2.332-.793zm76.234 0c.782.329 1.56.603 2.332.794v2.195a16.031 16.031 0 0 1-2.332-.863v-2.125zm-76.234 2.926v2.117a16.28 16.28 0 0 1-2.332.895v-2.192a15.77 15.77 0 0 0 2.332-.82zm76.234 0c.785.34 1.563.622 2.332.82v2.192a16.28 16.28 0 0 1-2.332-.894v-2.117zm-71.007.797v19.936h-4.174V54.912c1.37-.666 2.76-1.5 4.174-2.45zm65.78 0c1.415.95 2.805 1.785 4.175 2.451v17.485H82.89V52.46zm-71.007 2.93v17.006H9.551V56.184c.773-.191 1.55-.465 2.332-.793zm76.234 0c.782.328 1.56.602 2.332.793v16.213h-2.332V55.39z" color="#000" font-weight="400" font-family="sans-serif" overflow="visible" fill-rule="evenodd" style="line-height: normal; text-indent: 0; text-align: start; text-decoration-line: none; text-decoration-style: solid; text-decoration-color: #000; text-transform: none; block-progression: tb; white-space: normal; isolation: auto; mix-blend-mode: normal; solid-color: #000; solid-opacity: 1"></path></g><g id="SvgjsG1346" class="2OgeRd2UZf" transform="translate(62.43593346850125, 222.08021803696485) scale(3.4763595049754037 -3.4763595049754037) rotate(-90, 22.949000000000005, 22.948500000000003)" light-content="false" non-strokable="false" fill="url(#SvgjsLinearGradientXgqLguJ1phO)"><g><path d="M8.797 15.227h-.124L.95 22.949l8.426 8.426H9.5l-8.425-8.426zm28.43 0h-.124l7.72 7.722-8.425 8.426h.125l8.425-8.426zm-8.712-8.712L22.949.95l-5.564 5.565h.124l5.44-5.441 5.441 5.441zM18.213 40.087h-.125l4.861 4.861 4.862-4.861h-.125l-4.737 4.737z"></path><path d="M16.435 6.515h.125l6.389-6.39 6.391 6.39h.124L22.949 0zm-8.587 8.712h-.125L0 22.949l8.426 8.426h.124L.125 22.949zm30.329 0h-.125l7.722 7.722-8.425 8.426h.124l8.425-8.426zM22.949 45.773l-5.686-5.686h-.124l5.81 5.81 5.812-5.81h-.125z"></path></g></g><g id="SvgjsG1347" class="text" transform="translate(142.42831491957168, 172.75161616883176) scale(1)" light-content="false" fill="#fff5f5"><path d="M-32.58 -1.66C-32.53 -1.66 -32.47 -1.69 -32.41 -1.74C-32.34 -1.8 -32.31 -1.85 -32.31 -1.89C-32.31 -2.04 -32.38 -2.25 -32.52 -2.53C-32.66 -2.81 -32.79 -2.95 -32.89 -2.95C-33 -2.95 -33.1 -2.89 -33.2 -2.76C-33.3 -2.64 -33.35 -2.52 -33.35 -2.39C-33.35 -2.27 -33.26 -2.11 -33.08 -1.93C-32.9 -1.75 -32.73 -1.66 -32.58 -1.66Z M-29.38 -4.38C-29.43 -3.94 -29.57 -3.23 -29.82 -2.24C-30.07 -1.26 -30.2 -0.71 -30.2 -0.6C-30.2 -0.5 -30.15 -0.39 -30.07 -0.29C-29.98 -0.18 -29.91 -0.13 -29.84 -0.13C-29.78 -0.13 -29.73 -0.25 -29.66 -0.5C-29.63 -0.62 -29.57 -0.84 -29.5 -1.16C-29.42 -1.47 -29.37 -1.7 -29.33 -1.85C-28.97 -3.27 -28.79 -4.07 -28.79 -4.24C-28.79 -4.29 -28.8 -4.34 -28.81 -4.39C-28.56 -4.39 -28.3 -4.38 -28.03 -4.36C-27.75 -4.34 -27.54 -4.33 -27.39 -4.33C-27.23 -4.33 -27.16 -4.37 -27.16 -4.46C-27.16 -4.59 -27.31 -4.7 -27.61 -4.8C-27.92 -4.9 -28.3 -4.95 -28.77 -4.95C-29.67 -4.95 -30.25 -4.94 -30.52 -4.92C-30.79 -4.9 -30.92 -4.84 -30.92 -4.76C-30.92 -4.67 -30.88 -4.57 -30.8 -4.47C-30.72 -4.38 -30.65 -4.33 -30.57 -4.33Z M-23.95 -2.81C-23.95 -3.04 -24 -3.22 -24.1 -3.36C-24.19 -3.5 -24.32 -3.57 -24.47 -3.57C-24.58 -3.57 -24.69 -3.43 -24.81 -3.15C-24.93 -2.87 -25.09 -2.48 -25.28 -1.98C-25.47 -1.49 -25.66 -1.08 -25.85 -0.75C-25.93 -1.15 -25.97 -1.61 -25.98 -2.13C-25.99 -2.64 -26.01 -2.96 -26.02 -3.07C-26.03 -3.18 -26.08 -3.3 -26.17 -3.41C-26.26 -3.53 -26.35 -3.59 -26.45 -3.59C-26.57 -3.59 -26.62 -3.49 -26.62 -3.3C-26.62 -3.01 -26.59 -2.51 -26.52 -1.82C-26.44 -1.13 -26.36 -0.66 -26.26 -0.42C-26.21 -0.32 -26.16 -0.24 -26.09 -0.18C-26.01 -0.12 -25.95 -0.09 -25.88 -0.09C-25.74 -0.09 -25.54 -0.31 -25.3 -0.76C-25.05 -1.2 -24.77 -1.86 -24.45 -2.73C-24.48 -2.35 -24.48 -1.91 -24.47 -1.4C-24.46 -0.89 -24.42 -0.54 -24.34 -0.36C-24.26 -0.18 -24.14 -0.09 -23.97 -0.09C-23.81 -0.09 -23.59 -0.3 -23.29 -0.71C-23 -1.12 -22.77 -1.58 -22.59 -2.08C-22.37 -2.62 -22.27 -3.01 -22.27 -3.25C-22.27 -3.34 -22.3 -3.42 -22.37 -3.49C-22.44 -3.56 -22.52 -3.6 -22.61 -3.6C-22.67 -3.6 -22.72 -3.54 -22.77 -3.41C-22.81 -3.29 -22.86 -3.12 -22.92 -2.91C-22.97 -2.7 -23.03 -2.47 -23.1 -2.23C-23.18 -1.99 -23.28 -1.73 -23.43 -1.45C-23.58 -1.17 -23.75 -0.93 -23.95 -0.72C-23.98 -0.88 -23.99 -1.14 -23.99 -1.51Z M-19.28 -2.37C-19.28 -2.02 -19.39 -1.65 -19.63 -1.26C-19.86 -0.87 -20.14 -0.64 -20.48 -0.58C-20.65 -0.66 -20.74 -0.89 -20.74 -1.24C-20.74 -1.6 -20.63 -1.98 -20.4 -2.38C-20.17 -2.79 -19.9 -3.03 -19.58 -3.12C-19.48 -3.06 -19.4 -2.95 -19.35 -2.81C-19.3 -2.67 -19.28 -2.52 -19.28 -2.37ZM-20.47 -3.19C-20.73 -2.96 -20.94 -2.66 -21.1 -2.3C-21.26 -1.94 -21.34 -1.59 -21.34 -1.26C-21.34 -0.92 -21.26 -0.65 -21.1 -0.43C-20.94 -0.21 -20.75 -0.1 -20.51 -0.1C-20.19 -0.1 -19.89 -0.22 -19.61 -0.45C-19.32 -0.68 -19.1 -0.97 -18.94 -1.31C-18.78 -1.66 -18.7 -2.01 -18.7 -2.34C-18.7 -2.68 -18.79 -2.96 -18.97 -3.19C-19.16 -3.43 -19.39 -3.54 -19.66 -3.54C-19.94 -3.54 -20.21 -3.43 -20.47 -3.19Z M-17.12 -2.7C-17.12 -2.15 -17.22 -1.58 -17.4 -1C-17.48 -0.74 -17.52 -0.57 -17.52 -0.49C-17.52 -0.4 -17.5 -0.32 -17.45 -0.23C-17.4 -0.14 -17.34 -0.09 -17.26 -0.09C-17.16 -0.09 -17.08 -0.18 -17 -0.37C-16.96 -0.47 -16.92 -0.57 -16.89 -0.68C-16.86 -0.79 -16.81 -0.93 -16.75 -1.12C-16.69 -1.31 -16.6 -1.55 -16.5 -1.82C-16.39 -2.1 -16.25 -2.35 -16.08 -2.57C-15.91 -2.79 -15.71 -2.95 -15.46 -3.06C-15.35 -3.12 -15.27 -3.17 -15.22 -3.22C-15.17 -3.26 -15.14 -3.32 -15.14 -3.37C-15.14 -3.48 -15.26 -3.54 -15.48 -3.54C-15.84 -3.54 -16.23 -3.23 -16.63 -2.62C-16.62 -2.7 -16.61 -2.82 -16.61 -2.97C-16.61 -3.13 -16.65 -3.26 -16.74 -3.37C-16.82 -3.49 -16.9 -3.54 -16.99 -3.54C-17.09 -3.54 -17.14 -3.44 -17.14 -3.22Z M-14.08 -3.47C-14.29 -3.42 -14.39 -3.36 -14.39 -3.27C-14.39 -3.2 -14.34 -3.11 -14.26 -3.02C-14.17 -2.92 -14.09 -2.87 -14.02 -2.87C-13.94 -2.87 -13.82 -2.88 -13.64 -2.91C-13.47 -2.94 -13.33 -2.95 -13.21 -2.95C-12.74 -2.95 -12.51 -2.9 -12.51 -2.82C-12.51 -2.69 -12.88 -2.36 -13.62 -1.85C-13.9 -1.66 -14.16 -1.46 -14.39 -1.25C-14.62 -1.03 -14.74 -0.87 -14.74 -0.74C-14.74 -0.62 -14.66 -0.48 -14.49 -0.33C-14.32 -0.18 -14.14 -0.1 -13.94 -0.1C-13.51 -0.1 -13.07 -0.15 -12.6 -0.26C-12.14 -0.36 -11.91 -0.48 -11.91 -0.63C-11.91 -0.74 -12 -0.79 -12.18 -0.79C-12.26 -0.79 -12.48 -0.77 -12.87 -0.74C-13.25 -0.7 -13.58 -0.68 -13.84 -0.68C-13.96 -0.68 -14.02 -0.72 -14.02 -0.8C-14.02 -0.85 -13.91 -0.96 -13.7 -1.12C-13.48 -1.29 -13.25 -1.45 -12.99 -1.63C-12.74 -1.81 -12.5 -2.01 -12.29 -2.23C-12.07 -2.46 -11.97 -2.66 -11.97 -2.84C-11.97 -2.92 -12.01 -3.03 -12.09 -3.15C-12.18 -3.28 -12.27 -3.36 -12.38 -3.41C-12.6 -3.5 -12.89 -3.54 -13.25 -3.54C-13.6 -3.54 -13.88 -3.52 -14.08 -3.47Z M-7.85 -3.38C-7.93 -3.49 -8.01 -3.54 -8.09 -3.54C-8.16 -3.54 -8.21 -3.52 -8.23 -3.47C-8.4 -2.94 -8.57 -2.5 -8.73 -2.16C-8.93 -1.75 -9.14 -1.4 -9.37 -1.1C-9.6 -0.81 -9.8 -0.66 -9.97 -0.66C-10.03 -0.66 -10.09 -0.68 -10.13 -0.73C-10.18 -0.78 -10.2 -0.84 -10.2 -0.92C-10.2 -1.34 -10.02 -1.94 -9.64 -2.71C-9.52 -2.96 -9.46 -3.12 -9.46 -3.2C-9.46 -3.28 -9.5 -3.35 -9.57 -3.43C-9.64 -3.51 -9.72 -3.54 -9.8 -3.54C-9.9 -3.54 -10.04 -3.39 -10.2 -3.09C-10.36 -2.78 -10.5 -2.42 -10.62 -2C-10.74 -1.59 -10.8 -1.26 -10.8 -1.01C-10.8 -0.77 -10.72 -0.55 -10.55 -0.37C-10.39 -0.19 -10.21 -0.1 -10.02 -0.1C-9.7 -0.1 -9.37 -0.33 -9.05 -0.78C-9.06 -0.74 -9.07 -0.69 -9.09 -0.64C-9.11 -0.59 -9.12 -0.55 -9.13 -0.51C-9.14 -0.48 -9.2 -0.31 -9.31 0.01C-9.41 0.33 -9.52 0.61 -9.64 0.86C-9.75 1.12 -9.88 1.24 -10.02 1.24C-10.21 1.24 -10.44 1.09 -10.71 0.78C-10.8 0.68 -10.87 0.63 -10.91 0.63C-10.95 0.63 -11 0.67 -11.06 0.75C-11.12 0.83 -11.15 0.9 -11.15 0.96C-11.15 1.14 -11.03 1.3 -10.79 1.46C-10.55 1.62 -10.29 1.7 -10.03 1.7C-9.57 1.7 -9.22 1.37 -8.99 0.71C-8.88 0.41 -8.77 0.1 -8.66 -0.22C-8.55 -0.54 -8.46 -0.79 -8.39 -0.98C-8.32 -1.17 -8.19 -1.54 -8.01 -2.07C-7.82 -2.61 -7.72 -2.93 -7.72 -3.02C-7.72 -3.15 -7.76 -3.27 -7.85 -3.38Z M-2.37 -3.54C-2.81 -3.54 -3.3 -3.02 -3.85 -1.96C-3.79 -2.24 -3.77 -2.48 -3.77 -2.68C-3.77 -2.87 -3.84 -3.06 -4 -3.26C-4.15 -3.45 -4.29 -3.54 -4.4 -3.54C-4.58 -3.54 -4.77 -3.45 -4.95 -3.25C-5.04 -3.14 -5.16 -2.99 -5.29 -2.81C-5.43 -2.63 -5.75 -2.05 -6.27 -1.08C-5.97 -2.02 -5.81 -2.69 -5.81 -3.09C-5.81 -3.2 -5.86 -3.31 -5.96 -3.41C-6.06 -3.52 -6.16 -3.57 -6.26 -3.57C-6.33 -3.57 -6.37 -3.49 -6.38 -3.33C-6.4 -3.17 -6.42 -2.92 -6.45 -2.58C-6.48 -2.23 -6.52 -1.96 -6.58 -1.77C-6.64 -1.57 -6.69 -1.4 -6.73 -1.25C-6.78 -1.11 -6.81 -1 -6.83 -0.92C-6.85 -0.85 -6.87 -0.77 -6.89 -0.69C-6.91 -0.62 -6.92 -0.55 -6.92 -0.5C-6.92 -0.44 -6.87 -0.36 -6.78 -0.26C-6.68 -0.16 -6.61 -0.1 -6.55 -0.1C-6.49 -0.1 -6.4 -0.19 -6.28 -0.36C-6.22 -0.45 -6.16 -0.53 -6.11 -0.6C-6.07 -0.68 -6 -0.78 -5.91 -0.92C-5.82 -1.06 -5.74 -1.18 -5.68 -1.28C-5.61 -1.38 -5.51 -1.54 -5.38 -1.76C-5.25 -1.97 -5.15 -2.13 -5.08 -2.23C-5.02 -2.34 -4.95 -2.44 -4.86 -2.56C-4.78 -2.67 -4.71 -2.75 -4.65 -2.79C-4.6 -2.84 -4.55 -2.86 -4.5 -2.86C-4.44 -2.86 -4.4 -2.82 -4.36 -2.76C-4.31 -2.69 -4.29 -2.61 -4.29 -2.51C-4.29 -1.99 -4.41 -1.43 -4.65 -0.83C-4.74 -0.63 -4.78 -0.49 -4.78 -0.43C-4.78 -0.37 -4.74 -0.3 -4.68 -0.22C-4.61 -0.15 -4.54 -0.11 -4.48 -0.11C-4.43 -0.11 -4.36 -0.17 -4.28 -0.29C-4.2 -0.41 -4.11 -0.57 -4.01 -0.78C-3.9 -0.99 -3.84 -1.11 -3.81 -1.15C-3.79 -1.19 -3.76 -1.23 -3.74 -1.27C-3.72 -1.31 -3.7 -1.34 -3.69 -1.36C-3.68 -1.38 -3.58 -1.53 -3.41 -1.82C-3.24 -2.1 -3.08 -2.35 -2.93 -2.55C-2.78 -2.76 -2.65 -2.86 -2.53 -2.86C-2.44 -2.86 -2.39 -2.71 -2.39 -2.42C-2.39 -2.12 -2.47 -1.73 -2.63 -1.23C-2.79 -0.73 -2.87 -0.42 -2.87 -0.29C-2.87 -0.17 -2.82 -0.1 -2.73 -0.1C-2.59 -0.1 -2.45 -0.27 -2.3 -0.59C-2.16 -0.91 -2.05 -1.27 -1.96 -1.66C-1.87 -2.05 -1.83 -2.36 -1.83 -2.6C-1.83 -2.85 -1.89 -3.06 -1.99 -3.26C-2.1 -3.45 -2.23 -3.54 -2.37 -3.54Z M2.31 -3.38C2.23 -3.49 2.15 -3.54 2.07 -3.54C2 -3.54 1.95 -3.52 1.94 -3.47C1.76 -2.94 1.59 -2.5 1.43 -2.16C1.23 -1.75 1.02 -1.4 0.79 -1.1C0.56 -0.81 0.36 -0.66 0.19 -0.66C0.13 -0.66 0.07 -0.68 0.03 -0.73C-0.02 -0.78 -0.04 -0.84 -0.04 -0.92C-0.04 -1.34 0.15 -1.94 0.52 -2.71C0.64 -2.96 0.7 -3.12 0.7 -3.2C0.7 -3.28 0.66 -3.35 0.59 -3.43C0.52 -3.51 0.44 -3.54 0.36 -3.54C0.26 -3.54 0.13 -3.39 -0.03 -3.09C-0.2 -2.78 -0.34 -2.42 -0.46 -2C-0.58 -1.59 -0.64 -1.26 -0.64 -1.01C-0.64 -0.77 -0.56 -0.55 -0.39 -0.37C-0.23 -0.19 -0.05 -0.1 0.15 -0.1C0.46 -0.1 0.79 -0.33 1.12 -0.78C1.1 -0.74 1.09 -0.69 1.07 -0.64C1.06 -0.59 1.04 -0.55 1.03 -0.51C1.02 -0.48 0.96 -0.31 0.86 0.01C0.75 0.33 0.64 0.61 0.53 0.86C0.41 1.12 0.28 1.24 0.14 1.24C-0.05 1.24 -0.28 1.09 -0.55 0.78C-0.64 0.68 -0.71 0.63 -0.75 0.63C-0.79 0.63 -0.84 0.67 -0.9 0.75C-0.96 0.83 -0.99 0.9 -0.99 0.96C-0.99 1.14 -0.86 1.3 -0.62 1.46C-0.38 1.62 -0.13 1.7 0.13 1.7C0.59 1.7 0.94 1.37 1.17 0.71C1.28 0.41 1.39 0.1 1.5 -0.22C1.62 -0.54 1.71 -0.79 1.77 -0.98C1.84 -1.17 1.97 -1.54 2.16 -2.07C2.35 -2.61 2.44 -2.93 2.44 -3.02C2.44 -3.15 2.4 -3.27 2.31 -3.38Z M8.55 -2.99C8.27 -2.63 7.91 -2.06 7.46 -1.31C7.57 -1.63 7.65 -1.96 7.73 -2.33C7.81 -2.69 7.85 -2.94 7.85 -3.06C7.85 -3.19 7.79 -3.31 7.69 -3.41C7.59 -3.52 7.49 -3.57 7.39 -3.57C7.3 -3.57 7.26 -3.4 7.24 -3.07C7.23 -2.56 7.18 -2.11 7.07 -1.72C6.96 -1.32 6.87 -0.99 6.78 -0.72C6.75 -0.62 6.73 -0.56 6.73 -0.53C6.73 -0.46 6.77 -0.36 6.86 -0.26C6.95 -0.16 7.03 -0.1 7.09 -0.1C7.16 -0.1 7.25 -0.19 7.37 -0.36C7.43 -0.45 7.48 -0.53 7.53 -0.6C7.58 -0.68 7.64 -0.78 7.73 -0.92C7.81 -1.05 7.88 -1.16 7.93 -1.23C7.98 -1.31 8.05 -1.43 8.15 -1.58C8.25 -1.73 8.32 -1.85 8.37 -1.93C8.42 -2.01 8.49 -2.11 8.56 -2.23C8.64 -2.34 8.7 -2.43 8.75 -2.49C8.81 -2.56 8.86 -2.62 8.92 -2.68C8.98 -2.75 9.03 -2.8 9.07 -2.82C9.12 -2.85 9.16 -2.86 9.21 -2.86C9.25 -2.86 9.3 -2.83 9.34 -2.76C9.38 -2.69 9.41 -2.58 9.41 -2.44C9.41 -2.29 9.36 -2.08 9.28 -1.79C9.19 -1.5 9.1 -1.2 9 -0.91C8.9 -0.61 8.85 -0.41 8.85 -0.31C8.85 -0.17 8.9 -0.1 9 -0.1C9.23 -0.1 9.48 -0.55 9.75 -1.44C9.91 -1.92 9.98 -2.32 9.98 -2.66C9.98 -2.87 9.9 -3.07 9.74 -3.26C9.58 -3.45 9.41 -3.54 9.24 -3.54C9.06 -3.54 8.83 -3.36 8.55 -2.99Z M13.6 -3.23C13.42 -3.44 13.23 -3.54 13.02 -3.54C12.73 -3.54 12.43 -3.39 12.1 -3.07C11.78 -2.75 11.52 -2.38 11.31 -1.97C11.11 -1.56 11.01 -1.22 11.01 -0.94C11.01 -0.75 11.11 -0.56 11.32 -0.38C11.52 -0.2 11.73 -0.1 11.95 -0.1C12.3 -0.1 12.68 -0.37 13.09 -0.89C13.1 -0.66 13.13 -0.47 13.18 -0.32C13.24 -0.18 13.31 -0.1 13.39 -0.1C13.45 -0.1 13.49 -0.16 13.51 -0.28C13.53 -0.33 13.54 -0.39 13.55 -0.45C13.56 -0.51 13.57 -0.58 13.58 -0.68C13.59 -0.78 13.63 -0.98 13.68 -1.3C13.74 -1.61 13.77 -1.83 13.77 -1.96C13.77 -2.01 13.74 -2.07 13.69 -2.14C13.8 -2.32 13.86 -2.49 13.86 -2.66C13.86 -2.83 13.77 -3.02 13.6 -3.23ZM13.34 -2.32L13.34 -2.32C13.28 -2.3 13.24 -2.26 13.22 -2.19C13.12 -1.77 12.93 -1.41 12.65 -1.12C12.38 -0.83 12.14 -0.68 11.92 -0.68C11.83 -0.68 11.75 -0.7 11.69 -0.75C11.62 -0.8 11.59 -0.86 11.59 -0.94C11.59 -1.13 11.67 -1.39 11.84 -1.71C12.01 -2.04 12.21 -2.33 12.45 -2.58C12.69 -2.84 12.9 -2.97 13.08 -2.97C13.25 -2.97 13.34 -2.75 13.34 -2.32Z M19.96 -4.9C19.96 -5.03 19.91 -5.16 19.79 -5.29C19.68 -5.42 19.59 -5.49 19.53 -5.49C19.47 -5.49 19.44 -5.47 19.42 -5.45C19.4 -5.42 19.39 -5.37 19.39 -5.31C19.39 -4.7 19.32 -4.02 19.19 -3.26C19.05 -2.51 18.92 -1.87 18.79 -1.35C18.65 -0.83 18.58 -0.55 18.58 -0.49C18.58 -0.44 18.63 -0.36 18.71 -0.26C18.8 -0.15 18.87 -0.1 18.94 -0.1C19.03 -0.1 19.19 -0.58 19.42 -1.52C19.78 -2.91 19.96 -4.03 19.96 -4.9Z M23.41 -3.23C23.24 -3.44 23.04 -3.54 22.84 -3.54C22.55 -3.54 22.24 -3.39 21.92 -3.07C21.6 -2.75 21.33 -2.38 21.13 -1.97C20.93 -1.56 20.82 -1.22 20.82 -0.94C20.82 -0.75 20.93 -0.56 21.13 -0.38C21.34 -0.2 21.55 -0.1 21.76 -0.1C22.11 -0.1 22.49 -0.37 22.91 -0.89C22.92 -0.66 22.95 -0.47 23 -0.32C23.05 -0.18 23.12 -0.1 23.2 -0.1C23.27 -0.1 23.31 -0.16 23.33 -0.28C23.34 -0.33 23.35 -0.39 23.36 -0.45C23.37 -0.51 23.38 -0.58 23.39 -0.68C23.41 -0.78 23.44 -0.98 23.5 -1.3C23.56 -1.61 23.59 -1.83 23.59 -1.96C23.59 -2.01 23.56 -2.07 23.5 -2.14C23.62 -2.32 23.68 -2.49 23.68 -2.66C23.68 -2.83 23.59 -3.02 23.41 -3.23ZM23.16 -2.32L23.16 -2.32C23.09 -2.3 23.05 -2.26 23.04 -2.19C22.93 -1.77 22.74 -1.41 22.47 -1.12C22.2 -0.83 21.95 -0.68 21.73 -0.68C21.65 -0.68 21.57 -0.7 21.5 -0.75C21.44 -0.8 21.41 -0.86 21.41 -0.94C21.41 -1.13 21.49 -1.39 21.66 -1.71C21.82 -2.04 22.03 -2.33 22.27 -2.58C22.51 -2.84 22.72 -2.97 22.9 -2.97C23.07 -2.97 23.16 -2.75 23.16 -2.32Z M25.72 -0.8C25.72 -0.9 25.79 -1.19 25.94 -1.65C26.09 -2.12 26.21 -2.54 26.3 -2.91C26.79 -3 27.1 -3.08 27.25 -3.12C27.4 -3.17 27.48 -3.23 27.48 -3.3C27.48 -3.42 27.34 -3.48 27.06 -3.48C26.9 -3.48 26.69 -3.46 26.43 -3.44C26.51 -3.76 26.55 -3.97 26.55 -4.1C26.55 -4.22 26.49 -4.34 26.37 -4.44C26.26 -4.54 26.16 -4.59 26.08 -4.59C25.99 -4.59 25.94 -4.52 25.94 -4.38C25.94 -4.08 25.9 -3.74 25.82 -3.36C25.22 -3.26 24.92 -3.15 24.92 -3.04C24.92 -2.97 24.95 -2.9 25.03 -2.82C25.1 -2.74 25.17 -2.71 25.24 -2.71C25.32 -2.71 25.46 -2.73 25.68 -2.78C25.62 -2.56 25.54 -2.29 25.43 -1.96C25.33 -1.63 25.25 -1.36 25.2 -1.16C25.14 -0.96 25.11 -0.8 25.11 -0.67C25.11 -0.54 25.19 -0.41 25.33 -0.29C25.48 -0.17 25.67 -0.1 25.89 -0.1C26.12 -0.1 26.37 -0.19 26.64 -0.37C26.92 -0.54 27.05 -0.7 27.05 -0.83C27.05 -0.92 27.01 -0.96 26.93 -0.96C26.9 -0.96 26.76 -0.91 26.51 -0.82C26.26 -0.72 26.04 -0.67 25.87 -0.67C25.77 -0.67 25.72 -0.71 25.72 -0.8Z M30.74 -3.23C30.56 -3.44 30.37 -3.54 30.16 -3.54C29.88 -3.54 29.57 -3.39 29.25 -3.07C28.92 -2.75 28.66 -2.38 28.46 -1.97C28.25 -1.56 28.15 -1.22 28.15 -0.94C28.15 -0.75 28.25 -0.56 28.46 -0.38C28.66 -0.2 28.87 -0.1 29.09 -0.1C29.44 -0.1 29.82 -0.37 30.23 -0.89C30.24 -0.66 30.27 -0.47 30.32 -0.32C30.38 -0.18 30.45 -0.1 30.53 -0.1C30.59 -0.1 30.64 -0.16 30.65 -0.28C30.67 -0.33 30.68 -0.39 30.69 -0.45C30.7 -0.51 30.71 -0.58 30.72 -0.68C30.73 -0.78 30.77 -0.98 30.82 -1.3C30.88 -1.61 30.91 -1.83 30.91 -1.96C30.91 -2.01 30.88 -2.07 30.83 -2.14C30.94 -2.32 31 -2.49 31 -2.66C31 -2.83 30.91 -3.02 30.74 -3.23ZM30.48 -2.32L30.48 -2.32C30.42 -2.3 30.38 -2.26 30.36 -2.19C30.26 -1.77 30.07 -1.41 29.79 -1.12C29.52 -0.83 29.28 -0.68 29.06 -0.68C28.97 -0.68 28.89 -0.7 28.83 -0.75C28.77 -0.8 28.73 -0.86 28.73 -0.94C28.73 -1.13 28.82 -1.39 28.98 -1.71C29.15 -2.04 29.35 -2.33 29.59 -2.58C29.83 -2.84 30.04 -2.97 30.22 -2.97C30.4 -2.97 30.48 -2.75 30.48 -2.32Z M33.16 -1.66C33.21 -1.66 33.27 -1.69 33.34 -1.74C33.4 -1.8 33.43 -1.85 33.43 -1.89C33.43 -2.04 33.36 -2.25 33.22 -2.53C33.08 -2.81 32.95 -2.95 32.85 -2.95C32.75 -2.95 32.64 -2.89 32.54 -2.76C32.45 -2.64 32.4 -2.52 32.4 -2.39C32.4 -2.27 32.49 -2.11 32.67 -1.93C32.85 -1.75 33.01 -1.66 33.16 -1.66Z"></path></g><g id="SvgjsG1348" class="text" transform="translate(142.41150130657272, 162.6903500792207) scale(1)" light-content="false" fill="#fffffe"><path d="M-50.99 -1.66C-50.94 -1.66 -50.88 -1.69 -50.81 -1.74C-50.75 -1.8 -50.72 -1.85 -50.72 -1.89C-50.72 -2.04 -50.79 -2.25 -50.93 -2.53C-51.07 -2.81 -51.2 -2.95 -51.3 -2.95C-51.4 -2.95 -51.51 -2.89 -51.61 -2.76C-51.7 -2.64 -51.75 -2.52 -51.75 -2.39C-51.75 -2.27 -51.66 -2.11 -51.48 -1.93C-51.3 -1.75 -51.14 -1.66 -50.99 -1.66Z M-48.66 -5C-48.75 -5 -48.8 -4.96 -48.8 -4.87C-48.8 -4.78 -48.75 -4.69 -48.67 -4.59C-48.58 -4.5 -48.46 -4.42 -48.31 -4.36C-48.34 -4.05 -48.48 -3.42 -48.75 -2.46C-49.02 -1.49 -49.15 -0.94 -49.15 -0.78C-49.15 -0.63 -49.1 -0.47 -48.98 -0.32C-48.87 -0.17 -48.77 -0.1 -48.68 -0.1C-48.34 -0.1 -47.92 -0.23 -47.4 -0.5C-46.89 -0.77 -46.44 -1.1 -46.05 -1.48C-45.66 -1.86 -45.46 -2.19 -45.46 -2.48C-45.46 -2.91 -45.64 -3.32 -46 -3.72C-46.35 -4.12 -46.78 -4.44 -47.27 -4.66C-47.76 -4.89 -48.23 -5 -48.66 -5ZM-46.1 -2.55C-46.1 -2.4 -46.23 -2.18 -46.49 -1.91C-46.75 -1.63 -47.08 -1.38 -47.48 -1.14C-47.87 -0.9 -48.23 -0.76 -48.55 -0.72C-48.49 -1.09 -48.42 -1.42 -48.33 -1.73C-48.12 -2.45 -47.97 -2.97 -47.89 -3.28C-47.81 -3.59 -47.77 -3.8 -47.77 -3.92C-47.77 -4.03 -47.78 -4.13 -47.81 -4.21C-47.35 -4.06 -46.96 -3.82 -46.61 -3.49C-46.27 -3.15 -46.1 -2.84 -46.1 -2.55Z M-43.8 -3.47C-44.01 -3.42 -44.11 -3.36 -44.11 -3.27C-44.11 -3.2 -44.07 -3.11 -43.98 -3.02C-43.9 -2.92 -43.81 -2.87 -43.74 -2.87C-43.66 -2.87 -43.54 -2.88 -43.37 -2.91C-43.2 -2.94 -43.05 -2.95 -42.94 -2.95C-42.47 -2.95 -42.23 -2.9 -42.23 -2.82C-42.23 -2.69 -42.6 -2.36 -43.35 -1.85C-43.62 -1.66 -43.88 -1.46 -44.11 -1.25C-44.35 -1.03 -44.46 -0.87 -44.46 -0.74C-44.46 -0.62 -44.38 -0.48 -44.21 -0.33C-44.05 -0.18 -43.86 -0.1 -43.67 -0.1C-43.24 -0.1 -42.79 -0.15 -42.33 -0.26C-41.86 -0.36 -41.63 -0.48 -41.63 -0.63C-41.63 -0.74 -41.72 -0.79 -41.9 -0.79C-41.98 -0.79 -42.21 -0.77 -42.59 -0.74C-42.97 -0.7 -43.3 -0.68 -43.56 -0.68C-43.68 -0.68 -43.74 -0.72 -43.74 -0.8C-43.74 -0.85 -43.63 -0.96 -43.42 -1.12C-43.2 -1.29 -42.97 -1.45 -42.72 -1.63C-42.46 -1.81 -42.23 -2.01 -42.01 -2.23C-41.8 -2.46 -41.69 -2.66 -41.69 -2.84C-41.69 -2.92 -41.73 -3.03 -41.82 -3.15C-41.9 -3.28 -42 -3.36 -42.1 -3.41C-42.32 -3.5 -42.61 -3.54 -42.97 -3.54C-43.32 -3.54 -43.6 -3.52 -43.8 -3.47Z M-39.47 -4.79C-39.54 -4.71 -39.58 -4.62 -39.58 -4.53C-39.58 -4.44 -39.51 -4.32 -39.37 -4.19C-39.24 -4.06 -39.11 -3.99 -39 -3.99C-38.96 -3.99 -38.91 -4.01 -38.87 -4.04C-38.83 -4.08 -38.81 -4.12 -38.81 -4.17C-38.81 -4.29 -38.86 -4.45 -38.97 -4.64C-39.08 -4.82 -39.17 -4.92 -39.24 -4.92C-39.32 -4.92 -39.39 -4.88 -39.47 -4.79ZM-39.61 -3.54C-39.68 -3.54 -39.75 -3.43 -39.82 -3.2C-39.85 -3.08 -39.88 -2.97 -39.9 -2.85C-39.93 -2.73 -39.96 -2.57 -40 -2.38C-40.04 -2.19 -40.08 -2.02 -40.12 -1.87C-40.16 -1.71 -40.22 -1.52 -40.28 -1.27C-40.35 -1.03 -40.4 -0.84 -40.44 -0.69C-40.47 -0.54 -40.49 -0.44 -40.49 -0.37C-40.49 -0.3 -40.47 -0.24 -40.42 -0.19C-40.37 -0.14 -40.32 -0.11 -40.25 -0.11C-40.13 -0.11 -40.03 -0.23 -39.95 -0.46C-39.75 -1.09 -39.58 -1.65 -39.45 -2.16C-39.31 -2.67 -39.25 -2.97 -39.25 -3.07C-39.25 -3.17 -39.29 -3.28 -39.36 -3.39C-39.44 -3.49 -39.53 -3.54 -39.61 -3.54Z M-35.65 -3.23C-35.82 -3.44 -36.01 -3.54 -36.22 -3.54C-36.51 -3.54 -36.81 -3.39 -37.14 -3.07C-37.46 -2.75 -37.73 -2.38 -37.93 -1.97C-38.13 -1.56 -38.23 -1.22 -38.23 -0.94C-38.23 -0.75 -38.13 -0.56 -37.93 -0.38C-37.72 -0.2 -37.51 -0.1 -37.3 -0.1C-36.95 -0.1 -36.56 -0.37 -36.15 -0.89C-36.14 -0.66 -36.11 -0.47 -36.06 -0.32C-36.01 -0.18 -35.94 -0.1 -35.85 -0.1C-35.79 -0.1 -35.75 -0.16 -35.73 -0.28C-35.72 -0.33 -35.7 -0.39 -35.69 -0.45C-35.69 -0.51 -35.68 -0.58 -35.66 -0.68C-35.65 -0.78 -35.62 -0.98 -35.56 -1.3C-35.5 -1.61 -35.47 -1.83 -35.47 -1.96C-35.47 -2.01 -35.5 -2.07 -35.56 -2.14C-35.44 -2.32 -35.38 -2.49 -35.38 -2.66C-35.38 -2.83 -35.47 -3.02 -35.65 -3.23ZM-35.9 -2.32L-35.9 -2.32C-35.97 -2.3 -36.01 -2.26 -36.02 -2.19C-36.13 -1.77 -36.32 -1.41 -36.59 -1.12C-36.86 -0.83 -37.11 -0.68 -37.32 -0.68C-37.41 -0.68 -37.49 -0.7 -37.55 -0.75C-37.62 -0.8 -37.65 -0.86 -37.65 -0.94C-37.65 -1.13 -37.57 -1.39 -37.4 -1.71C-37.23 -2.04 -37.03 -2.33 -36.79 -2.58C-36.55 -2.84 -36.34 -2.97 -36.16 -2.97C-35.99 -2.97 -35.9 -2.75 -35.9 -2.32Z M-32.47 -3.2C-32.35 -3.91 -32.29 -4.48 -32.29 -4.9C-32.29 -5.03 -32.35 -5.16 -32.46 -5.29C-32.57 -5.42 -32.66 -5.49 -32.73 -5.49C-32.83 -5.49 -32.87 -5.43 -32.87 -5.31C-32.87 -4.66 -32.95 -3.91 -33.11 -3.04C-33.7 -2.86 -34 -2.73 -34 -2.64C-34 -2.58 -33.95 -2.52 -33.87 -2.46C-33.79 -2.4 -33.71 -2.37 -33.65 -2.37C-33.59 -2.37 -33.44 -2.4 -33.22 -2.48C-33.29 -2.12 -33.42 -1.57 -33.61 -0.83C-33.66 -0.66 -33.68 -0.55 -33.68 -0.49C-33.68 -0.44 -33.63 -0.36 -33.54 -0.26C-33.46 -0.15 -33.38 -0.1 -33.32 -0.1C-33.22 -0.1 -33.06 -0.58 -32.83 -1.52C-32.74 -1.85 -32.65 -2.25 -32.55 -2.73C-32.19 -2.86 -31.95 -2.95 -31.81 -3.02C-31.68 -3.08 -31.62 -3.15 -31.62 -3.22C-31.62 -3.29 -31.67 -3.32 -31.78 -3.32C-31.88 -3.32 -32.11 -3.28 -32.47 -3.2Z M-28.38 -3.23C-28.56 -3.44 -28.75 -3.54 -28.96 -3.54C-29.25 -3.54 -29.55 -3.39 -29.87 -3.07C-30.2 -2.75 -30.46 -2.38 -30.67 -1.97C-30.87 -1.56 -30.97 -1.22 -30.97 -0.94C-30.97 -0.75 -30.87 -0.56 -30.66 -0.38C-30.46 -0.2 -30.25 -0.1 -30.03 -0.1C-29.68 -0.1 -29.3 -0.37 -28.89 -0.89C-28.88 -0.66 -28.85 -0.47 -28.8 -0.32C-28.74 -0.18 -28.67 -0.1 -28.59 -0.1C-28.53 -0.1 -28.48 -0.16 -28.47 -0.28C-28.45 -0.33 -28.44 -0.39 -28.43 -0.45C-28.42 -0.51 -28.41 -0.58 -28.4 -0.68C-28.39 -0.78 -28.35 -0.98 -28.3 -1.3C-28.24 -1.61 -28.21 -1.83 -28.21 -1.96C-28.21 -2.01 -28.24 -2.07 -28.29 -2.14C-28.18 -2.32 -28.12 -2.49 -28.12 -2.66C-28.12 -2.83 -28.21 -3.02 -28.38 -3.23ZM-28.64 -2.32L-28.64 -2.32C-28.7 -2.3 -28.74 -2.26 -28.76 -2.19C-28.86 -1.77 -29.05 -1.41 -29.33 -1.12C-29.6 -0.83 -29.84 -0.68 -30.06 -0.68C-30.15 -0.68 -30.23 -0.7 -30.29 -0.75C-30.36 -0.8 -30.39 -0.86 -30.39 -0.94C-30.39 -1.13 -30.3 -1.39 -30.14 -1.71C-29.97 -2.04 -29.77 -2.33 -29.53 -2.58C-29.29 -2.84 -29.08 -2.97 -28.9 -2.97C-28.73 -2.97 -28.64 -2.75 -28.64 -2.32Z M-22.31 -3.54C-22.76 -3.54 -23.25 -3.02 -23.8 -1.96C-23.74 -2.24 -23.71 -2.48 -23.71 -2.68C-23.71 -2.87 -23.79 -3.06 -23.95 -3.26C-24.1 -3.45 -24.23 -3.54 -24.35 -3.54C-24.53 -3.54 -24.71 -3.45 -24.89 -3.25C-24.99 -3.14 -25.11 -2.99 -25.24 -2.81C-25.37 -2.63 -25.7 -2.05 -26.22 -1.08C-25.91 -2.02 -25.76 -2.69 -25.76 -3.09C-25.76 -3.2 -25.81 -3.31 -25.91 -3.41C-26.01 -3.52 -26.11 -3.57 -26.21 -3.57C-26.28 -3.57 -26.32 -3.49 -26.33 -3.33C-26.34 -3.17 -26.37 -2.92 -26.4 -2.58C-26.43 -2.23 -26.47 -1.96 -26.53 -1.77C-26.59 -1.57 -26.64 -1.4 -26.68 -1.25C-26.72 -1.11 -26.76 -1 -26.78 -0.92C-26.8 -0.85 -26.82 -0.77 -26.84 -0.69C-26.85 -0.62 -26.86 -0.55 -26.86 -0.5C-26.86 -0.44 -26.82 -0.36 -26.73 -0.26C-26.63 -0.16 -26.56 -0.1 -26.5 -0.1C-26.44 -0.1 -26.35 -0.19 -26.23 -0.36C-26.17 -0.45 -26.11 -0.53 -26.06 -0.6C-26.01 -0.68 -25.95 -0.78 -25.86 -0.92C-25.77 -1.06 -25.69 -1.18 -25.63 -1.28C-25.56 -1.38 -25.46 -1.54 -25.33 -1.76C-25.2 -1.97 -25.1 -2.13 -25.03 -2.23C-24.97 -2.34 -24.89 -2.44 -24.81 -2.56C-24.73 -2.67 -24.66 -2.75 -24.6 -2.79C-24.55 -2.84 -24.49 -2.86 -24.44 -2.86C-24.39 -2.86 -24.35 -2.82 -24.3 -2.76C-24.26 -2.69 -24.24 -2.61 -24.24 -2.51C-24.24 -1.99 -24.36 -1.43 -24.6 -0.83C-24.69 -0.63 -24.73 -0.49 -24.73 -0.43C-24.73 -0.37 -24.69 -0.3 -24.62 -0.22C-24.55 -0.15 -24.49 -0.11 -24.43 -0.11C-24.37 -0.11 -24.31 -0.17 -24.23 -0.29C-24.15 -0.41 -24.06 -0.57 -23.95 -0.78C-23.85 -0.99 -23.78 -1.11 -23.76 -1.15C-23.73 -1.19 -23.71 -1.23 -23.69 -1.27C-23.67 -1.31 -23.65 -1.34 -23.64 -1.36C-23.62 -1.38 -23.53 -1.53 -23.36 -1.82C-23.19 -2.1 -23.03 -2.35 -22.88 -2.55C-22.73 -2.76 -22.6 -2.86 -22.48 -2.86C-22.39 -2.86 -22.34 -2.71 -22.34 -2.42C-22.34 -2.12 -22.42 -1.73 -22.58 -1.23C-22.74 -0.73 -22.82 -0.42 -22.82 -0.29C-22.82 -0.17 -22.77 -0.1 -22.67 -0.1C-22.54 -0.1 -22.39 -0.27 -22.25 -0.59C-22.11 -0.91 -21.99 -1.27 -21.91 -1.66C-21.82 -2.05 -21.78 -2.36 -21.78 -2.6C-21.78 -2.85 -21.83 -3.06 -21.94 -3.26C-22.05 -3.45 -22.17 -3.54 -22.31 -3.54Z M-17.58 -3.38C-17.66 -3.49 -17.74 -3.54 -17.82 -3.54C-17.89 -3.54 -17.94 -3.52 -17.96 -3.47C-18.13 -2.94 -18.3 -2.5 -18.46 -2.16C-18.66 -1.75 -18.87 -1.4 -19.1 -1.1C-19.33 -0.81 -19.53 -0.66 -19.7 -0.66C-19.76 -0.66 -19.82 -0.68 -19.86 -0.73C-19.91 -0.78 -19.93 -0.84 -19.93 -0.92C-19.93 -1.34 -19.75 -1.94 -19.37 -2.71C-19.25 -2.96 -19.19 -3.12 -19.19 -3.2C-19.19 -3.28 -19.23 -3.35 -19.3 -3.43C-19.37 -3.51 -19.45 -3.54 -19.53 -3.54C-19.63 -3.54 -19.76 -3.39 -19.93 -3.09C-20.09 -2.78 -20.23 -2.42 -20.35 -2C-20.47 -1.59 -20.53 -1.26 -20.53 -1.01C-20.53 -0.77 -20.45 -0.55 -20.28 -0.37C-20.12 -0.19 -19.94 -0.1 -19.75 -0.1C-19.43 -0.1 -19.1 -0.33 -18.78 -0.78C-18.79 -0.74 -18.8 -0.69 -18.82 -0.64C-18.84 -0.59 -18.85 -0.55 -18.86 -0.51C-18.87 -0.48 -18.93 -0.31 -19.04 0.01C-19.14 0.33 -19.25 0.61 -19.36 0.86C-19.48 1.12 -19.61 1.24 -19.75 1.24C-19.94 1.24 -20.17 1.09 -20.44 0.78C-20.53 0.68 -20.6 0.63 -20.64 0.63C-20.68 0.63 -20.73 0.67 -20.79 0.75C-20.85 0.83 -20.88 0.9 -20.88 0.96C-20.88 1.14 -20.76 1.3 -20.52 1.46C-20.28 1.62 -20.02 1.7 -19.76 1.7C-19.3 1.7 -18.95 1.37 -18.72 0.71C-18.61 0.41 -18.5 0.1 -18.39 -0.22C-18.28 -0.54 -18.19 -0.79 -18.12 -0.98C-18.05 -1.17 -17.92 -1.54 -17.73 -2.07C-17.55 -2.61 -17.45 -2.93 -17.45 -3.02C-17.45 -3.15 -17.49 -3.27 -17.58 -3.38Z M-12.53 -3.47C-12.74 -3.42 -12.84 -3.36 -12.84 -3.27C-12.84 -3.2 -12.79 -3.11 -12.71 -3.02C-12.62 -2.92 -12.54 -2.87 -12.47 -2.87C-12.39 -2.87 -12.27 -2.88 -12.09 -2.91C-11.92 -2.94 -11.78 -2.95 -11.66 -2.95C-11.19 -2.95 -10.96 -2.9 -10.96 -2.82C-10.96 -2.69 -11.33 -2.36 -12.07 -1.85C-12.35 -1.66 -12.61 -1.46 -12.84 -1.25C-13.07 -1.03 -13.19 -0.87 -13.19 -0.74C-13.19 -0.62 -13.11 -0.48 -12.94 -0.33C-12.77 -0.18 -12.59 -0.1 -12.39 -0.1C-11.96 -0.1 -11.52 -0.15 -11.05 -0.26C-10.59 -0.36 -10.36 -0.48 -10.36 -0.63C-10.36 -0.74 -10.45 -0.79 -10.63 -0.79C-10.71 -0.79 -10.93 -0.77 -11.32 -0.74C-11.7 -0.7 -12.03 -0.68 -12.29 -0.68C-12.41 -0.68 -12.47 -0.72 -12.47 -0.8C-12.47 -0.85 -12.36 -0.96 -12.15 -1.12C-11.93 -1.29 -11.7 -1.45 -11.44 -1.63C-11.19 -1.81 -10.95 -2.01 -10.74 -2.23C-10.52 -2.46 -10.42 -2.66 -10.42 -2.84C-10.42 -2.92 -10.46 -3.03 -10.54 -3.15C-10.63 -3.28 -10.72 -3.36 -10.83 -3.41C-11.05 -3.5 -11.34 -3.54 -11.7 -3.54C-12.05 -3.54 -12.33 -3.52 -12.53 -3.47Z M-2.7 -5.49C-2.8 -5.49 -2.85 -5.42 -2.85 -5.28C-2.87 -4.71 -3 -3.94 -3.24 -2.96C-3.37 -3.35 -3.59 -3.54 -3.92 -3.54C-4.25 -3.54 -4.56 -3.38 -4.85 -3.06C-5.14 -2.74 -5.37 -2.38 -5.52 -1.98C-5.68 -1.59 -5.75 -1.24 -5.75 -0.96C-5.75 -0.76 -5.67 -0.57 -5.51 -0.38C-5.34 -0.2 -5.16 -0.1 -4.96 -0.1C-4.62 -0.1 -4.22 -0.34 -3.77 -0.8C-3.8 -0.62 -3.82 -0.5 -3.82 -0.44C-3.82 -0.38 -3.78 -0.31 -3.7 -0.23C-3.63 -0.14 -3.56 -0.1 -3.49 -0.1C-3.39 -0.1 -3.17 -0.78 -2.83 -2.13C-2.68 -2.73 -2.55 -3.31 -2.43 -3.87C-2.32 -4.44 -2.26 -4.78 -2.26 -4.9C-2.26 -5.02 -2.31 -5.15 -2.42 -5.28C-2.53 -5.42 -2.62 -5.49 -2.7 -5.49ZM-3.46 -2.08L-3.46 -2.05L-3.48 -1.96C-3.62 -1.61 -3.84 -1.31 -4.15 -1.05C-4.46 -0.79 -4.7 -0.66 -4.88 -0.66C-4.96 -0.66 -5.04 -0.68 -5.1 -0.74C-5.16 -0.79 -5.19 -0.85 -5.19 -0.94C-5.19 -1.17 -5.12 -1.44 -5 -1.76C-4.88 -2.08 -4.71 -2.36 -4.51 -2.6C-4.3 -2.85 -4.09 -2.97 -3.9 -2.97C-3.77 -2.97 -3.67 -2.88 -3.59 -2.71C-3.5 -2.54 -3.46 -2.33 -3.46 -2.08Z M0.64 -2.37C0.64 -2.02 0.52 -1.65 0.29 -1.26C0.06 -0.87 -0.23 -0.64 -0.56 -0.58C-0.73 -0.66 -0.82 -0.89 -0.82 -1.24C-0.82 -1.6 -0.71 -1.98 -0.48 -2.38C-0.25 -2.79 0.02 -3.03 0.34 -3.12C0.44 -3.06 0.51 -2.95 0.57 -2.81C0.62 -2.67 0.64 -2.52 0.64 -2.37ZM-0.55 -3.19C-0.81 -2.96 -1.02 -2.66 -1.18 -2.3C-1.34 -1.94 -1.42 -1.59 -1.42 -1.26C-1.42 -0.92 -1.34 -0.65 -1.18 -0.43C-1.03 -0.21 -0.83 -0.1 -0.59 -0.1C-0.27 -0.1 0.03 -0.22 0.31 -0.45C0.6 -0.68 0.82 -0.97 0.98 -1.31C1.14 -1.66 1.22 -2.01 1.22 -2.34C1.22 -2.68 1.13 -2.96 0.95 -3.19C0.76 -3.43 0.53 -3.54 0.26 -3.54C-0.02 -3.54 -0.29 -3.43 -0.55 -3.19Z M4.42 -3.54C4.17 -3.54 3.85 -3.41 3.46 -3.15C3.08 -2.88 2.88 -2.62 2.88 -2.38C2.88 -2.24 2.95 -2.1 3.08 -1.97C3.22 -1.84 3.36 -1.72 3.52 -1.63C3.68 -1.54 3.83 -1.43 3.96 -1.31C4.1 -1.2 4.17 -1.09 4.17 -0.98C4.17 -0.88 4.11 -0.79 3.99 -0.73C3.87 -0.67 3.67 -0.64 3.4 -0.64C3.13 -0.64 2.87 -0.73 2.62 -0.91C2.54 -0.97 2.47 -1 2.42 -1C2.38 -1 2.34 -0.98 2.31 -0.95C2.28 -0.91 2.26 -0.86 2.26 -0.8C2.26 -0.66 2.39 -0.51 2.65 -0.35C2.91 -0.18 3.2 -0.1 3.54 -0.1C3.87 -0.1 4.17 -0.19 4.42 -0.36C4.67 -0.54 4.8 -0.72 4.8 -0.9C4.8 -1.08 4.73 -1.25 4.6 -1.41C4.47 -1.57 4.32 -1.7 4.16 -1.8C3.73 -2.06 3.52 -2.25 3.52 -2.35C3.52 -2.49 3.64 -2.63 3.88 -2.76C4.12 -2.89 4.29 -2.96 4.4 -2.96C4.51 -2.96 4.62 -2.91 4.73 -2.83C4.83 -2.75 4.91 -2.71 4.96 -2.71C5.04 -2.71 5.07 -2.75 5.07 -2.83C5.07 -2.96 5.01 -3.11 4.87 -3.28C4.73 -3.46 4.58 -3.54 4.42 -3.54ZM4 -3.96C4.03 -3.92 4.07 -3.9 4.12 -3.9C4.17 -3.9 4.25 -3.94 4.37 -4.02C4.4 -4.03 4.45 -4.07 4.51 -4.11C4.57 -4.16 4.62 -4.2 4.68 -4.24C4.73 -4.28 4.79 -4.32 4.87 -4.37C4.95 -4.42 5.01 -4.45 5.05 -4.47C5.08 -4.5 5.12 -4.53 5.17 -4.56C5.21 -4.6 5.24 -4.62 5.26 -4.64C5.28 -4.67 5.3 -4.69 5.31 -4.72C5.32 -4.75 5.32 -4.8 5.32 -4.86C5.32 -4.92 5.29 -5 5.23 -5.08C5.17 -5.17 5.11 -5.22 5.04 -5.22C4.98 -5.22 4.91 -5.18 4.83 -5.12C4.79 -5.08 4.75 -5.05 4.71 -5.01C4.68 -4.97 4.62 -4.92 4.56 -4.86C4.49 -4.79 4.4 -4.7 4.29 -4.59C4.17 -4.48 4.09 -4.39 4.03 -4.31C3.97 -4.24 3.94 -4.17 3.94 -4.11C3.94 -4.05 3.96 -4 4 -3.96Z M8.93 -2.81C8.93 -3.04 8.88 -3.22 8.78 -3.36C8.68 -3.5 8.56 -3.57 8.4 -3.57C8.3 -3.57 8.19 -3.43 8.07 -3.15C7.95 -2.87 7.79 -2.48 7.6 -1.98C7.4 -1.49 7.21 -1.08 7.02 -0.75C6.95 -1.15 6.91 -1.61 6.9 -2.13C6.88 -2.64 6.87 -2.96 6.86 -3.07C6.84 -3.18 6.79 -3.3 6.71 -3.41C6.62 -3.53 6.53 -3.59 6.43 -3.59C6.31 -3.59 6.25 -3.49 6.25 -3.3C6.25 -3.01 6.29 -2.51 6.36 -1.82C6.43 -1.13 6.52 -0.66 6.62 -0.42C6.66 -0.32 6.72 -0.24 6.79 -0.18C6.86 -0.12 6.93 -0.09 7 -0.09C7.14 -0.09 7.33 -0.31 7.58 -0.76C7.82 -1.2 8.11 -1.86 8.43 -2.73C8.4 -2.35 8.4 -1.91 8.4 -1.4C8.41 -0.89 8.46 -0.54 8.54 -0.36C8.62 -0.18 8.74 -0.09 8.9 -0.09C9.07 -0.09 9.29 -0.3 9.58 -0.71C9.87 -1.12 10.11 -1.58 10.29 -2.08C10.5 -2.62 10.61 -3.01 10.61 -3.25C10.61 -3.34 10.58 -3.42 10.51 -3.49C10.44 -3.56 10.36 -3.6 10.27 -3.6C10.21 -3.6 10.16 -3.54 10.11 -3.41C10.06 -3.29 10.01 -3.12 9.96 -2.91C9.91 -2.7 9.85 -2.47 9.77 -2.23C9.7 -1.99 9.59 -1.73 9.45 -1.45C9.3 -1.17 9.13 -0.93 8.93 -0.72C8.9 -0.88 8.88 -1.14 8.88 -1.51Z M12.56 -4.79C12.49 -4.71 12.45 -4.62 12.45 -4.53C12.45 -4.44 12.52 -4.32 12.65 -4.19C12.79 -4.06 12.91 -3.99 13.02 -3.99C13.07 -3.99 13.11 -4.01 13.16 -4.04C13.2 -4.08 13.22 -4.12 13.22 -4.17C13.22 -4.29 13.17 -4.45 13.06 -4.64C12.95 -4.82 12.86 -4.92 12.79 -4.92C12.71 -4.92 12.63 -4.88 12.56 -4.79ZM12.41 -3.54C12.34 -3.54 12.28 -3.43 12.21 -3.2C12.18 -3.08 12.15 -2.97 12.13 -2.85C12.1 -2.73 12.07 -2.57 12.03 -2.38C11.98 -2.19 11.94 -2.02 11.9 -1.87C11.86 -1.71 11.81 -1.52 11.74 -1.27C11.68 -1.03 11.63 -0.84 11.59 -0.69C11.56 -0.54 11.54 -0.44 11.54 -0.37C11.54 -0.3 11.56 -0.24 11.61 -0.19C11.66 -0.14 11.71 -0.11 11.78 -0.11C11.9 -0.11 12 -0.23 12.07 -0.46C12.28 -1.09 12.45 -1.65 12.58 -2.16C12.71 -2.67 12.78 -2.97 12.78 -3.07C12.78 -3.17 12.74 -3.28 12.66 -3.39C12.59 -3.49 12.5 -3.54 12.41 -3.54Z M16.38 -3.23C16.21 -3.44 16.01 -3.54 15.81 -3.54C15.52 -3.54 15.21 -3.39 14.89 -3.07C14.57 -2.75 14.3 -2.38 14.1 -1.97C13.9 -1.56 13.79 -1.22 13.79 -0.94C13.79 -0.75 13.9 -0.56 14.1 -0.38C14.31 -0.2 14.52 -0.1 14.73 -0.1C15.08 -0.1 15.46 -0.37 15.88 -0.89C15.88 -0.66 15.92 -0.47 15.97 -0.32C16.02 -0.18 16.09 -0.1 16.17 -0.1C16.24 -0.1 16.28 -0.16 16.3 -0.28C16.31 -0.33 16.32 -0.39 16.33 -0.45C16.34 -0.51 16.35 -0.58 16.36 -0.68C16.38 -0.78 16.41 -0.98 16.47 -1.3C16.53 -1.61 16.56 -1.83 16.56 -1.96C16.56 -2.01 16.53 -2.07 16.47 -2.14C16.59 -2.32 16.65 -2.49 16.65 -2.66C16.65 -2.83 16.56 -3.02 16.38 -3.23ZM16.13 -2.32L16.13 -2.32C16.06 -2.3 16.02 -2.26 16.01 -2.19C15.9 -1.77 15.71 -1.41 15.44 -1.12C15.17 -0.83 14.92 -0.68 14.7 -0.68C14.62 -0.68 14.54 -0.7 14.47 -0.75C14.41 -0.8 14.38 -0.86 14.38 -0.94C14.38 -1.13 14.46 -1.39 14.63 -1.71C14.79 -2.04 15 -2.33 15.24 -2.58C15.48 -2.84 15.69 -2.97 15.87 -2.97C16.04 -2.97 16.13 -2.75 16.13 -2.32Z M20.93 -5.49C20.83 -5.49 20.78 -5.42 20.78 -5.28C20.76 -4.71 20.63 -3.94 20.39 -2.96C20.26 -3.35 20.03 -3.54 19.7 -3.54C19.38 -3.54 19.07 -3.38 18.78 -3.06C18.48 -2.74 18.26 -2.38 18.11 -1.98C17.95 -1.59 17.87 -1.24 17.87 -0.96C17.87 -0.76 17.96 -0.57 18.12 -0.38C18.28 -0.2 18.47 -0.1 18.67 -0.1C19.01 -0.1 19.4 -0.34 19.86 -0.8C19.83 -0.62 19.81 -0.5 19.81 -0.44C19.81 -0.38 19.85 -0.31 19.92 -0.23C20 -0.14 20.07 -0.1 20.13 -0.1C20.24 -0.1 20.46 -0.78 20.79 -2.13C20.95 -2.73 21.08 -3.31 21.2 -3.87C21.31 -4.44 21.37 -4.78 21.37 -4.9C21.37 -5.02 21.32 -5.15 21.21 -5.28C21.1 -5.42 21.01 -5.49 20.93 -5.49ZM20.17 -2.08L20.17 -2.05L20.15 -1.96C20.01 -1.61 19.79 -1.31 19.48 -1.05C19.17 -0.79 18.93 -0.66 18.75 -0.66C18.66 -0.66 18.59 -0.68 18.53 -0.74C18.47 -0.79 18.44 -0.85 18.44 -0.94C18.44 -1.17 18.5 -1.44 18.63 -1.76C18.75 -2.08 18.91 -2.36 19.12 -2.6C19.33 -2.85 19.53 -2.97 19.73 -2.97C19.85 -2.97 19.96 -2.88 20.04 -2.71C20.13 -2.54 20.17 -2.33 20.17 -2.08Z M22.54 -0.42C22.77 -0.21 23.02 -0.1 23.29 -0.1C23.57 -0.1 23.86 -0.19 24.18 -0.37C24.5 -0.55 24.66 -0.71 24.66 -0.84C24.66 -0.93 24.62 -0.97 24.53 -0.97C24.48 -0.97 24.41 -0.95 24.32 -0.9C24.23 -0.85 24.09 -0.8 23.93 -0.75C23.76 -0.7 23.57 -0.68 23.37 -0.68C23.17 -0.68 23.02 -0.72 22.93 -0.8C22.84 -0.89 22.8 -1 22.8 -1.14C22.8 -1.47 22.97 -1.86 23.3 -2.3C23.63 -2.74 23.92 -2.96 24.17 -2.96C24.26 -2.96 24.36 -2.91 24.47 -2.83C24.58 -2.75 24.66 -2.71 24.7 -2.71C24.75 -2.71 24.78 -2.72 24.8 -2.74C24.83 -2.77 24.84 -2.8 24.84 -2.84C24.84 -2.97 24.77 -3.12 24.62 -3.29C24.48 -3.46 24.31 -3.54 24.12 -3.54C23.83 -3.54 23.53 -3.41 23.23 -3.14C22.92 -2.87 22.67 -2.55 22.47 -2.17C22.28 -1.79 22.18 -1.46 22.18 -1.17C22.18 -0.88 22.3 -0.63 22.54 -0.42Z M26.48 -3.47C26.27 -3.42 26.17 -3.36 26.17 -3.27C26.17 -3.2 26.21 -3.11 26.3 -3.02C26.38 -2.92 26.47 -2.87 26.54 -2.87C26.62 -2.87 26.74 -2.88 26.91 -2.91C27.08 -2.94 27.23 -2.95 27.34 -2.95C27.81 -2.95 28.05 -2.9 28.05 -2.82C28.05 -2.69 27.68 -2.36 26.93 -1.85C26.66 -1.66 26.4 -1.46 26.17 -1.25C25.93 -1.03 25.82 -0.87 25.82 -0.74C25.82 -0.62 25.9 -0.48 26.07 -0.33C26.23 -0.18 26.42 -0.1 26.61 -0.1C27.04 -0.1 27.49 -0.15 27.95 -0.26C28.42 -0.36 28.65 -0.48 28.65 -0.63C28.65 -0.74 28.56 -0.79 28.38 -0.79C28.3 -0.79 28.07 -0.77 27.69 -0.74C27.31 -0.7 26.98 -0.68 26.72 -0.68C26.6 -0.68 26.54 -0.72 26.54 -0.8C26.54 -0.85 26.65 -0.96 26.86 -1.12C27.08 -1.29 27.31 -1.45 27.56 -1.63C27.82 -1.81 28.05 -2.01 28.27 -2.23C28.48 -2.46 28.59 -2.66 28.59 -2.84C28.59 -2.92 28.55 -3.03 28.46 -3.15C28.38 -3.28 28.28 -3.36 28.18 -3.41C27.96 -3.5 27.67 -3.54 27.31 -3.54C26.96 -3.54 26.68 -3.52 26.48 -3.47Z M32.18 -1.79C32.45 -1.95 32.58 -2.15 32.58 -2.4C32.58 -2.64 32.47 -2.9 32.24 -3.16C32.02 -3.42 31.77 -3.54 31.5 -3.54C31.23 -3.54 30.95 -3.42 30.67 -3.18C30.39 -2.93 30.17 -2.63 29.99 -2.27C29.82 -1.91 29.73 -1.57 29.73 -1.24C29.73 -0.91 29.84 -0.64 30.07 -0.43C30.3 -0.21 30.59 -0.1 30.95 -0.1C31.22 -0.1 31.49 -0.18 31.78 -0.32C32.06 -0.47 32.2 -0.6 32.2 -0.73C32.2 -0.82 32.14 -0.87 32.02 -0.87C32 -0.87 31.86 -0.83 31.62 -0.75C31.38 -0.66 31.14 -0.62 30.91 -0.62C30.68 -0.62 30.52 -0.67 30.42 -0.76C30.32 -0.84 30.27 -0.97 30.27 -1.13C30.27 -1.29 30.3 -1.47 30.37 -1.67C30.64 -1.6 30.94 -1.56 31.28 -1.56C31.61 -1.56 31.92 -1.64 32.18 -1.79ZM31.53 -3C31.64 -3 31.76 -2.93 31.87 -2.8C31.98 -2.67 32.04 -2.55 32.04 -2.42C32.04 -2.3 31.95 -2.2 31.78 -2.12C31.6 -2.04 31.39 -2 31.16 -2C30.92 -2 30.71 -2.03 30.53 -2.07C30.66 -2.33 30.81 -2.55 31 -2.73C31.18 -2.91 31.36 -3 31.53 -3Z M35.45 -2.99C35.17 -2.63 34.81 -2.06 34.36 -1.31C34.46 -1.63 34.55 -1.96 34.63 -2.33C34.71 -2.69 34.74 -2.94 34.74 -3.06C34.74 -3.19 34.69 -3.31 34.59 -3.41C34.49 -3.52 34.39 -3.57 34.29 -3.57C34.2 -3.57 34.15 -3.4 34.14 -3.07C34.13 -2.56 34.07 -2.11 33.97 -1.72C33.86 -1.32 33.76 -0.99 33.68 -0.72C33.64 -0.62 33.63 -0.56 33.63 -0.53C33.63 -0.46 33.67 -0.36 33.76 -0.26C33.85 -0.16 33.92 -0.1 33.99 -0.1C34.06 -0.1 34.15 -0.19 34.27 -0.36C34.33 -0.45 34.38 -0.53 34.43 -0.6C34.48 -0.68 34.54 -0.78 34.63 -0.92C34.71 -1.05 34.78 -1.16 34.83 -1.23C34.88 -1.31 34.95 -1.43 35.05 -1.58C35.15 -1.73 35.22 -1.85 35.27 -1.93C35.32 -2.01 35.39 -2.11 35.46 -2.23C35.54 -2.34 35.6 -2.43 35.65 -2.49C35.7 -2.56 35.76 -2.62 35.82 -2.68C35.87 -2.75 35.93 -2.8 35.97 -2.82C36.02 -2.85 36.06 -2.86 36.11 -2.86C36.15 -2.86 36.2 -2.83 36.24 -2.76C36.28 -2.69 36.31 -2.58 36.31 -2.44C36.31 -2.29 36.26 -2.08 36.18 -1.79C36.09 -1.5 36 -1.2 35.9 -0.91C35.8 -0.61 35.75 -0.41 35.75 -0.31C35.75 -0.17 35.8 -0.1 35.9 -0.1C36.12 -0.1 36.37 -0.55 36.65 -1.44C36.8 -1.92 36.88 -2.32 36.88 -2.66C36.88 -2.87 36.8 -3.07 36.64 -3.26C36.48 -3.45 36.31 -3.54 36.14 -3.54C35.96 -3.54 35.73 -3.36 35.45 -2.99Z M39.13 -4.79C39.05 -4.71 39.02 -4.62 39.02 -4.53C39.02 -4.44 39.09 -4.32 39.22 -4.19C39.36 -4.06 39.48 -3.99 39.59 -3.99C39.64 -3.99 39.68 -4.01 39.73 -4.04C39.77 -4.08 39.79 -4.12 39.79 -4.17C39.79 -4.29 39.73 -4.45 39.63 -4.64C39.52 -4.82 39.43 -4.92 39.35 -4.92C39.28 -4.92 39.2 -4.88 39.13 -4.79ZM38.98 -3.54C38.91 -3.54 38.85 -3.43 38.78 -3.2C38.75 -3.08 38.72 -2.97 38.7 -2.85C38.67 -2.73 38.64 -2.57 38.59 -2.38C38.55 -2.19 38.51 -2.02 38.47 -1.87C38.43 -1.71 38.38 -1.52 38.31 -1.27C38.25 -1.03 38.2 -0.84 38.16 -0.69C38.13 -0.54 38.11 -0.44 38.11 -0.37C38.11 -0.3 38.13 -0.24 38.18 -0.19C38.22 -0.14 38.28 -0.11 38.34 -0.11C38.47 -0.11 38.56 -0.23 38.64 -0.46C38.85 -1.09 39.02 -1.65 39.15 -2.16C39.28 -2.67 39.35 -2.97 39.35 -3.07C39.35 -3.17 39.31 -3.28 39.23 -3.39C39.15 -3.49 39.07 -3.54 38.98 -3.54Z M42.9 -1.79C43.16 -1.95 43.3 -2.15 43.3 -2.4C43.3 -2.64 43.19 -2.9 42.96 -3.16C42.74 -3.42 42.49 -3.54 42.22 -3.54C41.94 -3.54 41.67 -3.42 41.39 -3.18C41.11 -2.93 40.89 -2.63 40.71 -2.27C40.53 -1.91 40.45 -1.57 40.45 -1.24C40.45 -0.91 40.56 -0.64 40.79 -0.43C41.01 -0.21 41.31 -0.1 41.67 -0.1C41.94 -0.1 42.21 -0.18 42.49 -0.32C42.78 -0.47 42.92 -0.6 42.92 -0.73C42.92 -0.82 42.86 -0.87 42.74 -0.87C42.71 -0.87 42.58 -0.83 42.34 -0.75C42.09 -0.66 41.86 -0.62 41.63 -0.62C41.4 -0.62 41.24 -0.67 41.14 -0.76C41.04 -0.84 40.99 -0.97 40.99 -1.13C40.99 -1.29 41.02 -1.47 41.08 -1.67C41.36 -1.6 41.66 -1.56 42 -1.56C42.33 -1.56 42.63 -1.64 42.9 -1.79ZM42.25 -3C42.36 -3 42.47 -2.93 42.59 -2.8C42.7 -2.67 42.76 -2.55 42.76 -2.42C42.76 -2.3 42.67 -2.2 42.49 -2.12C42.32 -2.04 42.11 -2 41.88 -2C41.64 -2 41.43 -2.03 41.24 -2.07C41.37 -2.33 41.53 -2.55 41.72 -2.73C41.9 -2.91 42.08 -3 42.25 -3Z M48.89 -3.54C48.45 -3.54 47.95 -3.02 47.4 -1.96C47.46 -2.24 47.49 -2.48 47.49 -2.68C47.49 -2.87 47.41 -3.06 47.26 -3.26C47.1 -3.45 46.97 -3.54 46.86 -3.54C46.67 -3.54 46.49 -3.45 46.31 -3.25C46.21 -3.14 46.1 -2.99 45.96 -2.81C45.83 -2.63 45.5 -2.05 44.98 -1.08C45.29 -2.02 45.44 -2.69 45.44 -3.09C45.44 -3.2 45.39 -3.31 45.29 -3.41C45.19 -3.52 45.09 -3.57 44.99 -3.57C44.93 -3.57 44.89 -3.49 44.87 -3.33C44.86 -3.17 44.84 -2.92 44.81 -2.58C44.78 -2.23 44.73 -1.96 44.67 -1.77C44.62 -1.57 44.57 -1.4 44.52 -1.25C44.48 -1.11 44.45 -1 44.43 -0.92C44.4 -0.85 44.38 -0.77 44.37 -0.69C44.35 -0.62 44.34 -0.55 44.34 -0.5C44.34 -0.44 44.38 -0.36 44.48 -0.26C44.57 -0.16 44.64 -0.1 44.7 -0.1C44.76 -0.1 44.85 -0.19 44.98 -0.36C45.04 -0.45 45.09 -0.53 45.14 -0.6C45.19 -0.68 45.26 -0.78 45.34 -0.92C45.43 -1.06 45.51 -1.18 45.58 -1.28C45.64 -1.38 45.74 -1.54 45.88 -1.76C46.01 -1.97 46.11 -2.13 46.17 -2.23C46.23 -2.34 46.31 -2.44 46.39 -2.56C46.48 -2.67 46.54 -2.75 46.6 -2.79C46.66 -2.84 46.71 -2.86 46.76 -2.86C46.81 -2.86 46.86 -2.82 46.9 -2.76C46.94 -2.69 46.96 -2.61 46.96 -2.51C46.96 -1.99 46.84 -1.43 46.6 -0.83C46.52 -0.63 46.48 -0.49 46.48 -0.43C46.48 -0.37 46.51 -0.3 46.58 -0.22C46.65 -0.15 46.71 -0.11 46.77 -0.11C46.83 -0.11 46.9 -0.17 46.97 -0.29C47.05 -0.41 47.14 -0.57 47.25 -0.78C47.35 -0.99 47.42 -1.11 47.44 -1.15C47.47 -1.19 47.49 -1.23 47.51 -1.27C47.53 -1.31 47.55 -1.34 47.56 -1.36C47.58 -1.38 47.67 -1.53 47.84 -1.82C48.01 -2.1 48.17 -2.35 48.32 -2.55C48.47 -2.76 48.61 -2.86 48.72 -2.86C48.82 -2.86 48.86 -2.71 48.86 -2.42C48.86 -2.12 48.78 -1.73 48.62 -1.23C48.46 -0.73 48.38 -0.42 48.38 -0.29C48.38 -0.17 48.43 -0.1 48.53 -0.1C48.67 -0.1 48.81 -0.27 48.95 -0.59C49.09 -0.91 49.21 -1.27 49.29 -1.66C49.38 -2.05 49.42 -2.36 49.42 -2.6C49.42 -2.85 49.37 -3.06 49.26 -3.26C49.15 -3.45 49.03 -3.54 48.89 -3.54Z M51.57 -1.66C51.62 -1.66 51.68 -1.69 51.74 -1.74C51.81 -1.8 51.84 -1.85 51.84 -1.89C51.84 -2.04 51.77 -2.25 51.63 -2.53C51.48 -2.81 51.36 -2.95 51.26 -2.95C51.15 -2.95 51.05 -2.89 50.95 -2.76C50.85 -2.64 50.8 -2.52 50.8 -2.39C50.8 -2.27 50.89 -2.11 51.07 -1.93C51.25 -1.75 51.42 -1.66 51.57 -1.66Z"></path></g><g id="SvgjsG1352" class="1ssRd_nihI" transform="translate(77.51025020115709, 207.1353842735382) scale(2.82495649771177 -2.82495649771177) rotate(-90, 22.949000000000005, 22.948500000000003)" light-content="false" non-strokable="false" fill="url(#SvgjsLinearGradientGWIUScNohOJ)"><g><path d="M8.797 15.227h-.124L.95 22.949l8.426 8.426H9.5l-8.425-8.426zm28.43 0h-.124l7.72 7.722-8.425 8.426h.125l8.425-8.426zm-8.712-8.712L22.949.95l-5.564 5.565h.124l5.44-5.441 5.441 5.441zM18.213 40.087h-.125l4.861 4.861 4.862-4.861h-.125l-4.737 4.737z"></path><path d="M16.435 6.515h.125l6.389-6.39 6.391 6.39h.124L22.949 0zm-8.587 8.712h-.125L0 22.949l8.426 8.426h.124L.125 22.949zm30.329 0h-.125l7.722 7.722-8.425 8.426h.124l8.425-8.426zM22.949 45.773l-5.686-5.686h-.124l5.81 5.81 5.812-5.81h-.125z"></path></g></g><g id="SvgjsG1356" class="PBgPH7E08c" transform="translate(47.18810659171932, 237.78032509070258) scale(4.1538037943806065 -4.1538037943806065) rotate(-90, 22.949000000000005, 22.948500000000003)" light-content="false" non-strokable="false" fill="url(#SvgjsLinearGradientV2nvs7e_IMm)"><g><path d="M8.797 15.227h-.124L.95 22.949l8.426 8.426H9.5l-8.425-8.426zm28.43 0h-.124l7.72 7.722-8.425 8.426h.125l8.425-8.426zm-8.712-8.712L22.949.95l-5.564 5.565h.124l5.44-5.441 5.441 5.441zM18.213 40.087h-.125l4.861 4.861 4.862-4.861h-.125l-4.737 4.737z"></path><path d="M16.435 6.515h.125l6.389-6.39 6.391 6.39h.124L22.949 0zm-8.587 8.712h-.125L0 22.949l8.426 8.426h.124L.125 22.949zm30.329 0h-.125l7.722 7.722-8.425 8.426h.124l8.425-8.426zM22.949 45.773l-5.686-5.686h-.124l5.81 5.81 5.812-5.81h-.125z"></path></g></g><g id="SvgjsG1357" class="GpPVMAbPWW" transform="translate(34.000684496939655, 250.7726493722038) scale(4.726878800820921 -4.726878800820921) rotate(-90, 22.949000000000005, 22.948500000000003)" light-content="false" non-strokable="false" fill="#efe24f"><g><path d="M8.797 15.227h-.124L.95 22.949l8.426 8.426H9.5l-8.425-8.426zm28.43 0h-.124l7.72 7.722-8.425 8.426h.125l8.425-8.426zm-8.712-8.712L22.949.95l-5.564 5.565h.124l5.44-5.441 5.441 5.441zM18.213 40.087h-.125l4.861 4.861 4.862-4.861h-.125l-4.737 4.737z"></path><path d="M16.435 6.515h.125l6.389-6.39 6.391 6.39h.124L22.949 0zm-8.587 8.712h-.125L0 22.949l8.426 8.426h.124L.125 22.949zm30.329 0h-.125l7.722 7.722-8.425 8.426h.124l8.425-8.426zM22.949 45.773l-5.686-5.686h-.124l5.81 5.81 5.812-5.81h-.125z"></path></g></g><g id="SvgjsG1358" class="GenMhL9aDT" transform="translate(20.908587653660035, 263.6184081132762) scale(5.28459291126547 -5.28459291126547) rotate(-90, 22.949000000000005, 22.948500000000003)" light-content="false" non-strokable="false" fill="#ede57b"><g><path d="M8.797 15.227h-.124L.95 22.949l8.426 8.426H9.5l-8.425-8.426zm28.43 0h-.124l7.72 7.722-8.425 8.426h.125l8.425-8.426zm-8.712-8.712L22.949.95l-5.564 5.565h.124l5.44-5.441 5.441 5.441zM18.213 40.087h-.125l4.861 4.861 4.862-4.861h-.125l-4.737 4.737z"></path><path d="M16.435 6.515h.125l6.389-6.39 6.391 6.39h.124L22.949 0zm-8.587 8.712h-.125L0 22.949l8.426 8.426h.124L.125 22.949zm30.329 0h-.125l7.722 7.722-8.425 8.426h.124l8.425-8.426zM22.949 45.773l-5.686-5.686h-.124l5.81 5.81 5.812-5.81h-.125z"></path></g></g><g id="SvgjsG1359" class="IM2yZFobm8" transform="translate(10.413263776225534, 274.5475068966208) scale(5.753775870238028 -5.753775870238028) rotate(-90, 22.949000000000005, 22.948500000000003)" light-content="false" non-strokable="false" fill="#f9ef79"><g><path d="M8.797 15.227h-.124L.95 22.949l8.426 8.426H9.5l-8.425-8.426zm28.43 0h-.124l7.72 7.722-8.425 8.426h.125l8.425-8.426zm-8.712-8.712L22.949.95l-5.564 5.565h.124l5.44-5.441 5.441 5.441zM18.213 40.087h-.125l4.861 4.861 4.862-4.861h-.125l-4.737 4.737z"></path><path d="M16.435 6.515h.125l6.389-6.39 6.391 6.39h.124L22.949 0zm-8.587 8.712h-.125L0 22.949l8.426 8.426h.124L.125 22.949zm30.329 0h-.125l7.722 7.722-8.425 8.426h.124l8.425-8.426zM22.949 45.773l-5.686-5.686h-.124l5.81 5.81 5.812-5.81h-.125z"></path></g></g><g id="SvgjsG1360" class="1sMZpYmsxf" transform="translate(-0.00310362085201632, 284.89688624460035) scale(6.207241704015529 -6.207241704015529) rotate(-90, 22.949000000000005, 22.948500000000003)" light-content="false" non-strokable="false" fill="#e6df88"><g><path d="M8.797 15.227h-.124L.95 22.949l8.426 8.426H9.5l-8.425-8.426zm28.43 0h-.124l7.72 7.722-8.425 8.426h.125l8.425-8.426zm-8.712-8.712L22.949.95l-5.564 5.565h.124l5.44-5.441 5.441 5.441zM18.213 40.087h-.125l4.861 4.861 4.862-4.861h-.125l-4.737 4.737z"></path><path d="M16.435 6.515h.125l6.389-6.39 6.391 6.39h.124L22.949 0zm-8.587 8.712h-.125L0 22.949l8.426 8.426h.124L.125 22.949zm30.329 0h-.125l7.722 7.722-8.425 8.426h.124l8.425-8.426zM22.949 45.773l-5.686-5.686h-.124l5.81 5.81 5.812-5.81h-.125z"></path></g></g><g id="SvgjsG1361" class="DQjmSbw50d" transform="translate(3.325204206199885, 281.3518024138741) scale(6.061426436712274 -6.061426436712274) rotate(-90, 22.949000000000005, 22.948500000000003)" stroke="#efe068" stroke-width="0.32995533656675086px" light-content="false" non-strokable="false" fill="#ffffff"><g><path d="M8.797 15.227h-.124L.95 22.949l8.426 8.426H9.5l-8.425-8.426zm28.43 0h-.124l7.72 7.722-8.425 8.426h.125l8.425-8.426zm-8.712-8.712L22.949.95l-5.564 5.565h.124l5.44-5.441 5.441 5.441zM18.213 40.087h-.125l4.861 4.861 4.862-4.861h-.125l-4.737 4.737z"></path><path d="M16.435 6.515h.125l6.389-6.39 6.391 6.39h.124L22.949 0zm-8.587 8.712h-.125L0 22.949l8.426 8.426h.124L.125 22.949zm30.329 0h-.125l7.722 7.722-8.425 8.426h.124l8.425-8.426zM22.949 45.773l-5.686-5.686h-.124l5.81 5.81 5.812-5.81h-.125z"></path></g></g><g id="SvgjsG1365" class="text" transform="translate(144.78426255103815, 150.03784609690825) scale(1)" light-content="false" fill="url(#SvgjsLinearGradient_QGt8TVg8E-)"><path d="M-75 -6.48L-76.58 -0.28C-76.6 -0.21 -76.59 -0.14 -76.56 -0.08C-76.53 -0.03 -76.47 0 -76.4 0L-76.13 0C-75.98 0 -75.89 -0.07 -75.85 -0.2L-75.1 -3.15L-74.23 -0.23C-74.21 -0.14 -74.18 -0.08 -74.15 -0.05C-74.12 -0.02 -74.06 0 -73.98 0L-73.63 0C-73.47 0 -73.42 -0.09 -73.47 -0.28L-74.42 -3.44L-71.9 -6.42C-71.85 -6.49 -71.83 -6.55 -71.86 -6.61C-71.88 -6.66 -71.94 -6.69 -72.02 -6.69L-72.41 -6.69C-72.53 -6.69 -72.63 -6.64 -72.71 -6.54L-74.93 -3.84L-74.27 -6.4C-74.25 -6.48 -74.26 -6.54 -74.29 -6.6C-74.32 -6.66 -74.38 -6.69 -74.45 -6.69L-74.72 -6.69C-74.87 -6.69 -74.96 -6.62 -75 -6.48Z M-68.99 -3.45L-68.72 -4.5C-68.7 -4.57 -68.7 -4.62 -68.73 -4.65C-68.76 -4.67 -68.81 -4.69 -68.89 -4.69L-69.18 -4.69C-69.31 -4.69 -69.4 -4.63 -69.43 -4.5L-70.56 -0.21C-70.59 -0.07 -70.52 0 -70.36 0L-70.09 0C-69.94 0 -69.85 -0.07 -69.81 -0.2L-69.1 -2.94L-69.02 -2.8C-68.94 -2.66 -68.88 -2.56 -68.83 -2.53C-68.78 -2.49 -68.7 -2.48 -68.6 -2.49L-68.25 -2.56C-68.2 -2.57 -68.17 -2.59 -68.15 -2.62C-68.14 -2.66 -68.15 -2.69 -68.19 -2.72C-68.34 -2.86 -68.42 -3.02 -68.42 -3.18C-68.42 -3.26 -68.32 -3.43 -68.11 -3.68C-67.91 -3.94 -67.74 -4.13 -67.62 -4.24C-67.5 -4.35 -67.42 -4.44 -67.39 -4.51C-67.34 -4.65 -67.4 -4.72 -67.58 -4.72L-67.67 -4.72C-67.86 -4.72 -67.99 -4.69 -68.06 -4.64C-68.28 -4.5 -68.59 -4.1 -68.99 -3.45Z M-64.67 -5.33C-64.59 -5.24 -64.5 -5.2 -64.39 -5.2L-64.32 -5.2C-64.18 -5.2 -64.07 -5.24 -63.98 -5.33C-63.89 -5.42 -63.84 -5.52 -63.84 -5.64C-63.84 -5.76 -63.89 -5.86 -63.97 -5.96C-64.06 -6.05 -64.16 -6.1 -64.26 -6.1L-64.34 -6.1C-64.47 -6.1 -64.58 -6.05 -64.66 -5.96C-64.75 -5.87 -64.79 -5.77 -64.79 -5.65C-64.79 -5.53 -64.75 -5.42 -64.67 -5.33ZM-64.18 -4.5C-64.16 -4.57 -64.16 -4.62 -64.19 -4.65C-64.22 -4.67 -64.27 -4.69 -64.35 -4.69L-64.66 -4.69C-64.8 -4.69 -64.88 -4.63 -64.92 -4.5L-66.04 -0.21C-66.08 -0.07 -66.01 0 -65.84 0L-65.57 0C-65.42 0 -65.33 -0.07 -65.3 -0.2Z M-59.19 -6.79C-59.48 -6.79 -59.74 -6.7 -60 -6.52C-60.26 -6.34 -60.47 -6.12 -60.64 -5.85C-60.81 -5.58 -60.95 -5.28 -61.05 -4.97C-61.15 -4.66 -61.2 -4.38 -61.2 -4.13C-61.2 -3.88 -61.14 -3.69 -61.01 -3.54C-60.88 -3.4 -60.73 -3.3 -60.56 -3.25L-60.17 -3.13C-60.01 -3.08 -59.88 -3.03 -59.79 -2.98C-59.61 -2.89 -59.52 -2.76 -59.52 -2.6C-59.51 -2.06 -59.63 -1.59 -59.87 -1.17C-60.07 -0.82 -60.29 -0.59 -60.54 -0.48C-60.69 -0.41 -60.81 -0.39 -60.9 -0.41C-61.03 -0.48 -61.13 -0.64 -61.19 -0.88C-61.24 -1.13 -61.27 -1.49 -61.27 -1.97C-61.27 -2.05 -61.29 -2.1 -61.33 -2.14C-61.37 -2.17 -61.42 -2.17 -61.48 -2.15L-61.83 -2.04C-61.92 -2.02 -61.97 -1.89 -61.97 -1.65L-61.97 -1.62C-61.97 -0.44 -61.6 0.15 -60.87 0.15C-60.51 0.15 -60.17 0.01 -59.84 -0.25C-59.51 -0.52 -59.24 -0.87 -59.05 -1.28C-58.86 -1.7 -58.76 -2.08 -58.76 -2.45C-58.76 -2.81 -58.81 -3.07 -58.91 -3.23C-59.03 -3.41 -59.27 -3.56 -59.63 -3.68L-60.01 -3.81C-60.18 -3.87 -60.3 -3.95 -60.36 -4.03C-60.42 -4.12 -60.45 -4.24 -60.44 -4.4C-60.43 -4.81 -60.33 -5.17 -60.16 -5.48C-59.98 -5.79 -59.81 -5.99 -59.63 -6.08C-59.46 -6.16 -59.32 -6.17 -59.19 -6.1C-58.93 -5.98 -58.8 -5.51 -58.8 -4.7C-58.8 -4.62 -58.77 -4.56 -58.72 -4.53C-58.68 -4.5 -58.63 -4.49 -58.57 -4.5L-58.25 -4.61C-58.15 -4.64 -58.1 -4.73 -58.1 -4.88C-58.1 -5.5 -58.18 -5.97 -58.34 -6.29C-58.51 -6.62 -58.79 -6.79 -59.19 -6.79Z M-53.84 -6.11C-53.81 -6.25 -53.87 -6.33 -54.04 -6.33L-54.27 -6.33C-54.42 -6.33 -54.51 -6.26 -54.55 -6.12L-54.92 -4.69L-55.29 -4.69C-55.39 -4.69 -55.46 -4.63 -55.49 -4.51L-55.56 -4.27C-55.59 -4.18 -55.59 -4.12 -55.57 -4.09C-55.55 -4.06 -55.51 -4.04 -55.44 -4.04L-55.08 -4.04L-56.04 -0.3C-56.06 -0.21 -56.05 -0.14 -56 -0.09C-55.96 -0.03 -55.89 0 -55.79 0L-55.62 0C-55.47 0 -55.38 -0.07 -55.34 -0.2L-54.37 -4.04L-53.88 -4.04C-53.76 -4.04 -53.68 -4.11 -53.64 -4.25L-53.58 -4.49C-53.56 -4.56 -53.56 -4.61 -53.58 -4.64C-53.6 -4.67 -53.65 -4.69 -53.72 -4.69L-54.2 -4.69Z M-49.5 -3.99C-49.72 -3.19 -49.91 -2.61 -50.05 -2.25C-50.19 -1.89 -50.33 -1.6 -50.47 -1.38C-50.62 -1.16 -50.76 -1 -50.89 -0.89C-51.03 -0.78 -51.13 -0.75 -51.22 -0.79C-51.3 -0.84 -51.34 -0.92 -51.35 -1.03C-51.36 -1.14 -51.35 -1.32 -51.3 -1.58C-51.19 -2.16 -51 -2.75 -50.72 -3.35C-50.56 -3.71 -50.39 -3.95 -50.21 -4.06C-50.03 -4.18 -49.8 -4.16 -49.5 -3.99ZM-49.36 -4.51C-49.54 -4.62 -49.73 -4.67 -49.94 -4.67C-50.29 -4.67 -50.59 -4.56 -50.82 -4.34C-51.06 -4.12 -51.3 -3.69 -51.54 -3.04C-51.79 -2.4 -51.94 -1.82 -52.01 -1.32C-52.03 -1.12 -52.04 -0.96 -52.02 -0.86C-52.01 -0.8 -52 -0.74 -51.99 -0.7C-51.97 -0.65 -51.96 -0.61 -51.93 -0.56C-51.9 -0.51 -51.88 -0.48 -51.85 -0.45C-51.83 -0.42 -51.79 -0.37 -51.73 -0.29C-51.67 -0.22 -51.59 -0.15 -51.49 -0.08C-51.39 -0.01 -51.31 0.03 -51.26 0.03L-51.24 0.03C-51.14 0.03 -51.01 -0.04 -50.87 -0.17C-50.73 -0.3 -50.61 -0.44 -50.51 -0.58L-50.34 -0.06C-50.33 -0.03 -50.31 0 -50.28 0.02C-50.24 0.04 -50.21 0.05 -50.17 0.04C-49.88 -0.03 -49.63 -0.15 -49.42 -0.31C-49.2 -0.47 -48.97 -0.7 -48.72 -1C-48.66 -1.09 -48.67 -1.16 -48.77 -1.23L-48.99 -1.38C-49.08 -1.43 -49.15 -1.41 -49.22 -1.31C-49.41 -1.04 -49.6 -0.84 -49.79 -0.7L-48.68 -4.4C-48.65 -4.5 -48.66 -4.58 -48.7 -4.64C-48.75 -4.7 -48.82 -4.73 -48.93 -4.73L-49.15 -4.72C-49.25 -4.72 -49.33 -4.65 -49.36 -4.51Z M-44.29 -6.79C-44.26 -6.94 -44.33 -7.01 -44.5 -7.01L-44.71 -7.01C-44.86 -7.01 -44.95 -6.94 -44.99 -6.8L-46.67 -0.3C-46.69 -0.21 -46.68 -0.14 -46.64 -0.08C-46.6 -0.03 -46.52 0 -46.41 0L-46.25 0C-46.1 0 -46.01 -0.07 -45.97 -0.2Z M-42.18 -3.31C-42.24 -3.31 -42.28 -3.28 -42.3 -3.21L-42.38 -2.89C-42.42 -2.75 -42.36 -2.68 -42.22 -2.68L-40 -2.68C-39.87 -2.68 -39.79 -2.74 -39.76 -2.87L-39.72 -3.1C-39.71 -3.16 -39.71 -3.21 -39.74 -3.25C-39.77 -3.29 -39.81 -3.31 -39.87 -3.31Z M-34.38 -6.79C-34.66 -6.79 -34.93 -6.7 -35.19 -6.52C-35.44 -6.34 -35.66 -6.12 -35.83 -5.85C-36 -5.58 -36.13 -5.28 -36.23 -4.97C-36.33 -4.66 -36.38 -4.38 -36.38 -4.13C-36.38 -3.88 -36.32 -3.69 -36.19 -3.54C-36.07 -3.4 -35.92 -3.3 -35.74 -3.25L-35.36 -3.13C-35.19 -3.08 -35.06 -3.03 -34.97 -2.98C-34.8 -2.89 -34.7 -2.76 -34.7 -2.6C-34.69 -2.06 -34.81 -1.59 -35.05 -1.17C-35.25 -0.82 -35.48 -0.59 -35.73 -0.48C-35.87 -0.41 -35.99 -0.39 -36.09 -0.41C-36.22 -0.48 -36.31 -0.64 -36.37 -0.88C-36.43 -1.13 -36.46 -1.49 -36.46 -1.97C-36.46 -2.05 -36.48 -2.1 -36.52 -2.14C-36.56 -2.17 -36.61 -2.17 -36.67 -2.15L-37.01 -2.04C-37.1 -2.02 -37.15 -1.89 -37.15 -1.65L-37.15 -1.62C-37.15 -0.44 -36.79 0.15 -36.06 0.15C-35.7 0.15 -35.35 0.01 -35.02 -0.25C-34.69 -0.52 -34.43 -0.87 -34.24 -1.28C-34.04 -1.7 -33.94 -2.08 -33.94 -2.45C-33.94 -2.81 -34 -3.07 -34.1 -3.23C-34.21 -3.41 -34.45 -3.56 -34.81 -3.68L-35.19 -3.81C-35.37 -3.87 -35.48 -3.95 -35.55 -4.03C-35.61 -4.12 -35.63 -4.24 -35.63 -4.4C-35.61 -4.81 -35.52 -5.17 -35.34 -5.48C-35.16 -5.79 -34.99 -5.99 -34.82 -6.08C-34.65 -6.16 -34.5 -6.17 -34.38 -6.1C-34.11 -5.98 -33.98 -5.51 -33.98 -4.7C-33.98 -4.62 -33.96 -4.56 -33.91 -4.53C-33.86 -4.5 -33.81 -4.49 -33.76 -4.5L-33.44 -4.61C-33.33 -4.64 -33.28 -4.73 -33.28 -4.88C-33.28 -5.5 -33.36 -5.97 -33.53 -6.29C-33.7 -6.62 -33.98 -6.79 -34.38 -6.79Z M-29.6 -4.49C-29.56 -4.62 -29.62 -4.69 -29.78 -4.69L-30.05 -4.69C-30.18 -4.69 -30.27 -4.62 -30.3 -4.5L-31.85 1.55C-31.87 1.64 -31.86 1.71 -31.82 1.76C-31.78 1.82 -31.71 1.85 -31.61 1.85L-31.44 1.85C-31.29 1.85 -31.2 1.78 -31.16 1.65L-30.71 -0.13C-30.53 -0.02 -30.34 0.04 -30.13 0.04C-29.77 0.04 -29.48 -0.07 -29.24 -0.29C-29.01 -0.5 -28.77 -0.93 -28.53 -1.58C-28.28 -2.23 -28.14 -2.75 -28.09 -3.13C-28.04 -3.52 -28.03 -3.78 -28.07 -3.9C-28.11 -4.03 -28.18 -4.15 -28.28 -4.27C-28.37 -4.39 -28.48 -4.49 -28.58 -4.56C-28.69 -4.63 -28.76 -4.66 -28.81 -4.66L-28.83 -4.66C-28.93 -4.66 -29.07 -4.58 -29.24 -4.43C-29.4 -4.27 -29.55 -4.09 -29.68 -3.88L-29.8 -3.67ZM-30.57 -0.65L-30.55 -0.73C-30.35 -1.47 -30.17 -2.02 -30.03 -2.38C-29.89 -2.74 -29.74 -3.04 -29.6 -3.26C-29.45 -3.47 -29.31 -3.64 -29.18 -3.75C-29.04 -3.85 -28.93 -3.89 -28.85 -3.84C-28.77 -3.8 -28.73 -3.72 -28.72 -3.61C-28.71 -3.5 -28.73 -3.32 -28.78 -3.06C-28.88 -2.47 -29.07 -1.88 -29.35 -1.28C-29.51 -0.93 -29.68 -0.69 -29.86 -0.57C-30.03 -0.45 -30.27 -0.48 -30.57 -0.65Z M-23.38 -3.99C-23.6 -3.19 -23.78 -2.61 -23.92 -2.25C-24.06 -1.89 -24.21 -1.6 -24.35 -1.38C-24.5 -1.16 -24.64 -1 -24.77 -0.89C-24.9 -0.78 -25.01 -0.75 -25.09 -0.79C-25.17 -0.84 -25.22 -0.92 -25.23 -1.03C-25.24 -1.14 -25.22 -1.32 -25.17 -1.58C-25.07 -2.16 -24.87 -2.75 -24.6 -3.35C-24.44 -3.71 -24.27 -3.95 -24.09 -4.06C-23.91 -4.18 -23.67 -4.16 -23.38 -3.99ZM-23.24 -4.51C-23.42 -4.62 -23.61 -4.67 -23.82 -4.67C-24.17 -4.67 -24.47 -4.56 -24.7 -4.34C-24.94 -4.12 -25.18 -3.69 -25.42 -3.04C-25.67 -2.4 -25.82 -1.82 -25.89 -1.32C-25.91 -1.12 -25.91 -0.96 -25.9 -0.86C-25.89 -0.8 -25.88 -0.74 -25.86 -0.7C-25.85 -0.65 -25.83 -0.61 -25.81 -0.56C-25.78 -0.51 -25.75 -0.48 -25.73 -0.45C-25.71 -0.42 -25.67 -0.37 -25.61 -0.29C-25.55 -0.22 -25.47 -0.15 -25.37 -0.08C-25.26 -0.01 -25.19 0.03 -25.14 0.03L-25.12 0.03C-25.02 0.03 -24.89 -0.04 -24.75 -0.17C-24.61 -0.3 -24.49 -0.44 -24.39 -0.58L-24.21 -0.06C-24.21 -0.03 -24.18 0 -24.15 0.02C-24.12 0.04 -24.09 0.05 -24.05 0.04C-23.76 -0.03 -23.51 -0.15 -23.29 -0.31C-23.08 -0.47 -22.85 -0.7 -22.6 -1C-22.53 -1.09 -22.55 -1.16 -22.65 -1.23L-22.87 -1.38C-22.95 -1.43 -23.03 -1.41 -23.1 -1.31C-23.29 -1.04 -23.47 -0.84 -23.66 -0.7L-22.56 -4.4C-22.53 -4.5 -22.53 -4.58 -22.58 -4.64C-22.62 -4.7 -22.7 -4.73 -22.81 -4.73L-23.02 -4.72C-23.13 -4.72 -23.2 -4.65 -23.24 -4.51Z M-19.23 -0.86C-19.13 -2.01 -19.1 -3.22 -19.14 -4.48C-19.15 -4.62 -19.22 -4.69 -19.35 -4.69L-19.63 -4.69C-19.7 -4.69 -19.75 -4.67 -19.8 -4.64C-19.84 -4.61 -19.86 -4.56 -19.85 -4.49C-19.8 -3.28 -19.81 -1.94 -19.89 -0.47C-19.9 -0.32 -19.88 -0.21 -19.82 -0.14C-19.77 -0.06 -19.71 -0.02 -19.63 -0.02L-19.34 0C-19.18 0.01 -19 -0.17 -18.78 -0.53C-18.31 -1.3 -17.96 -1.98 -17.73 -2.57C-17.73 -1.91 -17.74 -1.21 -17.77 -0.47C-17.78 -0.32 -17.76 -0.21 -17.71 -0.14C-17.66 -0.06 -17.59 -0.02 -17.51 -0.02L-17.24 0C-17.07 0.01 -16.88 -0.17 -16.66 -0.53C-16.02 -1.51 -15.46 -2.83 -14.97 -4.48C-14.96 -4.54 -14.97 -4.59 -15 -4.63C-15.04 -4.68 -15.1 -4.7 -15.17 -4.71L-15.42 -4.73C-15.57 -4.74 -15.66 -4.68 -15.69 -4.55C-16.07 -3.02 -16.55 -1.79 -17.11 -0.86C-17.01 -2 -17.01 -3.2 -17.11 -4.48C-17.12 -4.62 -17.19 -4.69 -17.31 -4.69L-17.61 -4.69C-17.74 -4.69 -17.82 -4.63 -17.83 -4.51C-17.84 -4.28 -17.93 -3.91 -18.09 -3.41C-18.25 -2.91 -18.44 -2.43 -18.65 -1.96C-18.87 -1.49 -19.07 -1.12 -19.23 -0.86Z M-7.22 -6.48L-8.8 -0.28C-8.82 -0.21 -8.82 -0.14 -8.78 -0.08C-8.75 -0.03 -8.7 0 -8.62 0L-8.35 0C-8.2 0 -8.11 -0.07 -8.07 -0.2L-7.33 -3.15L-6.46 -0.23C-6.43 -0.14 -6.4 -0.08 -6.37 -0.05C-6.34 -0.02 -6.29 0 -6.2 0L-5.86 0C-5.69 0 -5.64 -0.09 -5.7 -0.28L-6.64 -3.44L-4.12 -6.42C-4.07 -6.49 -4.06 -6.55 -4.08 -6.61C-4.11 -6.66 -4.16 -6.69 -4.24 -6.69L-4.63 -6.69C-4.75 -6.69 -4.85 -6.64 -4.93 -6.54L-7.15 -3.84L-6.5 -6.4C-6.48 -6.48 -6.49 -6.54 -6.52 -6.6C-6.55 -6.66 -6.6 -6.69 -6.68 -6.69L-6.95 -6.69C-7.09 -6.69 -7.19 -6.62 -7.22 -6.48Z M-1.21 -3.45L-0.94 -4.5C-0.92 -4.57 -0.93 -4.62 -0.95 -4.65C-0.98 -4.67 -1.03 -4.69 -1.11 -4.69L-1.4 -4.69C-1.54 -4.69 -1.62 -4.63 -1.66 -4.5L-2.78 -0.21C-2.82 -0.07 -2.75 0 -2.58 0L-2.31 0C-2.16 0 -2.07 -0.07 -2.03 -0.2L-1.32 -2.94L-1.25 -2.8C-1.17 -2.66 -1.1 -2.56 -1.05 -2.53C-1 -2.49 -0.93 -2.48 -0.83 -2.49L-0.47 -2.56C-0.42 -2.57 -0.39 -2.59 -0.38 -2.62C-0.36 -2.66 -0.38 -2.69 -0.41 -2.72C-0.56 -2.86 -0.64 -3.02 -0.64 -3.18C-0.64 -3.26 -0.54 -3.43 -0.33 -3.68C-0.13 -3.94 0.03 -4.13 0.16 -4.24C0.28 -4.35 0.35 -4.44 0.38 -4.51C0.44 -4.65 0.37 -4.72 0.2 -4.72L0.11 -4.72C-0.08 -4.72 -0.21 -4.69 -0.28 -4.64C-0.5 -4.5 -0.81 -4.1 -1.21 -3.45Z M2.41 -0.59L5.21 -3.95C5.34 -4.1 5.39 -4.22 5.38 -4.33C5.37 -4.44 5.33 -4.53 5.25 -4.59C5.17 -4.66 5.08 -4.69 4.99 -4.69L2.91 -4.69C2.77 -4.69 2.68 -4.63 2.64 -4.5L2.38 -3.51C2.36 -3.43 2.37 -3.38 2.4 -3.34C2.44 -3.3 2.5 -3.28 2.58 -3.29L2.78 -3.3C2.95 -3.32 3.04 -3.38 3.07 -3.51L3.22 -4.1L4.51 -4.1L1.62 -0.58C1.55 -0.51 1.52 -0.42 1.5 -0.33C1.49 -0.24 1.52 -0.17 1.58 -0.1C1.64 -0.03 1.73 0 1.85 0L4.04 0C4.19 0 4.28 -0.07 4.32 -0.2L4.57 -1.18C4.59 -1.26 4.58 -1.31 4.55 -1.35C4.51 -1.39 4.45 -1.41 4.37 -1.4L4.18 -1.38C4.01 -1.37 3.92 -1.3 3.89 -1.18L3.74 -0.59Z M10.47 -4.69C10.43 -4.69 10.4 -4.68 10.38 -4.66C10.37 -4.65 10.35 -4.64 10.34 -4.62C10.32 -4.61 10.06 -4.14 9.56 -3.22C9.05 -2.3 8.69 -1.68 8.48 -1.35C8.26 -1.03 8.11 -0.87 8.02 -0.88C7.93 -0.89 7.93 -1.02 7.99 -1.27L8.92 -4.47C8.95 -4.62 8.93 -4.69 8.85 -4.69L8.37 -4.69C8.29 -4.69 8.24 -4.65 8.22 -4.56L7.28 -1.13C7.16 -0.71 7.21 -0.38 7.43 -0.14C7.51 -0.05 7.62 0 7.75 0L7.8 0C7.96 0 8.14 -0.08 8.34 -0.25C8.54 -0.41 8.74 -0.67 8.94 -1.01L9.49 -1.92L9.7 -2.33L8.8 0.84C8.77 0.96 8.72 1.04 8.67 1.08C8.61 1.12 8.56 1.12 8.5 1.09L7.47 0.46C7.41 0.43 7.35 0.42 7.31 0.43C7.27 0.44 7.22 0.48 7.17 0.54L7.03 0.73C6.98 0.77 6.96 0.83 6.97 0.9C6.98 0.97 7.02 1.03 7.11 1.06L8.04 1.6C8.27 1.73 8.44 1.78 8.57 1.74C8.62 1.73 8.71 1.69 8.82 1.62C9.02 1.52 9.18 1.37 9.31 1.16C9.45 0.96 9.53 0.78 9.58 0.61C9.62 0.45 9.8 -0.22 10.13 -1.39C10.47 -2.56 10.74 -3.58 10.97 -4.45C10.99 -4.52 10.99 -4.57 10.96 -4.62C10.94 -4.67 10.91 -4.69 10.87 -4.69Z M14.85 -4.75C14.63 -4.75 14.41 -4.66 14.19 -4.48C13.97 -4.3 13.8 -4.08 13.67 -3.81C13.54 -3.55 13.48 -3.29 13.48 -3.04C13.48 -2.79 13.53 -2.6 13.62 -2.46C13.72 -2.32 13.89 -2.22 14.14 -2.16L14.34 -2.11C14.5 -2.08 14.6 -2.03 14.65 -1.96C14.69 -1.89 14.72 -1.73 14.72 -1.49C14.72 -1.25 14.65 -1.03 14.52 -0.85C14.38 -0.66 14.22 -0.55 14.03 -0.52C13.93 -0.53 13.81 -0.6 13.69 -0.74C13.56 -0.89 13.49 -1.01 13.46 -1.11C13.44 -1.21 13.39 -1.27 13.32 -1.27C13.24 -1.28 13.17 -1.25 13.11 -1.19L12.91 -1.02C12.83 -0.94 12.83 -0.81 12.91 -0.64C12.98 -0.47 13.11 -0.31 13.3 -0.14C13.48 0.02 13.69 0.1 13.92 0.1L13.99 0.1C14.22 0.1 14.43 0.04 14.63 -0.1C14.83 -0.23 14.98 -0.4 15.1 -0.6C15.34 -1.02 15.47 -1.39 15.47 -1.71C15.47 -2.25 15.28 -2.56 14.9 -2.64L14.64 -2.7C14.47 -2.73 14.36 -2.77 14.29 -2.83C14.23 -2.88 14.2 -2.98 14.2 -3.11C14.2 -3.42 14.27 -3.67 14.4 -3.84C14.54 -4.02 14.69 -4.12 14.84 -4.15C14.92 -4.14 15 -4.11 15.06 -4.05C15.13 -4 15.18 -3.94 15.21 -3.9C15.24 -3.85 15.27 -3.78 15.31 -3.68C15.36 -3.58 15.39 -3.51 15.4 -3.48C15.42 -3.44 15.46 -3.42 15.51 -3.41C15.57 -3.41 15.62 -3.42 15.67 -3.46L15.94 -3.62C15.99 -3.65 16.02 -3.7 16.03 -3.76C16.04 -3.82 16.03 -3.87 16.01 -3.91C15.9 -4.15 15.75 -4.35 15.57 -4.51C15.39 -4.67 15.2 -4.75 14.99 -4.75Z M18.49 -0.59L21.29 -3.95C21.41 -4.1 21.47 -4.22 21.46 -4.33C21.45 -4.44 21.4 -4.53 21.33 -4.59C21.25 -4.66 21.16 -4.69 21.06 -4.69L18.99 -4.69C18.85 -4.69 18.76 -4.63 18.72 -4.5L18.45 -3.51C18.44 -3.43 18.44 -3.38 18.48 -3.34C18.52 -3.3 18.58 -3.28 18.66 -3.29L18.86 -3.3C19.02 -3.32 19.12 -3.38 19.14 -3.51L19.3 -4.1L20.59 -4.1L17.7 -0.58C17.63 -0.51 17.59 -0.42 17.58 -0.33C17.57 -0.24 17.6 -0.17 17.65 -0.1C17.71 -0.03 17.8 0 17.93 0L20.12 0C20.26 0 20.36 -0.07 20.39 -0.2L20.65 -1.18C20.67 -1.26 20.66 -1.31 20.62 -1.35C20.59 -1.39 20.53 -1.41 20.45 -1.4L20.25 -1.38C20.09 -1.37 20 -1.3 19.97 -1.18L19.82 -0.59Z M25.58 -6.11C25.61 -6.25 25.54 -6.33 25.37 -6.33L25.14 -6.33C24.99 -6.33 24.9 -6.26 24.86 -6.12L24.5 -4.69L24.12 -4.69C24.02 -4.69 23.95 -4.63 23.92 -4.51L23.85 -4.27C23.83 -4.18 23.83 -4.12 23.85 -4.09C23.87 -4.06 23.91 -4.04 23.97 -4.04L24.33 -4.04L23.38 -0.3C23.36 -0.21 23.37 -0.14 23.41 -0.09C23.45 -0.03 23.52 0 23.62 0L23.79 0C23.94 0 24.03 -0.07 24.07 -0.2L25.05 -4.04L25.53 -4.04C25.65 -4.04 25.73 -4.11 25.77 -4.25L25.83 -4.49C25.85 -4.56 25.85 -4.61 25.83 -4.64C25.81 -4.67 25.77 -4.69 25.7 -4.69L25.21 -4.69Z M28.92 -0.97C28.74 -0.7 28.57 -0.57 28.39 -0.57C28.18 -0.59 28.09 -0.87 28.1 -1.43C28.12 -2.15 28.27 -2.8 28.55 -3.37C28.65 -3.59 28.76 -3.77 28.88 -3.9C28.99 -4.04 29.11 -4.1 29.25 -4.1C29.39 -4.09 29.48 -4.03 29.53 -3.9C29.58 -3.78 29.6 -3.54 29.59 -3.18C29.57 -2.37 29.34 -1.64 28.92 -0.97ZM27.35 -1.34C27.34 -1.07 27.37 -0.84 27.44 -0.64C27.51 -0.44 27.59 -0.29 27.7 -0.18C27.86 -0.02 28.05 0.06 28.25 0.07C28.8 0.09 29.25 -0.2 29.6 -0.79C29.78 -1.09 29.94 -1.46 30.08 -1.91C30.23 -2.36 30.31 -2.82 30.32 -3.29C30.34 -3.76 30.29 -4.1 30.16 -4.3C29.99 -4.6 29.75 -4.75 29.44 -4.77C29.08 -4.77 28.77 -4.65 28.51 -4.41C28.39 -4.29 28.29 -4.17 28.2 -4.06C28.11 -3.94 28 -3.75 27.86 -3.48C27.55 -2.88 27.38 -2.17 27.35 -1.34Z M33.07 0C33.22 0 33.3 -0.07 33.34 -0.2L34.35 -4.04L35.01 -4.04C35.14 -4.04 35.22 -4.11 35.26 -4.25L35.33 -4.49C35.35 -4.56 35.35 -4.61 35.32 -4.64C35.3 -4.67 35.26 -4.69 35.19 -4.69L34.52 -4.69L34.63 -5.12C34.81 -5.79 35.06 -6.25 35.37 -6.5L35.96 -6.3C36.14 -6.24 36.25 -6.26 36.29 -6.34L36.41 -6.56C36.51 -6.74 36.46 -6.86 36.26 -6.91L35.69 -7.06C35.67 -7.06 35.63 -7.07 35.57 -7.08C35.51 -7.1 35.42 -7.08 35.29 -7.04C35.16 -7.01 35.04 -6.95 34.93 -6.87C34.48 -6.55 34.15 -5.96 33.92 -5.12L33.81 -4.69L33.27 -4.69C33.16 -4.69 33.09 -4.63 33.07 -4.51L33 -4.27C32.98 -4.18 32.98 -4.12 33 -4.09C33.02 -4.06 33.06 -4.04 33.12 -4.04L33.64 -4.04L32.63 -0.21C32.62 -0.15 32.63 -0.1 32.66 -0.06C32.7 -0.02 32.76 0 32.84 0Z M42.88 -3.56L43.51 -6.04C43.74 -6.04 43.94 -6.04 44.13 -6.03C44.32 -6.03 44.47 -5.97 44.57 -5.87C44.68 -5.76 44.73 -5.62 44.73 -5.46C44.73 -4.9 44.63 -4.45 44.41 -4.13C44.19 -3.78 43.87 -3.6 43.45 -3.58ZM42.76 -6.05L41.29 -0.28C41.28 -0.21 41.28 -0.14 41.32 -0.08C41.35 -0.03 41.4 0 41.48 0L41.75 0C41.89 0 41.98 -0.07 42.02 -0.2L42.71 -2.92L43.29 -2.93L43.64 -0.32C43.65 -0.2 43.68 -0.12 43.71 -0.07C43.75 -0.02 43.81 0 43.89 0L44.2 0C44.37 0 44.44 -0.11 44.41 -0.32L43.98 -3.04C44.1 -3.08 44.21 -3.13 44.31 -3.18C44.41 -3.23 44.55 -3.33 44.74 -3.48C44.92 -3.64 45.1 -3.9 45.26 -4.26C45.41 -4.62 45.49 -5.01 45.49 -5.43C45.49 -5.84 45.36 -6.16 45.11 -6.37C44.85 -6.58 44.51 -6.69 44.09 -6.69L42.52 -6.69C42.48 -6.69 42.44 -6.67 42.39 -6.63C42.35 -6.6 42.32 -6.56 42.31 -6.5L42.26 -6.31C42.25 -6.24 42.25 -6.18 42.29 -6.12C42.33 -6.07 42.39 -6.05 42.48 -6.05Z M49.4 -0.29C49.17 -0.24 48.95 -0.14 48.73 0.01C48.61 0.08 48.51 0.17 48.42 0.26C48.33 0.35 48.26 0.47 48.2 0.59C48.14 0.72 48.11 0.86 48.12 1.03C48.12 1.19 48.19 1.32 48.32 1.43C48.45 1.54 48.61 1.6 48.79 1.6C48.97 1.6 49.16 1.56 49.36 1.49C49.47 1.44 49.51 1.37 49.48 1.28L49.44 1.15C49.4 1.03 49.34 0.99 49.26 1.02C48.93 1.14 48.75 1.06 48.74 0.79C48.73 0.69 48.79 0.57 48.91 0.41C49.04 0.25 49.23 0.12 49.49 0.03C49.61 -0.01 49.62 -0.08 49.52 -0.18ZM50.11 -3.99C49.89 -3.21 49.7 -2.61 49.53 -2.18C49.36 -1.75 49.17 -1.41 48.97 -1.16C48.76 -0.91 48.6 -0.78 48.49 -0.78C48.41 -0.78 48.35 -0.86 48.31 -1C48.28 -1.15 48.28 -1.33 48.32 -1.56C48.42 -2.14 48.61 -2.74 48.89 -3.35C49.05 -3.71 49.22 -3.95 49.39 -4.06C49.57 -4.18 49.81 -4.16 50.11 -3.99ZM50.25 -4.5C50.07 -4.62 49.87 -4.67 49.67 -4.67C49.31 -4.67 49.02 -4.56 48.78 -4.34C48.55 -4.12 48.31 -3.69 48.06 -3.05C47.82 -2.41 47.67 -1.83 47.6 -1.32C47.58 -1.12 47.6 -0.93 47.65 -0.73C47.71 -0.54 47.78 -0.4 47.87 -0.3C47.96 -0.19 48.05 -0.12 48.14 -0.06C48.23 0 48.3 0.03 48.34 0.03L48.36 0.03C48.49 0.03 48.64 -0.06 48.8 -0.24C48.97 -0.42 49.09 -0.56 49.16 -0.67L49.07 -0.24C49.05 -0.18 49.06 -0.12 49.09 -0.07C49.12 -0.02 49.16 0 49.22 0L49.48 0C49.57 0 49.63 -0.09 49.68 -0.26L50.92 -4.4C50.99 -4.62 50.92 -4.73 50.72 -4.73L50.5 -4.72C50.38 -4.71 50.29 -4.64 50.25 -4.5Z M55.15 -4.67C55.01 -4.62 54.88 -4.53 54.76 -4.41C54.63 -4.3 54.52 -4.18 54.43 -4.07C54.34 -3.96 54.23 -3.8 54.1 -3.61C53.97 -3.42 53.83 -3.12 53.69 -2.73C53.56 -2.33 53.46 -1.93 53.4 -1.5C53.35 -1.08 53.38 -0.73 53.51 -0.44C53.57 -0.32 53.72 -0.2 53.97 -0.07C54.22 0.05 54.4 0.1 54.52 0.07C54.65 0.03 54.85 -0.1 55.13 -0.33C55.41 -0.56 55.57 -0.76 55.62 -0.93C55.64 -0.99 55.61 -1.04 55.54 -1.08L55.4 -1.17C55.34 -1.21 55.28 -1.23 55.24 -1.23C55.21 -1.23 55.16 -1.21 55.11 -1.15C54.88 -0.89 54.68 -0.7 54.49 -0.6C54.44 -0.59 54.36 -0.62 54.26 -0.68C54.15 -0.74 54.09 -0.81 54.08 -0.88C54.02 -1.19 54.05 -1.58 54.16 -2.03C54.27 -2.49 54.45 -2.93 54.7 -3.36C54.94 -3.79 55.17 -4.03 55.39 -4.07C55.5 -4.09 55.62 -4.04 55.75 -3.93C55.8 -3.89 55.85 -3.84 55.91 -3.78C55.98 -3.71 56.01 -3.67 56.02 -3.67C56.1 -3.59 56.19 -3.61 56.3 -3.71L56.46 -3.89C56.53 -3.97 56.51 -4.08 56.39 -4.22C56.27 -4.35 56.12 -4.48 55.94 -4.58C55.82 -4.66 55.69 -4.71 55.56 -4.72C55.43 -4.74 55.29 -4.72 55.15 -4.67Z M58.7 -0.59L61.5 -3.95C61.62 -4.1 61.68 -4.22 61.67 -4.33C61.66 -4.44 61.62 -4.53 61.54 -4.59C61.46 -4.66 61.37 -4.69 61.28 -4.69L59.2 -4.69C59.06 -4.69 58.97 -4.63 58.93 -4.5L58.67 -3.51C58.65 -3.43 58.66 -3.38 58.69 -3.34C58.73 -3.3 58.79 -3.28 58.87 -3.29L59.07 -3.3C59.23 -3.32 59.33 -3.38 59.35 -3.51L59.51 -4.1L60.8 -4.1L57.91 -0.58C57.84 -0.51 57.8 -0.42 57.79 -0.33C57.78 -0.24 57.81 -0.17 57.86 -0.1C57.92 -0.03 58.01 0 58.14 0L60.33 0C60.48 0 60.57 -0.07 60.6 -0.2L60.86 -1.18C60.88 -1.26 60.87 -1.31 60.83 -1.35C60.8 -1.39 60.74 -1.41 60.66 -1.4L60.46 -1.38C60.3 -1.37 60.21 -1.3 60.18 -1.18L60.03 -0.59Z M65.81 -6.79C65.84 -6.94 65.77 -7.01 65.61 -7.01L65.39 -7.01C65.24 -7.01 65.15 -6.94 65.11 -6.8L63.43 -0.3C63.41 -0.21 63.42 -0.14 63.46 -0.08C63.51 -0.03 63.58 0 63.69 0L63.85 0C64 0 64.09 -0.07 64.13 -0.2L64.66 -2.26L65.25 -0.2C65.28 -0.12 65.31 -0.06 65.34 -0.04C65.38 -0.01 65.44 0 65.53 0L65.78 0C65.88 0 65.95 -0.02 65.97 -0.06C66 -0.09 66 -0.16 65.98 -0.25L65.26 -2.51L66.84 -4.37C66.92 -4.45 66.95 -4.53 66.94 -4.59C66.94 -4.66 66.88 -4.69 66.79 -4.69L66.44 -4.69C66.33 -4.69 66.25 -4.66 66.2 -4.59L64.8 -2.83Z M71.25 -3.99C71.02 -3.19 70.84 -2.61 70.7 -2.25C70.56 -1.89 70.42 -1.6 70.27 -1.38C70.13 -1.16 69.99 -1 69.85 -0.89C69.72 -0.78 69.61 -0.75 69.53 -0.79C69.45 -0.84 69.4 -0.92 69.39 -1.03C69.38 -1.14 69.4 -1.32 69.45 -1.58C69.56 -2.16 69.75 -2.75 70.03 -3.35C70.19 -3.71 70.36 -3.95 70.54 -4.06C70.71 -4.18 70.95 -4.16 71.25 -3.99ZM71.39 -4.51C71.21 -4.62 71.01 -4.67 70.81 -4.67C70.45 -4.67 70.16 -4.56 69.92 -4.34C69.69 -4.12 69.45 -3.69 69.2 -3.04C68.96 -2.4 68.8 -1.82 68.74 -1.32C68.71 -1.12 68.71 -0.96 68.73 -0.86C68.74 -0.8 68.75 -0.74 68.76 -0.7C68.77 -0.65 68.79 -0.61 68.82 -0.56C68.85 -0.51 68.87 -0.48 68.89 -0.45C68.92 -0.42 68.96 -0.37 69.02 -0.29C69.07 -0.22 69.16 -0.15 69.26 -0.08C69.36 -0.01 69.44 0.03 69.49 0.03L69.5 0.03C69.61 0.03 69.73 -0.04 69.88 -0.17C70.02 -0.3 70.14 -0.44 70.23 -0.58L70.41 -0.06C70.42 -0.03 70.44 0 70.47 0.02C70.5 0.04 70.54 0.05 70.58 0.04C70.87 -0.03 71.12 -0.15 71.33 -0.31C71.54 -0.47 71.78 -0.7 72.02 -1C72.09 -1.09 72.08 -1.16 71.98 -1.23L71.76 -1.38C71.67 -1.43 71.59 -1.41 71.53 -1.31C71.34 -1.04 71.15 -0.84 70.96 -0.7L72.07 -4.4C72.1 -4.5 72.09 -4.58 72.05 -4.64C72 -4.7 71.92 -4.73 71.81 -4.73L71.6 -4.72C71.49 -4.72 71.42 -4.65 71.39 -4.51Z"></path></g></g></g></svg>