<svg xmlns="http://www.w3.org/2000/svg" id="SvgjsSvg69105" width="4095.9248064684125" height="4096" version="1.1" xmlns:xlink="http://www.w3.org/1999/xlink" xmlns:svgjs="http://svgjs.com/svgjs"><defs id="SvgjsDefs69106"></defs><g id="SvgjsG69107" transform="translate(328, 328) scale(34.4)" opacity="1"><defs id="SvgjsDefs19710"><linearGradient id="SvgjsLinearGradienthQ9qw7YgxH" gradientUnits="userSpaceOnUse" x1="98.18655362364525" y1="56.772608197281286" x2="1.814446376353892" y2="43.22839180271857"><stop id="SvgjsStop19714" stop-color="#ab7c08" offset="0.314"></stop><stop id="SvgjsStop19715" stop-color="#d7dee0" offset="0.674"></stop></linearGradient><linearGradient id="SvgjsLinearGradientgvUHrEg7MD_" gradientUnits="userSpaceOnUse" x1="90.88730529546976" y1="-77.66574870196473" x2="-88.63730529546976" y2="57.615748701964726"><stop id="SvgjsStop19719" stop-color="#e0deda" offset="0.267"></stop><stop id="SvgjsStop19720" stop-color="#be800f" offset="0.818"></stop></linearGradient></defs><g id="SvgjsG19711" transform="scale(0.21644548515481302)" opacity="1"><g id="SvgjsG19712" class="j_4pNd8OK" transform="translate(-0.005033008693416718, 0.005049443454055336) scale(10.066017386757304) rotate(90, 22.949000000000005, 22.948500000000003)" light-content="false" non-strokable="false" fill="#e4b93d"><g><path d="M8.797 15.227h-.124L.95 22.949l8.426 8.426H9.5l-8.425-8.426zm28.43 0h-.124l7.72 7.722-8.425 8.426h.125l8.425-8.426zm-8.712-8.712L22.949.95l-5.564 5.565h.124l5.44-5.441 5.441 5.441zM18.213 40.087h-.125l4.861 4.861 4.862-4.861h-.125l-4.737 4.737z"></path><path d="M16.435 6.515h.125l6.389-6.39 6.391 6.39h.124L22.949 0zm-8.587 8.712h-.125L0 22.949l8.426 8.426h.124L.125 22.949zm30.329 0h-.125l7.722 7.722-8.425 8.426h.124l8.425-8.426zM22.949 45.773l-5.686-5.686h-.124l5.81 5.81 5.812-5.81h-.125z"></path></g></g><g id="SvgjsG19716" class="8SAQ_YgKwf" transform="translate(81.44158467187344, 25.71040972262883) scale(3.0218119205542338)" light-content="false" non-strokable="false" fill="url(#SvgjsLinearGradienthQ9qw7YgxH)"><path d="M56.233 20.564c-.382.794-.647.982-.647 1.657 0 .236.052.468.145.68-.517-.256-.903-.39-1.332.022-.566.566-.134 1.14.578 1.125-.254-.329-.037-.53.23-.513.262.017.493.581.535 1.056a.274.274 0 0 0-.214.268v.02c0 .138.1.25.232.271.04.086.215.504-.125.692-.285.157-.283-.123-.135-.342-.415-.01-.667.371-.338.748.122.135.238.182.36.176.021-.001.042 0 .064-.01l-.055.166c-.03.092.077.175.174.18v2.064a25.512 25.512 0 0 0-2.379-.277h-2.375v50.888h2.375v-5.984h2.38v4.932h1.052V73.45h4.174v4.932h1.053V73.45h4.173v4.932h1.053V73.45h4.174v4.932h1.053V73.45h4.173v4.932h1.053V73.45h4.174v4.932h1.053V73.45h4.174v4.932h1.052V73.45h2.332v4.932h-.908v1.052h5.46v-1.052h-.909V44.887H95v-1.055h-1.89c.01-.175.03-.32.07-.389.183-.316.458-.631.459-1.021a1.368 1.368 0 1 0-2.737 0c0 .39.275.705.458 1.021.039.068.06.214.072.389h-1.89v1.055h.907v3.138a16.31 16.31 0 0 1-2.332-.896v-2.282c.098 0 .205-.088.174-.18l-.054-.163c.022 0 .042.01.064.01.121.01.237-.041.36-.176.33-.377.077-.759-.339-.75.148.22.152.499-.132.342-.34-.188-.166-.606-.125-.692a.272.272 0 0 0 .23-.27v-.021a.274.274 0 0 0-.215-.268c.043-.475.274-1.04.535-1.056.268-.017.484.184.23.513.713.014 1.144-.557.579-1.123-.209-.201-.407-.274-.615-.265-.22.01-.451.108-.717.24a1.69 1.69 0 0 0 .144-.678c0-.675-.264-.864-.646-1.658-.382.794-.645.983-.645 1.658 0 .237.05.467.143.678-.517-.255-.901-.388-1.33.025-.565.565-.134 1.137.578 1.123-.253-.33-.039-.53.229-.514.261.017.494.582.537 1.057a.274.274 0 0 0-.215.267v.022c0 .138.1.25.232.27.04.086.213.504-.127.691-.284.157-.28-.122-.132-.341-.416-.01-.668.373-.338.75.121.134.238.181.359.175.022 0 .042 0 .064-.01l-.054.164c-.03.092.076.175.174.18v1.754c-1.34-.71-2.732-1.592-4.174-2.582v-2.293c.097 0 .204-.088.174-.18l-.055-.164c.022 0 .043.01.064.01.121.01.238-.04.36-.175.33-.377.077-.76-.338-.75.147.219.151.498-.133.341-.34-.187-.165-.603-.125-.69a.274.274 0 0 0 .23-.27v-.02a.277.277 0 0 0-.214-.27c.042-.475.273-1.038.535-1.055.267-.017.483.183.23.512.712.014 1.144-.558.578-1.123-.209-.201-.407-.272-.615-.264-.22.01-.451.107-.717.239.093-.212.145-.442.145-.678 0-.676-.265-.862-.647-1.656-.382.794-.644.98-.644 1.656 0 .236.05.466.142.678-.516-.256-.9-.389-1.33.025-.565.565-.134 1.136.578 1.123-.253-.33-.038-.53.229-.512.261.017.494.58.537 1.055a.277.277 0 0 0-.215.27v.02c0 .137.101.25.233.27.04.087.212.503-.127.69-.285.157-.28-.122-.133-.342-.416-.01-.668.373-.338.75.122.135.238.182.36.176.02-.001.042 0 .064-.01l-.055.164c-.03.092.076.175.174.18v1.549a225.379 225.379 0 0 1-4.174-3.051v-2.315c.098 0 .204-.088.174-.18l-.055-.163c.022 0 .043.01.065.01.12.01.237-.043.359-.178.33-.377.078-.76-.338-.75.148.22.152.499-.133.342-.34-.188-.165-.604-.125-.69a.274.274 0 0 0 .23-.271v-.02a.274.274 0 0 0-.214-.268c.043-.475.273-1.04.535-1.056.267-.017.484.184.23.513.713.014 1.144-.56.579-1.125-.21-.201-.408-.272-.616-.263-.219.01-.449.107-.714.238a1.69 1.69 0 0 0 .142-.678c0-.675-.264-.862-.646-1.656-.382.794-.645.98-.645 1.656 0 .237.05.467.143.678-.517-.255-.901-.388-1.33.025-.566.565-.135 1.139.578 1.125-.254-.33-.039-.53.228-.514.262.017.495.581.537 1.057a.274.274 0 0 0-.214.267v.02c0 .138.1.25.232.272.04.086.213.502-.127.69-.285.156-.28-.123-.133-.342-.415-.01-.667.373-.338.75.122.134.238.183.36.177.021 0 .042 0 .064-.01l-.055.164c-.03.092.076.175.174.18v1.535c-.382-.284-.737-.546-1.125-.832a135.107 135.107 0 0 0-3.049-2.184v-2.32c.098 0 .205-.088.174-.18l-.054-.166c.022 0 .042.012.064.012.121.01.238-.043.36-.177.33-.377.077-.76-.338-.75.147.219.151.498-.133.341-.34-.187-.165-.603-.125-.689a.274.274 0 0 0 .23-.272v-.02a.274.274 0 0 0-.215-.267c.043-.476.274-1.04.535-1.057.268-.017.484.183.23.512.713.014 1.144-.558.58-1.123-.21-.201-.408-.272-.616-.264-.22.01-.45.107-.715.239a1.69 1.69 0 0 0 .143-.678c0-.676-.265-.862-.647-1.656-.382.794-.644.98-.644 1.656 0 .236.05.466.142.678-.517-.256-.901-.389-1.33.025-.565.565-.134 1.136.578 1.123-.253-.33-.039-.53.229-.512.261.017.494.581.537 1.057a.274.274 0 0 0-.215.267v.02c0 .138.1.25.232.272.04.086.213.502-.127.689-.284.157-.28-.122-.132-.342-.416-.01-.668.373-.338.75.122.135.238.184.36.178.02 0 .041 0 .064-.012l-.055.166c-.03.092.076.175.174.18v1.597a64.435 64.435 0 0 0-4.174-2.597V30.77c.098 0 .204-.088.174-.18l-.055-.164c.022 0 .043.01.064.01.122.01.238-.042.36-.176.33-.377.077-.76-.338-.752.148.22.152.501-.133.344-.34-.187-.165-.605-.125-.691a.274.274 0 0 0 .23-.272v-.019a.274.274 0 0 0-.214-.267c.042-.476.275-1.04.537-1.057.267-.017.482.185.228.514.713.014 1.144-.56.578-1.125-.208-.202-.407-.273-.615-.264-.22.01-.449.107-.715.238.093-.211.143-.441.143-.677 0-.676-.263-.862-.645-1.657-.382.795-.646.981-.646 1.657 0 .236.05.466.143.677-.517-.255-.902-.388-1.33.025-.566.566-.135 1.139.578 1.125-.254-.329-.04-.529.228-.511.262.017.495.579.537 1.054a.274.274 0 0 0-.215.268v.02c0 .138.101.251.233.272.04.086.215.504-.125.692-.285.157-.283-.124-.135-.344-.415-.01-.668.373-.338.75.122.135.238.182.36.176.021-.001.042-.01.064-.01l-.055.166c-.03.092.076.175.174.18v1.755a40.308 40.308 0 0 0-4.174-1.95v-2.315c.098 0 .205-.088.174-.18l-.055-.166c.022 0 .043.012.065.012.121.01.237-.043.36-.178.329-.376.077-.759-.339-.75.148.22.152.5-.133.342-.34-.187-.165-.603-.125-.69a.274.274 0 0 0 .23-.27v-.02a.274.274 0 0 0-.214-.268c.043-.476.276-1.04.537-1.057.267-.017.482.183.229.512.712.014 1.143-.558.578-1.123-.21-.202-.408-.273-.615-.264-.22.01-.45.107-.715.238a1.69 1.69 0 0 0 .142-.677c0-.676-.262-.862-.644-1.657-.382.795-.647.981-.647 1.657 0 .236.05.466.143.677-.517-.255-.901-.388-1.33.025-.566.566-.134 1.137.578 1.123-.253-.329-.037-.528.23-.511.262.017.493.58.536 1.056a.274.274 0 0 0-.215.268v.02c0 .137.1.25.232.271.04.086.215.502-.125.69-.284.157-.282-.123-.135-.342-.415-.01-.667.373-.338.75.122.134.239.183.36.178.021-.001.042 0 .064-.012l-.054.166c-.03.092.076.175.173.18v1.908a29.603 29.603 0 0 0-4.173-1.163v-2.25c.097 0 .204-.086.173-.177l-.054-.166c.022 0 .043.01.064.01.122.01.238-.041.36-.176.33-.377.077-.759-.338-.75.147.22.151.499-.133.342-.34-.188-.165-.605-.125-.692a.272.272 0 0 0 .23-.27v-.021a.274.274 0 0 0-.214-.268c.042-.475.275-1.04.537-1.056.267-.017.481.184.228.513.712.014 1.144-.56.578-1.125-.209-.201-.407-.274-.615-.265-.22.01-.45.109-.715.24a1.69 1.69 0 0 0 .143-.678c0-.675-.263-.862-.645-1.656zm-12.465 0c-.382.793-.645.982-.645 1.657 0 .236.05.466.143.677-.266-.13-.496-.23-.715-.24-.208-.01-.406.064-.615.266-.566.565-.134 1.137.578 1.123-.253-.33-.039-.53.228-.512.262.017.495.58.538 1.055a.276.276 0 0 0-.215.27v.02c0 .137.099.25.23.27.04.087.215.505-.125.692-.284.157-.28-.122-.133-.342-.415-.01-.667.372-.338.749.122.134.239.181.36.175.021 0 .042 0 .064-.01l-.054.166c-.031.092.076.176.173.18v2.25a29.603 29.603 0 0 0-4.173 1.162v-1.91c.097 0 .204-.086.173-.178l-.054-.166c.022 0 .043.01.064.01.121.01.238-.043.36-.178.33-.376.077-.757-.338-.748.147.22.15.5-.135.342-.34-.187-.165-.605-.125-.691a.273.273 0 0 0 .232-.27v-.022a.274.274 0 0 0-.215-.267c.043-.476.274-1.04.536-1.057.267-.017.483.185.23.514.712.014 1.143-.558.578-1.123-.429-.414-.815-.281-1.332-.025.093-.212.144-.442.145-.678 0-.676-.265-.864-.647-1.658-.382.794-.644.982-.644 1.658 0 .236.05.466.142.678-.265-.132-.495-.232-.715-.24-.208-.01-.406.063-.615.265-.565.565-.134 1.137.578 1.123-.253-.329-.039-.53.229-.514.261.017.494.582.537 1.057a.275.275 0 0 0-.215.268v.022c0 .137.099.248.23.27.04.085.215.503-.125.69-.284.158-.28-.122-.132-.341-.416-.01-.668.371-.338.748.122.134.238.183.36.177.02 0 .042-.01.064-.01l-.055.166c-.03.092.076.174.174.178v2.315a40.307 40.307 0 0 0-4.174 1.95v-1.755c.098 0 .204-.088.174-.18l-.055-.164c.022 0 .043.01.064.01.122.01.238-.042.36-.176.33-.377.077-.759-.338-.75.148.22.15.5-.135.342-.34-.187-.165-.605-.125-.691a.275.275 0 0 0 .233-.272v-.019a.274.274 0 0 0-.215-.267c.042-.476.273-1.04.535-1.057.267-.017.484.183.23.512.713.014 1.144-.558.579-1.123-.43-.414-.816-.28-1.333-.025.093-.212.145-.441.145-.678 0-.675-.264-.864-.646-1.658-.382.794-.645.982-.645 1.658 0 .236.05.467.143.678-.266-.132-.496-.232-.715-.24-.208-.01-.407.063-.616.265-.565.566-.134 1.137.579 1.123-.254-.329-.04-.529.228-.512.262.017.495.58.537 1.055a.275.275 0 0 0-.215.268v.02c0 .138.1.251.23.272.041.086.216.504-.124.692-.285.157-.28-.125-.133-.344-.415-.01-.668.373-.338.75.122.134.238.183.36.178.021 0 .042-.012.064-.012l-.055.166c-.03.092.076.175.174.18v2.337a64.433 64.433 0 0 0-4.174 2.598v-1.6c.098 0 .205-.086.174-.177l-.055-.166c.022 0 .043.01.065.01.121.01.237-.043.36-.178.329-.377.077-.757-.339-.748.148.22.15.498-.135.342-.34-.188-.165-.606-.125-.692a.273.273 0 0 0 .233-.27v-.021a.274.274 0 0 0-.215-.268c.043-.475.274-1.038.535-1.055.267-.017.484.183.23.512.713.014 1.144-.558.579-1.123-.43-.413-.816-.28-1.332-.025.092-.211.144-.443.144-.68 0-.675-.264-.862-.646-1.656-.382.794-.645.98-.645 1.656 0 .237.05.469.143.68-.266-.131-.496-.231-.715-.24-.208-.01-.406.064-.615.265-.566.566-.134 1.137.578 1.123-.253-.329-.039-.529.228-.511.262.017.495.579.538 1.054a.275.275 0 0 0-.215.268v.022c0 .137.099.249.23.27.04.086.215.504-.125.691-.284.157-.28-.122-.133-.342-.415-.01-.667.371-.338.748.122.134.239.184.36.178.021 0 .042-.01.064-.01l-.054.166c-.031.092.076.173.173.178v2.32a134.68 134.68 0 0 0-3.048 2.184c-.388.285-.743.548-1.125.832v-1.536c.097 0 .204-.086.173-.177l-.054-.166c.022 0 .043.01.064.01.122.01.238-.042.36-.176.33-.377.077-.759-.338-.75.147.22.15.499-.135.342-.34-.188-.165-.605-.125-.692a.273.273 0 0 0 .232-.27v-.021a.272.272 0 0 0-.214-.266c.042-.475.275-1.04.537-1.056.267-.017.481.182.228.511.712.014 1.144-.557.578-1.123-.429-.413-.813-.28-1.33-.025a1.69 1.69 0 0 0 .143-.677c0-.676-.263-.862-.645-1.657-.382.795-.646.981-.646 1.657 0 .236.05.466.142.677-.265-.131-.495-.23-.714-.24-.208-.01-.407.064-.616.266-.565.565-.134 1.137.578 1.123-.253-.33-.038-.53.229-.512.262.017.494.581.537 1.057a.272.272 0 0 0-.215.265v.022c0 .138.1.249.23.27.04.086.215.504-.124.691-.285.157-.28-.122-.133-.342-.416-.01-.668.374-.338.75.122.135.238.182.36.176.021 0 .042 0 .064-.01l-.055.166c-.03.092.076.174.174.178v2.316a225.122 225.122 0 0 1-4.174 3.05v-1.548c.098 0 .204-.088.174-.18l-.055-.165c.022 0 .043.012.065.012.121.01.237-.043.36-.178.329-.377.077-.757-.339-.748.148.22.15.498-.135.342-.34-.188-.165-.606-.125-.692a.275.275 0 0 0 .233-.271v-.02a.274.274 0 0 0-.215-.268c.043-.475.275-1.04.537-1.057.267-.017.482.185.229.514.712.014 1.143-.56.578-1.125-.43-.413-.814-.279-1.33-.023.092-.211.142-.443.142-.68 0-.675-.262-.862-.644-1.656-.382.794-.647.98-.647 1.656 0 .237.05.469.143.68-.266-.131-.496-.231-.715-.24-.208-.01-.406.062-.615.263-.566.566-.134 1.14.578 1.125-.253-.329-.039-.53.228-.513.262.017.495.581.537 1.056a.275.275 0 0 0-.214.268v.02c0 .138.099.25.23.272.04.086.215.504-.125.691-.284.157-.28-.122-.133-.342-.415-.01-.667.371-.338.748.122.135.238.184.36.178.021 0 .042 0 .064-.012l-.054.166c-.031.092.076.175.173.18v2.293c-1.442.99-2.834 1.871-4.173 2.582V44.85c.097 0 .204-.088.173-.18l-.054-.166c.022 0 .043.01.064.01.121.01.238-.04.36-.176.33-.377.077-.757-.338-.748.147.22.151.5-.133.342-.34-.187-.167-.605-.127-.691a.275.275 0 0 0 .232-.272v-.02a.274.274 0 0 0-.215-.267c.043-.476.276-1.04.537-1.057.268-.017.482.184.229.514.712.014 1.144-.56.578-1.125-.429-.414-.813-.28-1.33-.023.093-.212.142-.444.143-.68 0-.676-.263-.862-.645-1.656-.382.794-.646.98-.646 1.656 0 .236.05.466.142.678-.265-.132-.495-.23-.715-.239-.208-.01-.406.062-.615.264-.565.565-.134 1.139.578 1.125-.253-.33-.039-.53.229-.514.261.017.494.582.537 1.057a.275.275 0 0 0-.215.268v.02c0 .137.099.25.23.271.04.086.215.504-.125.691-.284.157-.28-.122-.132-.341-.416-.01-.668.37-.338.748.122.134.238.181.36.175.02 0 .041 0 .064-.01l-.055.166c-.03.092.076.176.174.18v2.281a16.31 16.31 0 0 1-2.332.897v-3.139h.908v-1.055h-1.89c.01-.174.03-.32.07-.388.182-.317.458-.631.459-1.022a1.368 1.368 0 1 0-2.736 0c0 .39.275.705.458 1.022.04.068.06.214.07.388H5v1.055h.908v33.494H5v1.055h5.459v-1.055H9.55v-4.93h2.332v4.93h1.052v-4.93h4.174v4.93h1.053v-4.93h4.174v4.93h1.053v-4.93h4.173v4.93h1.053v-4.93h4.174v4.93h1.053v-4.93h4.173v4.93h1.053v-4.93h4.174v4.93h1.053v-4.93h2.379v5.986h2.375V28.55h-2.375a25.68 25.68 0 0 0-2.38.276v-2.064c.098 0 .205-.088.175-.18l-.055-.165c.022 0 .043.01.064.01.122.01.238-.041.36-.176.33-.377.077-.76-.338-.75.148.22.15.499-.135.342-.34-.188-.165-.604-.125-.69a.275.275 0 0 0 .233-.271v-.02a.276.276 0 0 0-.215-.27c.042-.475.273-1.038.535-1.055.267-.017.484.183.23.512.713.014 1.144-.558.578-1.123-.428-.413-.815-.28-1.332-.025a1.68 1.68 0 0 0 .145-.678c0-.675-.265-.862-.647-1.656zm2.906 9.41v2.256c-.804.052-1.595.155-2.379.282v-2.243c.784-.132 1.576-.24 2.38-.294zm6.652 0c.804.056 1.595.163 2.38.295v2.243a25.102 25.102 0 0 0-2.38-.282v-2.255zm-10.084.497v2.228c-1.424.29-2.816.69-4.173 1.182v-2.176a28.835 28.835 0 0 1 4.173-1.234zm13.516 0c1.421.302 2.813.72 4.174 1.234v2.176a29.388 29.388 0 0 0-4.174-1.182v-2.228zm-18.742 1.646v2.17a40.474 40.474 0 0 0-4.174 1.973v-2.102a41.118 41.118 0 0 1 4.174-2.04zm23.969 0a41.121 41.121 0 0 1 4.173 2.041v2.102a40.475 40.475 0 0 0-4.173-1.973v-2.17zm-15.31.826V35.2c-.806.052-1.597.153-2.38.278v-2.244c.784-.13 1.575-.237 2.38-.29zm6.651 0c.804.054 1.595.16 2.38.291v2.243a25.478 25.478 0 0 0-2.38-.278v-2.256zm-10.084.487v2.231a29.595 29.595 0 0 0-4.173 1.163v-2.178a29.015 29.015 0 0 1 4.173-1.216zm13.516 0c1.422.298 2.815.71 4.174 1.216v2.178a29.596 29.596 0 0 0-4.174-1.164v-2.23zm-23.969 1.328v2.09a65.569 65.569 0 0 0-4.174 2.615v-2.027a69.245 69.245 0 0 1 4.174-2.678zm34.422 0a69.242 69.242 0 0 1 4.174 2.678v2.027a65.563 65.563 0 0 0-4.174-2.615v-2.09zm-29.195.297v2.174a40.286 40.286 0 0 0-4.174 1.951v-2.109a40.83 40.83 0 0 1 4.174-2.016zm23.969 0a40.833 40.833 0 0 1 4.173 2.015v2.11a40.287 40.287 0 0 0-4.173-1.952v-2.174zm-15.31 1.572v35.772h-2.38V36.922c.784-.133 1.576-.24 2.38-.295zm6.651 0c.804.055 1.595.162 2.38.295v35.477h-2.38V36.627zm-10.084.496V72.4H39.07V38.355c1.36-.513 2.752-.93 4.173-1.232zm13.516 0c1.421.303 2.813.719 4.174 1.232V72.4h-4.174V37.123zm-23.969.547v2.092a64.434 64.434 0 0 0-4.174 2.597v-2.033a67.91 67.91 0 0 1 4.174-2.656zm34.422 0a67.911 67.911 0 0 1 4.174 2.656v2.033a64.435 64.435 0 0 0-4.174-2.597V37.67zm-39.648.502v2.017c-.963.672-1.91 1.353-2.836 2.036-.46.338-.886.655-1.338.992v-1.983c.66-.496 1.294-.976 1.97-1.474.725-.534 1.461-1.063 2.204-1.588zm44.875 0c.742.525 1.479 1.054 2.203 1.588.676.498 1.31.978 1.97 1.474v1.983c-.452-.337-.877-.654-1.337-.992a136.41 136.41 0 0 0-2.836-2.036v-2.017zm-34.422.597V72.4h-4.174V40.81a41.077 41.077 0 0 1 4.174-2.042zm23.969 0a41.08 41.08 0 0 1 4.173 2.042v31.588h-4.173v-33.63zm-34.422 2.288v2.023c-1.037.72-2.055 1.452-3.05 2.184-.387.285-.742.55-1.124.834V44.11c.59-.442 1.155-.867 1.76-1.312.793-.584 1.597-1.167 2.414-1.742zm44.875 0c.816.575 1.62 1.158 2.414 1.742.604.445 1.169.87 1.76 1.312v1.987c-.382-.284-.738-.549-1.125-.834a134.508 134.508 0 0 0-3.05-2.184v-2.023zm-39.649.353V72.4h-4.174V44.086c1.36-.936 2.75-1.84 4.174-2.676zm34.422 0a69.163 69.163 0 0 1 4.174 2.676v28.313h-4.174V41.41zm-44.875.611V44a206.172 206.172 0 0 1-4.174 3.053v-1.969c1.352-.947 2.763-2 4.174-3.063zm55.328 0a156.918 156.918 0 0 0 4.174 3.063v1.969A206.144 206.144 0 0 1 77.664 44v-1.979zm-50.101 2.803V72.4h-4.174V47.887c.66-.496 1.294-.977 1.97-1.475.725-.533 1.461-1.063 2.204-1.588zm44.875 0a144.48 144.48 0 0 1 2.203 1.588c.676.498 1.31.979 1.97 1.475v24.512h-4.173V44.824zm-50.102.074v1.979a224.928 224.928 0 0 1-4.174 3.049v-1.969c1.348-.948 2.76-1.998 4.174-3.059zm55.328 0a172.408 172.408 0 0 0 4.174 3.059v1.969a224.861 224.861 0 0 1-4.174-3.05v-1.978zm-60.554.91v1.985c-1.435.98-2.828 1.855-4.174 2.554V48.26c1.37-.667 2.76-1.5 4.174-2.452zm65.78 0c1.415.951 2.805 1.785 4.175 2.452v2.087c-1.347-.7-2.74-1.573-4.174-2.554v-1.985zm-60.554 2.866v23.722h-4.174v-20.66c1.352-.947 2.763-2 4.174-3.062zm55.328 0a156.916 156.916 0 0 0 4.174 3.062v20.66h-4.174V48.674zm-60.554.014v1.984c-1.442.99-2.835 1.872-4.174 2.582v-2.08c1.362-.678 2.752-1.525 4.174-2.486zm65.78 0c1.422.961 2.812 1.808 4.175 2.486v2.08c-1.34-.71-2.732-1.592-4.174-2.582v-1.984zm-71.007.05v2.126a16.11 16.11 0 0 1-2.332.863v-2.195c.773-.191 1.55-.465 2.332-.793zm76.234 0c.782.329 1.56.603 2.332.794v2.195a16.031 16.031 0 0 1-2.332-.863v-2.125zm-76.234 2.926v2.117a16.28 16.28 0 0 1-2.332.895v-2.192a15.77 15.77 0 0 0 2.332-.82zm76.234 0c.785.34 1.563.622 2.332.82v2.192a16.28 16.28 0 0 1-2.332-.894v-2.117zm-71.007.797v19.936h-4.174V54.912c1.37-.666 2.76-1.5 4.174-2.45zm65.78 0c1.415.95 2.805 1.785 4.175 2.451v17.485H82.89V52.46zm-71.007 2.93v17.006H9.551V56.184c.773-.191 1.55-.465 2.332-.793zm76.234 0c.782.328 1.56.602 2.332.793v16.213h-2.332V55.39z" color="#000" font-weight="400" font-family="sans-serif" overflow="visible" fill-rule="evenodd" style="line-height: normal; text-indent: 0; text-align: start; text-decoration-line: none; text-decoration-style: solid; text-decoration-color: #000; text-transform: none; block-progression: tb; white-space: normal; isolation: auto; mix-blend-mode: normal; solid-color: #000; solid-opacity: 1"></path></g><rect id="SvgjsRect19717" width="264.5058169097751" height="0.9853809816703614" fill="#242424" transform="translate(113.3632379742154, 303.9386464371463) scale(1)" light-content="false"></rect><g id="SvgjsG19721" class="text" transform="translate(228.3106442746446, 333.52810594997544) scale(1)" light-content="false" fill="url(#SvgjsLinearGradientgvUHrEg7MD_)"><path d="M-129.92 -10.54L-129.92 -19.93L-131.76 -19.93L-131.76 0L-129.92 0L-129.92 -10.15L-114.77 0L-111.68 0L-127.18 -10.37L-112.58 -19.93L-115.1 -19.93Z M-93.05 -18.39L-93.05 -18.39L-93.05 -20.17C-93.27 -20.21 -93.47 -20.25 -93.68 -20.28C-93.88 -20.3 -94.1 -20.33 -94.32 -20.36C-94.55 -20.38 -94.8 -20.4 -95.07 -20.41C-95.34 -20.43 -95.65 -20.44 -95.98 -20.44C-96.97 -20.44 -97.92 -20.32 -98.85 -20.09C-99.77 -19.87 -100.65 -19.55 -101.49 -19.15C-102.34 -18.75 -103.14 -18.27 -103.9 -17.71C-104.65 -17.15 -105.36 -16.53 -106.01 -15.87L-106.01 -19.93L-107.82 -19.93L-107.82 0L-106.01 0L-106.01 -13.84C-105.44 -14.51 -104.82 -15.15 -104.12 -15.76C-103.42 -16.36 -102.67 -16.89 -101.85 -17.35C-101.03 -17.8 -100.15 -18.16 -99.2 -18.43C-98.24 -18.69 -97.23 -18.83 -96.14 -18.83C-95.36 -18.83 -94.72 -18.77 -94.22 -18.67C-93.72 -18.57 -93.33 -18.48 -93.05 -18.39Z M-89.7 0L-87.89 0L-87.89 -19.93L-89.7 -19.93Z M-65.08 -16.98L-65.08 -19.07C-65.71 -19.24 -66.33 -19.39 -66.94 -19.54C-67.55 -19.68 -68.18 -19.81 -68.83 -19.92C-69.47 -20.03 -70.14 -20.12 -70.83 -20.19C-71.52 -20.26 -72.25 -20.29 -73.02 -20.29C-73.73 -20.29 -74.45 -20.26 -75.17 -20.19C-75.9 -20.12 -76.6 -20.01 -77.27 -19.86C-77.94 -19.71 -78.57 -19.51 -79.16 -19.25C-79.75 -19 -80.26 -18.68 -80.7 -18.3C-81.14 -17.93 -81.49 -17.48 -81.74 -16.96C-81.99 -16.44 -82.12 -15.85 -82.12 -15.19C-82.12 -14.51 -81.96 -13.91 -81.65 -13.4C-81.33 -12.89 -80.91 -12.44 -80.37 -12.05C-79.83 -11.65 -79.21 -11.31 -78.49 -11.02C-77.76 -10.73 -77 -10.47 -76.2 -10.24C-75.4 -10.01 -74.57 -9.79 -73.71 -9.59C-72.86 -9.4 -72.03 -9.19 -71.23 -8.98C-70.42 -8.78 -69.66 -8.55 -68.94 -8.31C-68.22 -8.07 -67.59 -7.79 -67.06 -7.48C-66.52 -7.16 -66.09 -6.8 -65.78 -6.38C-65.47 -5.97 -65.31 -5.48 -65.31 -4.93C-65.31 -4.24 -65.5 -3.66 -65.9 -3.19C-66.29 -2.72 -66.84 -2.33 -67.54 -2.04C-68.25 -1.74 -69.08 -1.53 -70.05 -1.39C-71.02 -1.26 -72.07 -1.19 -73.21 -1.19C-74.83 -1.19 -76.37 -1.33 -77.83 -1.62C-79.3 -1.91 -80.69 -2.45 -82 -3.23L-82 -1.02C-80.73 -0.58 -79.38 -0.24 -77.98 0.01C-76.57 0.27 -75 0.39 -73.27 0.39C-72.52 0.39 -71.75 0.36 -70.97 0.3C-70.19 0.23 -69.44 0.13 -68.71 -0.03C-67.98 -0.18 -67.29 -0.39 -66.65 -0.66C-66.01 -0.93 -65.45 -1.26 -64.97 -1.66C-64.49 -2.06 -64.11 -2.54 -63.83 -3.1C-63.55 -3.65 -63.41 -4.3 -63.41 -5.05C-63.41 -5.73 -63.57 -6.34 -63.88 -6.86C-64.19 -7.38 -64.62 -7.85 -65.16 -8.25C-65.69 -8.66 -66.32 -9.01 -67.04 -9.32C-67.76 -9.62 -68.53 -9.9 -69.33 -10.15C-70.14 -10.39 -70.97 -10.62 -71.83 -10.83C-72.68 -11.05 -73.52 -11.26 -74.32 -11.46C-75.13 -11.67 -75.89 -11.9 -76.61 -12.13C-77.33 -12.37 -77.96 -12.63 -78.5 -12.92C-79.04 -13.21 -79.46 -13.55 -79.78 -13.92C-80.09 -14.3 -80.25 -14.74 -80.25 -15.24C-80.25 -15.84 -80.08 -16.36 -79.75 -16.79C-79.41 -17.23 -78.93 -17.59 -78.3 -17.88C-77.66 -18.16 -76.89 -18.37 -75.98 -18.51C-75.06 -18.64 -74.02 -18.71 -72.85 -18.71C-71.88 -18.71 -71 -18.65 -70.21 -18.54C-69.42 -18.43 -68.71 -18.29 -68.07 -18.13C-67.44 -17.96 -66.88 -17.78 -66.38 -17.57C-65.89 -17.36 -65.45 -17.17 -65.08 -16.98Z M-49.72 -18.27L-40.65 -18.27L-40.65 -19.93L-60.58 -19.93L-60.58 -18.27L-51.52 -18.27L-51.52 0L-49.72 0Z M-18.69 0L-16.9 0L-16.9 -13.52C-16.9 -14.75 -17.16 -15.79 -17.69 -16.64C-18.23 -17.5 -18.96 -18.2 -19.88 -18.74C-20.81 -19.28 -21.91 -19.67 -23.16 -19.92C-24.42 -20.17 -25.77 -20.29 -27.22 -20.29C-28.93 -20.29 -30.55 -20.16 -32.07 -19.89C-33.6 -19.63 -35.03 -19.31 -36.37 -18.96L-36.37 -16.84C-35.73 -17.09 -35.08 -17.33 -34.45 -17.55C-33.81 -17.77 -33.14 -17.97 -32.44 -18.14C-31.75 -18.31 -31 -18.44 -30.2 -18.54C-29.39 -18.63 -28.5 -18.68 -27.53 -18.68C-26.8 -18.68 -26.08 -18.65 -25.36 -18.59C-24.64 -18.52 -23.95 -18.42 -23.3 -18.27C-22.65 -18.13 -22.04 -17.94 -21.48 -17.7C-20.92 -17.46 -20.43 -17.17 -20.01 -16.82C-19.6 -16.46 -19.28 -16.05 -19.04 -15.58C-18.81 -15.1 -18.69 -14.56 -18.69 -13.94L-18.69 -12.41C-20.56 -12.31 -22.34 -12.18 -24.02 -12.02C-25.71 -11.86 -27.28 -11.65 -28.73 -11.41C-30.18 -11.16 -31.49 -10.86 -32.67 -10.51C-33.84 -10.15 -34.85 -9.72 -35.68 -9.22C-36.51 -8.71 -37.15 -8.11 -37.6 -7.43C-38.05 -6.75 -38.27 -5.97 -38.27 -5.08C-38.27 -4.18 -38.08 -3.39 -37.69 -2.7C-37.31 -2.02 -36.76 -1.45 -36.04 -0.99C-35.33 -0.53 -34.45 -0.19 -33.42 0.04C-32.39 0.28 -31.23 0.39 -29.94 0.39C-28.94 0.39 -27.92 0.33 -26.89 0.2C-25.85 0.08 -24.85 -0.1 -23.87 -0.33C-22.88 -0.57 -21.95 -0.84 -21.07 -1.16C-20.18 -1.48 -19.39 -1.83 -18.69 -2.2ZM-18.69 -10.81L-18.69 -4.1C-19.02 -3.85 -19.43 -3.61 -19.91 -3.36C-20.38 -3.12 -20.91 -2.9 -21.49 -2.68C-22.07 -2.47 -22.69 -2.27 -23.35 -2.1C-24.01 -1.92 -24.68 -1.76 -25.35 -1.63C-26.03 -1.5 -26.71 -1.4 -27.39 -1.33C-28.07 -1.25 -28.73 -1.22 -29.37 -1.22C-30.45 -1.22 -31.43 -1.3 -32.3 -1.47C-33.17 -1.64 -33.91 -1.89 -34.52 -2.23C-35.13 -2.56 -35.59 -2.97 -35.92 -3.47C-36.24 -3.96 -36.4 -4.53 -36.4 -5.16C-36.4 -5.95 -36.07 -6.65 -35.41 -7.27C-34.75 -7.89 -33.71 -8.43 -32.28 -8.89C-30.86 -9.35 -29.03 -9.75 -26.8 -10.07C-24.56 -10.38 -21.86 -10.63 -18.69 -10.81Z M-8.54 -6.89L-8.54 -19.93L-10.36 -19.93L-10.36 -6.54C-10.36 -5.41 -10.23 -4.43 -9.99 -3.61C-9.75 -2.79 -9.32 -2.11 -8.71 -1.57C-8.1 -1.04 -7.27 -0.64 -6.23 -0.38C-5.19 -0.13 -3.87 0 -2.28 0L7.09 0L7.09 -1.75L-1.91 -1.75C-3.36 -1.75 -4.53 -1.85 -5.4 -2.05C-6.28 -2.25 -6.95 -2.56 -7.41 -2.97C-7.88 -3.39 -8.18 -3.92 -8.32 -4.57C-8.47 -5.22 -8.54 -5.99 -8.54 -6.89Z M9.76 -9.06L21.04 -9.06L21.04 -10.85L9.76 -10.85Z M42.87 -16.98L42.87 -19.07C42.24 -19.24 41.62 -19.39 41.01 -19.54C40.39 -19.68 39.77 -19.81 39.12 -19.92C38.48 -20.03 37.81 -20.12 37.12 -20.19C36.43 -20.26 35.7 -20.29 34.92 -20.29C34.22 -20.29 33.5 -20.26 32.78 -20.19C32.05 -20.12 31.35 -20.01 30.68 -19.86C30.01 -19.71 29.38 -19.51 28.79 -19.25C28.2 -19 27.68 -18.68 27.24 -18.3C26.8 -17.93 26.46 -17.48 26.21 -16.96C25.96 -16.44 25.83 -15.85 25.83 -15.19C25.83 -14.51 25.99 -13.91 26.3 -13.4C26.62 -12.89 27.04 -12.44 27.58 -12.05C28.11 -11.65 28.74 -11.31 29.46 -11.02C30.18 -10.73 30.95 -10.47 31.75 -10.24C32.55 -10.01 33.38 -9.79 34.24 -9.59C35.09 -9.4 35.92 -9.19 36.72 -8.98C37.53 -8.78 38.29 -8.55 39.01 -8.31C39.73 -8.07 40.36 -7.79 40.89 -7.48C41.43 -7.16 41.85 -6.8 42.17 -6.38C42.48 -5.97 42.64 -5.48 42.64 -4.93C42.64 -4.24 42.44 -3.66 42.05 -3.19C41.66 -2.72 41.11 -2.33 40.41 -2.04C39.7 -1.74 38.86 -1.53 37.9 -1.39C36.93 -1.26 35.88 -1.19 34.74 -1.19C33.12 -1.19 31.58 -1.33 30.12 -1.62C28.65 -1.91 27.26 -2.45 25.95 -3.23L25.95 -1.02C27.22 -0.58 28.56 -0.24 29.97 0.01C31.38 0.27 32.95 0.39 34.68 0.39C35.43 0.39 36.2 0.36 36.98 0.3C37.75 0.23 38.51 0.13 39.24 -0.03C39.97 -0.18 40.66 -0.39 41.3 -0.66C41.94 -0.93 42.5 -1.26 42.98 -1.66C43.46 -2.06 43.84 -2.54 44.12 -3.1C44.4 -3.65 44.54 -4.3 44.54 -5.05C44.54 -5.73 44.38 -6.34 44.07 -6.86C43.75 -7.38 43.33 -7.85 42.79 -8.25C42.26 -8.66 41.63 -9.01 40.91 -9.32C40.19 -9.62 39.42 -9.9 38.62 -10.15C37.81 -10.39 36.98 -10.62 36.12 -10.83C35.27 -11.05 34.43 -11.26 33.63 -11.46C32.82 -11.67 32.06 -11.9 31.33 -12.13C30.61 -12.37 29.99 -12.63 29.45 -12.92C28.91 -13.21 28.49 -13.55 28.17 -13.92C27.86 -14.3 27.7 -14.74 27.7 -15.24C27.7 -15.84 27.87 -16.36 28.2 -16.79C28.54 -17.23 29.02 -17.59 29.65 -17.88C30.29 -18.16 31.06 -18.37 31.97 -18.51C32.89 -18.64 33.93 -18.71 35.1 -18.71C36.07 -18.71 36.95 -18.65 37.74 -18.54C38.53 -18.43 39.24 -18.29 39.88 -18.13C40.51 -17.96 41.07 -17.78 41.57 -17.57C42.06 -17.36 42.5 -17.17 42.87 -16.98Z M69.59 -13.81C69.59 -14.8 69.43 -15.68 69.1 -16.45C68.78 -17.21 68.27 -17.85 67.57 -18.36C66.88 -18.87 65.98 -19.26 64.88 -19.53C63.78 -19.79 62.46 -19.93 60.91 -19.93L50.15 -19.93L50.15 0L51.97 0L51.97 -7.66L60.91 -7.66C62.46 -7.66 63.78 -7.79 64.88 -8.06C65.98 -8.32 66.88 -8.72 67.57 -9.24C68.27 -9.76 68.78 -10.4 69.1 -11.17C69.43 -11.93 69.59 -12.81 69.59 -13.81ZM67.72 -13.81C67.72 -13 67.59 -12.32 67.35 -11.79C67.1 -11.26 66.77 -10.83 66.36 -10.5C65.95 -10.17 65.48 -9.93 64.94 -9.77C64.4 -9.61 63.84 -9.5 63.25 -9.43C62.66 -9.37 62.06 -9.34 61.46 -9.35C60.85 -9.35 60.29 -9.35 59.75 -9.35L51.97 -9.35L51.97 -18.23L59.75 -18.23C61.13 -18.23 62.31 -18.18 63.31 -18.07C64.32 -17.96 65.14 -17.75 65.79 -17.44C66.45 -17.13 66.93 -16.68 67.25 -16.1C67.56 -15.52 67.72 -14.75 67.72 -13.81Z M92.52 0L94.32 0L94.32 -13.52C94.32 -14.75 94.05 -15.79 93.52 -16.64C92.99 -17.5 92.26 -18.2 91.33 -18.74C90.4 -19.28 89.31 -19.67 88.05 -19.92C86.79 -20.17 85.44 -20.29 83.99 -20.29C82.28 -20.29 80.66 -20.16 79.14 -19.89C77.62 -19.63 76.18 -19.31 74.84 -18.96L74.84 -16.84C75.49 -17.09 76.13 -17.33 76.77 -17.55C77.4 -17.77 78.07 -17.97 78.77 -18.14C79.46 -18.31 80.21 -18.44 81.02 -18.54C81.82 -18.63 82.71 -18.68 83.68 -18.68C84.41 -18.68 85.13 -18.65 85.85 -18.59C86.57 -18.52 87.26 -18.42 87.91 -18.27C88.57 -18.13 89.17 -17.94 89.73 -17.7C90.29 -17.46 90.78 -17.17 91.2 -16.82C91.61 -16.46 91.94 -16.05 92.17 -15.58C92.4 -15.1 92.52 -14.56 92.52 -13.94L92.52 -12.41C90.65 -12.31 88.87 -12.18 87.19 -12.02C85.5 -11.86 83.93 -11.65 82.48 -11.41C81.03 -11.16 79.72 -10.86 78.54 -10.51C77.37 -10.15 76.37 -9.72 75.53 -9.22C74.7 -8.71 74.06 -8.11 73.61 -7.43C73.16 -6.75 72.94 -5.97 72.94 -5.08C72.94 -4.18 73.13 -3.39 73.52 -2.7C73.9 -2.02 74.46 -1.45 75.17 -0.99C75.89 -0.53 76.76 -0.19 77.79 0.04C78.82 0.28 79.98 0.39 81.28 0.39C82.27 0.39 83.29 0.33 84.32 0.2C85.36 0.08 86.37 -0.1 87.35 -0.33C88.33 -0.57 89.26 -0.84 90.15 -1.16C91.03 -1.48 91.82 -1.83 92.52 -2.2ZM92.52 -10.81L92.52 -4.1C92.19 -3.85 91.78 -3.61 91.31 -3.36C90.83 -3.12 90.3 -2.9 89.72 -2.68C89.14 -2.47 88.52 -2.27 87.86 -2.1C87.2 -1.92 86.54 -1.76 85.86 -1.63C85.18 -1.5 84.5 -1.4 83.82 -1.33C83.14 -1.25 82.48 -1.22 81.84 -1.22C80.76 -1.22 79.78 -1.3 78.91 -1.47C78.04 -1.64 77.3 -1.89 76.69 -2.23C76.08 -2.56 75.62 -2.97 75.29 -3.47C74.97 -3.96 74.81 -4.53 74.81 -5.16C74.81 -5.95 75.14 -6.65 75.8 -7.27C76.46 -7.89 77.51 -8.43 78.93 -8.89C80.35 -9.35 82.18 -9.75 84.42 -10.07C86.66 -10.38 89.36 -10.63 92.52 -10.81Z M117.52 -19.93L115.08 -19.93L107.99 -1.45L100.62 -19.93L98.61 -19.93L106.63 0L109.33 0L116.3 -18L123.29 0L125.99 0L134.01 -19.93L132 -19.93L124.63 -1.45Z"></path></g><rect id="SvgjsRect19722" width="264.5058169097751" height="0.9853809816703614" fill="#242424" transform="translate(113.39439496813125, 342.0667556680154) scale(1)" light-content="false"></rect><g id="SvgjsG19723" class="text" transform="translate(229.0770538345049, 298.7386428513309) scale(1)" light-content="false" fill="#fffffe"><path d="M-156.04 -5.07C-155.87 -5.07 -155.69 -5.16 -155.5 -5.34C-155.31 -5.52 -155.21 -5.67 -155.21 -5.8C-155.21 -6.23 -155.43 -6.88 -155.86 -7.74C-156.29 -8.59 -156.66 -9.02 -156.98 -9.02C-157.3 -9.02 -157.61 -8.83 -157.92 -8.46C-158.22 -8.08 -158.37 -7.71 -158.37 -7.32C-158.37 -6.94 -158.1 -6.47 -157.55 -5.91C-156.99 -5.35 -156.49 -5.07 -156.04 -5.07Z M-148.91 -15.31C-149.19 -15.31 -149.33 -15.17 -149.33 -14.9C-149.33 -14.63 -149.2 -14.35 -148.93 -14.05C-148.66 -13.76 -148.3 -13.52 -147.84 -13.33C-147.92 -12.4 -148.36 -10.46 -149.18 -7.51C-150 -4.57 -150.41 -2.86 -150.41 -2.39C-150.41 -1.91 -150.24 -1.45 -149.89 -0.99C-149.55 -0.53 -149.24 -0.3 -148.97 -0.3C-147.94 -0.3 -146.63 -0.71 -145.06 -1.54C-143.49 -2.37 -142.11 -3.36 -140.91 -4.53C-139.72 -5.7 -139.12 -6.72 -139.12 -7.58C-139.12 -8.89 -139.66 -10.16 -140.75 -11.39C-141.84 -12.61 -143.14 -13.57 -144.65 -14.27C-146.16 -14.96 -147.58 -15.31 -148.91 -15.31ZM-141.07 -7.81C-141.07 -7.33 -141.47 -6.67 -142.27 -5.84C-143.07 -5 -144.08 -4.22 -145.29 -3.49C-146.5 -2.76 -147.59 -2.34 -148.57 -2.21C-148.4 -3.33 -148.18 -4.35 -147.91 -5.29C-147.26 -7.51 -146.81 -9.09 -146.56 -10.04C-146.31 -10.99 -146.19 -11.64 -146.19 -11.98C-146.19 -12.33 -146.22 -12.63 -146.29 -12.89C-144.91 -12.43 -143.69 -11.69 -142.64 -10.67C-141.6 -9.64 -141.07 -8.69 -141.07 -7.81Z M-134.05 -10.62C-134.67 -10.48 -134.98 -10.27 -134.98 -10C-134.98 -9.79 -134.85 -9.53 -134.59 -9.23C-134.33 -8.94 -134.08 -8.79 -133.84 -8.79C-133.61 -8.79 -133.23 -8.83 -132.71 -8.91C-132.19 -8.98 -131.75 -9.02 -131.39 -9.02C-129.95 -9.02 -129.23 -8.89 -129.23 -8.62C-129.23 -8.22 -130.37 -7.23 -132.65 -5.65C-133.49 -5.07 -134.28 -4.45 -134.99 -3.81C-135.71 -3.17 -136.06 -2.65 -136.06 -2.27C-136.06 -1.89 -135.81 -1.47 -135.3 -1.01C-134.79 -0.55 -134.23 -0.32 -133.62 -0.32C-132.31 -0.32 -130.94 -0.47 -129.52 -0.79C-128.11 -1.1 -127.4 -1.48 -127.4 -1.93C-127.4 -2.26 -127.68 -2.42 -128.23 -2.42C-128.46 -2.42 -129.16 -2.36 -130.33 -2.25C-131.51 -2.14 -132.5 -2.08 -133.3 -2.08C-133.67 -2.08 -133.86 -2.2 -133.86 -2.44C-133.86 -2.61 -133.53 -2.94 -132.87 -3.44C-132.21 -3.93 -131.49 -4.45 -130.71 -4.99C-129.93 -5.53 -129.22 -6.14 -128.56 -6.84C-127.9 -7.53 -127.57 -8.14 -127.57 -8.68C-127.57 -8.94 -127.7 -9.26 -127.96 -9.65C-128.23 -10.04 -128.51 -10.3 -128.82 -10.42C-129.52 -10.71 -130.41 -10.85 -131.49 -10.85C-132.57 -10.85 -133.42 -10.77 -134.05 -10.62Z M-120.78 -14.67C-121 -14.41 -121.12 -14.14 -121.12 -13.86C-121.12 -13.58 -120.91 -13.23 -120.49 -12.82C-120.07 -12.41 -119.7 -12.21 -119.36 -12.21C-119.21 -12.21 -119.08 -12.26 -118.95 -12.38C-118.83 -12.49 -118.76 -12.62 -118.76 -12.76C-118.76 -13.14 -118.92 -13.62 -119.25 -14.19C-119.58 -14.76 -119.86 -15.05 -120.09 -15.05C-120.32 -15.05 -120.55 -14.92 -120.78 -14.67ZM-121.22 -10.85C-121.44 -10.85 -121.64 -10.5 -121.84 -9.81C-121.94 -9.44 -122.03 -9.07 -122.11 -8.71C-122.18 -8.35 -122.29 -7.88 -122.41 -7.29C-122.54 -6.7 -122.66 -6.18 -122.78 -5.71C-122.9 -5.24 -123.07 -4.64 -123.27 -3.9C-123.48 -3.15 -123.63 -2.56 -123.74 -2.11C-123.85 -1.67 -123.9 -1.34 -123.9 -1.14C-123.9 -0.93 -123.83 -0.75 -123.69 -0.58C-123.55 -0.42 -123.38 -0.34 -123.18 -0.34C-122.81 -0.34 -122.5 -0.69 -122.26 -1.4C-121.64 -3.33 -121.13 -5.06 -120.71 -6.61C-120.3 -8.16 -120.1 -9.09 -120.1 -9.4C-120.1 -9.72 -120.22 -10.03 -120.46 -10.36C-120.7 -10.68 -120.96 -10.85 -121.22 -10.85Z M-109.08 -9.88C-109.62 -10.53 -110.21 -10.85 -110.84 -10.85C-111.72 -10.85 -112.65 -10.36 -113.65 -9.38C-114.64 -8.41 -115.44 -7.29 -116.07 -6.04C-116.69 -4.79 -117 -3.74 -117 -2.89C-117 -2.29 -116.68 -1.72 -116.05 -1.16C-115.43 -0.6 -114.78 -0.32 -114.13 -0.32C-113.06 -0.32 -111.89 -1.12 -110.63 -2.72C-110.6 -2.01 -110.51 -1.43 -110.34 -0.99C-110.18 -0.54 -109.97 -0.32 -109.72 -0.32C-109.52 -0.32 -109.39 -0.5 -109.34 -0.85C-109.29 -1.02 -109.26 -1.19 -109.23 -1.37C-109.2 -1.55 -109.17 -1.78 -109.13 -2.08C-109.1 -2.38 -108.99 -3.01 -108.82 -3.97C-108.64 -4.93 -108.55 -5.61 -108.55 -6.01C-108.55 -6.16 -108.64 -6.35 -108.81 -6.56C-108.45 -7.1 -108.27 -7.62 -108.27 -8.14C-108.27 -8.66 -108.54 -9.24 -109.08 -9.88ZM-109.87 -7.11L-109.87 -7.09C-110.07 -7.05 -110.19 -6.92 -110.23 -6.71C-110.55 -5.42 -111.13 -4.33 -111.97 -3.43C-112.8 -2.53 -113.55 -2.08 -114.22 -2.08C-114.49 -2.08 -114.72 -2.15 -114.92 -2.3C-115.12 -2.45 -115.22 -2.65 -115.22 -2.89C-115.22 -3.47 -114.96 -4.25 -114.45 -5.24C-113.94 -6.23 -113.32 -7.12 -112.58 -7.91C-111.85 -8.69 -111.2 -9.09 -110.65 -9.09C-110.13 -9.09 -109.87 -8.43 -109.87 -7.11Z M-99.36 -9.79C-98.99 -11.97 -98.81 -13.71 -98.81 -15.01C-98.81 -15.39 -98.98 -15.78 -99.33 -16.19C-99.67 -16.59 -99.95 -16.79 -100.17 -16.79C-100.45 -16.79 -100.59 -16.61 -100.59 -16.24C-100.59 -14.27 -100.83 -11.96 -101.31 -9.3C-103.12 -8.76 -104.03 -8.35 -104.03 -8.07C-104.03 -7.9 -103.9 -7.72 -103.65 -7.53C-103.39 -7.33 -103.17 -7.24 -102.98 -7.24C-102.79 -7.24 -102.35 -7.36 -101.65 -7.6C-101.88 -6.5 -102.28 -4.81 -102.86 -2.55C-102.99 -2.02 -103.05 -1.68 -103.05 -1.51C-103.05 -1.34 -102.92 -1.1 -102.65 -0.79C-102.38 -0.47 -102.15 -0.32 -101.95 -0.32C-101.67 -0.32 -101.17 -1.76 -100.46 -4.65C-100.19 -5.65 -99.91 -6.88 -99.61 -8.34C-98.51 -8.74 -97.76 -9.04 -97.35 -9.23C-96.95 -9.43 -96.75 -9.64 -96.75 -9.85C-96.75 -10.06 -96.91 -10.17 -97.24 -10.17C-97.56 -10.17 -98.27 -10.04 -99.36 -9.79Z M-86.86 -9.88C-87.39 -10.53 -87.98 -10.85 -88.62 -10.85C-89.49 -10.85 -90.43 -10.36 -91.42 -9.38C-92.41 -8.41 -93.22 -7.29 -93.84 -6.04C-94.46 -4.79 -94.77 -3.74 -94.77 -2.89C-94.77 -2.29 -94.46 -1.72 -93.83 -1.16C-93.2 -0.6 -92.56 -0.32 -91.91 -0.32C-90.83 -0.32 -89.66 -1.12 -88.41 -2.72C-88.38 -2.01 -88.28 -1.43 -88.12 -0.99C-87.96 -0.54 -87.75 -0.32 -87.49 -0.32C-87.29 -0.32 -87.17 -0.5 -87.11 -0.85C-87.07 -1.02 -87.03 -1.19 -87 -1.37C-86.98 -1.55 -86.94 -1.78 -86.91 -2.08C-86.87 -2.38 -86.77 -3.01 -86.59 -3.97C-86.41 -4.93 -86.32 -5.61 -86.32 -6.01C-86.32 -6.16 -86.41 -6.35 -86.58 -6.56C-86.23 -7.1 -86.05 -7.62 -86.05 -8.14C-86.05 -8.66 -86.32 -9.24 -86.86 -9.88ZM-87.64 -7.11L-87.64 -7.09C-87.84 -7.05 -87.96 -6.92 -88 -6.71C-88.33 -5.42 -88.91 -4.33 -89.74 -3.43C-90.58 -2.53 -91.33 -2.08 -91.99 -2.08C-92.26 -2.08 -92.5 -2.15 -92.69 -2.3C-92.89 -2.45 -92.99 -2.65 -92.99 -2.89C-92.99 -3.47 -92.74 -4.25 -92.23 -5.24C-91.72 -6.23 -91.09 -7.12 -90.36 -7.91C-89.62 -8.69 -88.98 -9.09 -88.43 -9.09C-87.9 -9.09 -87.64 -8.43 -87.64 -7.11Z M-68.28 -10.85C-69.64 -10.85 -71.15 -9.23 -72.82 -5.99C-72.65 -6.86 -72.57 -7.6 -72.57 -8.19C-72.57 -8.79 -72.81 -9.38 -73.28 -9.97C-73.75 -10.55 -74.16 -10.85 -74.5 -10.85C-75.07 -10.85 -75.63 -10.54 -76.18 -9.93C-76.47 -9.59 -76.83 -9.15 -77.24 -8.6C-77.65 -8.05 -78.65 -6.28 -80.23 -3.31C-79.3 -6.17 -78.83 -8.22 -78.83 -9.47C-78.83 -9.79 -78.98 -10.12 -79.29 -10.44C-79.59 -10.77 -79.9 -10.93 -80.21 -10.93C-80.41 -10.93 -80.53 -10.69 -80.57 -10.2C-80.61 -9.71 -80.68 -8.94 -80.77 -7.89C-80.87 -6.83 -81 -6 -81.18 -5.4C-81.35 -4.8 -81.51 -4.28 -81.64 -3.83C-81.78 -3.39 -81.88 -3.05 -81.94 -2.82C-82 -2.6 -82.06 -2.36 -82.12 -2.12C-82.18 -1.88 -82.21 -1.68 -82.21 -1.52C-82.21 -1.36 -82.06 -1.11 -81.78 -0.8C-81.5 -0.48 -81.27 -0.32 -81.09 -0.32C-80.92 -0.32 -80.64 -0.58 -80.25 -1.1C-80.07 -1.37 -79.9 -1.62 -79.75 -1.85C-79.61 -2.07 -79.4 -2.4 -79.13 -2.81C-78.86 -3.23 -78.62 -3.6 -78.42 -3.92C-78.21 -4.23 -77.91 -4.72 -77.5 -5.38C-77.1 -6.04 -76.8 -6.52 -76.6 -6.84C-76.4 -7.15 -76.18 -7.48 -75.92 -7.82C-75.67 -8.17 -75.46 -8.41 -75.29 -8.54C-75.12 -8.68 -74.95 -8.75 -74.8 -8.75C-74.64 -8.75 -74.5 -8.64 -74.37 -8.44C-74.25 -8.23 -74.18 -7.98 -74.18 -7.68C-74.18 -6.1 -74.55 -4.39 -75.29 -2.55C-75.54 -1.92 -75.67 -1.51 -75.67 -1.32C-75.67 -1.12 -75.56 -0.91 -75.35 -0.68C-75.14 -0.45 -74.94 -0.34 -74.77 -0.34C-74.59 -0.34 -74.38 -0.52 -74.14 -0.88C-73.9 -1.24 -73.62 -1.74 -73.3 -2.38C-72.98 -3.01 -72.78 -3.4 -72.71 -3.52C-72.63 -3.65 -72.56 -3.77 -72.49 -3.88C-72.43 -4 -72.38 -4.09 -72.34 -4.15C-72.29 -4.21 -72.01 -4.68 -71.49 -5.56C-70.96 -6.44 -70.47 -7.19 -70.01 -7.81C-69.55 -8.43 -69.14 -8.75 -68.79 -8.75C-68.51 -8.75 -68.37 -8.3 -68.37 -7.4C-68.37 -6.5 -68.61 -5.29 -69.1 -3.77C-69.59 -2.25 -69.83 -1.29 -69.83 -0.9C-69.83 -0.51 -69.68 -0.32 -69.38 -0.32C-68.96 -0.32 -68.53 -0.81 -68.09 -1.8C-67.65 -2.8 -67.3 -3.88 -67.04 -5.07C-66.78 -6.26 -66.65 -7.23 -66.65 -7.97C-66.65 -8.71 -66.81 -9.38 -67.15 -9.97C-67.48 -10.55 -67.86 -10.85 -68.28 -10.85Z M-53.79 -10.35C-54.05 -10.68 -54.3 -10.85 -54.53 -10.85C-54.75 -10.85 -54.89 -10.77 -54.95 -10.61C-55.49 -8.99 -56 -7.65 -56.5 -6.6C-57.09 -5.36 -57.74 -4.28 -58.45 -3.38C-59.16 -2.47 -59.77 -2.02 -60.28 -2.02C-60.48 -2.02 -60.65 -2.09 -60.79 -2.24C-60.93 -2.39 -61 -2.58 -61 -2.8C-61 -4.1 -60.43 -5.93 -59.28 -8.28C-58.91 -9.04 -58.73 -9.55 -58.73 -9.79C-58.73 -10.03 -58.84 -10.26 -59.06 -10.5C-59.28 -10.73 -59.51 -10.85 -59.77 -10.85C-60.08 -10.85 -60.48 -10.38 -60.98 -9.45C-61.47 -8.51 -61.91 -7.41 -62.27 -6.13C-62.64 -4.86 -62.83 -3.85 -62.83 -3.1C-62.83 -2.35 -62.57 -1.7 -62.07 -1.15C-61.57 -0.59 -61.02 -0.32 -60.43 -0.32C-59.45 -0.32 -58.46 -1 -57.45 -2.38C-57.5 -2.25 -57.54 -2.11 -57.59 -1.95C-57.64 -1.8 -57.68 -1.67 -57.72 -1.57C-57.76 -1.47 -57.93 -0.94 -58.25 0.03C-58.57 1 -58.91 1.87 -59.26 2.64C-59.61 3.41 -60.01 3.8 -60.45 3.8C-61.03 3.8 -61.73 3.33 -62.55 2.4C-62.83 2.09 -63.04 1.93 -63.16 1.93C-63.29 1.93 -63.44 2.05 -63.62 2.29C-63.8 2.53 -63.89 2.75 -63.89 2.95C-63.89 3.47 -63.52 3.98 -62.78 4.47C-62.05 4.96 -61.28 5.2 -60.47 5.2C-59.05 5.2 -57.99 4.19 -57.28 2.17C-56.96 1.25 -56.62 0.3 -56.28 -0.67C-55.93 -1.64 -55.65 -2.42 -55.45 -3C-55.24 -3.59 -54.85 -4.71 -54.27 -6.35C-53.69 -7.99 -53.4 -8.95 -53.4 -9.23C-53.4 -9.64 -53.53 -10.02 -53.79 -10.35Z M-38.35 -10.62C-38.97 -10.48 -39.28 -10.27 -39.28 -10C-39.28 -9.79 -39.15 -9.53 -38.89 -9.23C-38.63 -8.94 -38.38 -8.79 -38.15 -8.79C-37.91 -8.79 -37.54 -8.83 -37.01 -8.91C-36.49 -8.98 -36.05 -9.02 -35.7 -9.02C-34.25 -9.02 -33.53 -8.89 -33.53 -8.62C-33.53 -8.22 -34.67 -7.23 -36.95 -5.65C-37.8 -5.07 -38.58 -4.45 -39.29 -3.81C-40.01 -3.17 -40.37 -2.65 -40.37 -2.27C-40.37 -1.89 -40.11 -1.47 -39.6 -1.01C-39.09 -0.55 -38.53 -0.32 -37.92 -0.32C-36.61 -0.32 -35.24 -0.47 -33.83 -0.79C-32.41 -1.1 -31.7 -1.48 -31.7 -1.93C-31.7 -2.26 -31.98 -2.42 -32.53 -2.42C-32.76 -2.42 -33.46 -2.36 -34.63 -2.25C-35.81 -2.14 -36.8 -2.08 -37.61 -2.08C-37.97 -2.08 -38.16 -2.2 -38.16 -2.44C-38.16 -2.61 -37.83 -2.94 -37.17 -3.44C-36.51 -3.93 -35.79 -4.45 -35.02 -4.99C-34.24 -5.53 -33.52 -6.14 -32.86 -6.84C-32.2 -7.53 -31.87 -8.14 -31.87 -8.68C-31.87 -8.94 -32.01 -9.26 -32.27 -9.65C-32.53 -10.04 -32.82 -10.3 -33.13 -10.42C-33.82 -10.71 -34.71 -10.85 -35.79 -10.85C-36.87 -10.85 -37.73 -10.77 -38.35 -10.62Z M-8.25 -16.79C-8.56 -16.79 -8.71 -16.58 -8.71 -16.15C-8.79 -14.41 -9.18 -12.04 -9.9 -9.04C-10.3 -10.25 -11 -10.85 -12 -10.85C-13.01 -10.85 -13.96 -10.35 -14.85 -9.36C-15.74 -8.37 -16.42 -7.27 -16.9 -6.06C-17.37 -4.85 -17.61 -3.81 -17.61 -2.93C-17.61 -2.32 -17.36 -1.73 -16.86 -1.17C-16.35 -0.6 -15.79 -0.32 -15.17 -0.32C-14.13 -0.32 -12.92 -1.03 -11.54 -2.44C-11.64 -1.89 -11.69 -1.52 -11.69 -1.34C-11.69 -1.15 -11.57 -0.94 -11.34 -0.69C-11.1 -0.44 -10.89 -0.32 -10.69 -0.32C-10.36 -0.32 -9.69 -2.38 -8.67 -6.52C-8.2 -8.36 -7.79 -10.14 -7.44 -11.86C-7.09 -13.58 -6.91 -14.62 -6.91 -14.99C-6.91 -15.35 -7.08 -15.75 -7.41 -16.17C-7.74 -16.58 -8.02 -16.79 -8.25 -16.79ZM-10.58 -6.37L-10.58 -6.26L-10.65 -6.01C-11.07 -4.93 -11.75 -4 -12.69 -3.21C-13.64 -2.41 -14.38 -2.02 -14.93 -2.02C-15.19 -2.02 -15.41 -2.09 -15.59 -2.25C-15.78 -2.41 -15.87 -2.61 -15.87 -2.87C-15.87 -3.57 -15.68 -4.41 -15.31 -5.38C-14.93 -6.35 -14.42 -7.21 -13.79 -7.96C-13.15 -8.71 -12.53 -9.09 -11.92 -9.09C-11.55 -9.09 -11.24 -8.82 -10.98 -8.3C-10.71 -7.78 -10.58 -7.13 -10.58 -6.37Z M1.96 -7.24C1.96 -6.18 1.61 -5.05 0.89 -3.85C0.18 -2.66 -0.69 -1.96 -1.71 -1.76C-2.25 -2.03 -2.52 -2.71 -2.52 -3.8C-2.52 -4.89 -2.17 -6.05 -1.46 -7.29C-0.76 -8.53 0.07 -9.28 1.05 -9.55C1.35 -9.35 1.57 -9.04 1.73 -8.61C1.89 -8.18 1.96 -7.72 1.96 -7.24ZM-1.68 -9.78C-2.48 -9.06 -3.12 -8.15 -3.61 -7.05C-4.1 -5.94 -4.34 -4.88 -4.34 -3.85C-4.34 -2.83 -4.1 -1.98 -3.62 -1.32C-3.14 -0.65 -2.54 -0.32 -1.81 -0.32C-0.84 -0.32 0.08 -0.67 0.96 -1.37C1.83 -2.07 2.51 -2.95 3 -4.02C3.5 -5.09 3.75 -6.14 3.75 -7.16C3.75 -8.19 3.46 -9.06 2.9 -9.78C2.33 -10.49 1.63 -10.85 0.79 -10.85C-0.06 -10.85 -0.88 -10.49 -1.68 -9.78Z M13.53 -10.85C12.75 -10.85 11.77 -10.44 10.59 -9.63C9.41 -8.81 8.82 -8.03 8.82 -7.28C8.82 -6.86 9.03 -6.44 9.44 -6.03C9.85 -5.62 10.3 -5.27 10.78 -4.99C11.27 -4.71 11.72 -4.38 12.13 -4.02C12.54 -3.66 12.75 -3.32 12.75 -3C12.75 -2.69 12.56 -2.43 12.2 -2.24C11.83 -2.05 11.23 -1.95 10.4 -1.95C9.57 -1.95 8.78 -2.23 8.01 -2.78C7.76 -2.96 7.56 -3.06 7.42 -3.06C7.28 -3.06 7.16 -3 7.07 -2.9C6.98 -2.79 6.93 -2.65 6.93 -2.46C6.93 -2.02 7.32 -1.56 8.11 -1.06C8.89 -0.57 9.8 -0.32 10.83 -0.32C11.85 -0.32 12.75 -0.58 13.52 -1.11C14.29 -1.65 14.68 -2.19 14.68 -2.75C14.68 -3.31 14.48 -3.83 14.07 -4.32C13.67 -4.81 13.22 -5.21 12.73 -5.52C11.42 -6.31 10.77 -6.87 10.77 -7.2C10.77 -7.63 11.14 -8.05 11.87 -8.45C12.6 -8.84 13.13 -9.04 13.47 -9.04C13.81 -9.04 14.14 -8.92 14.47 -8.67C14.79 -8.42 15.03 -8.3 15.19 -8.3C15.42 -8.3 15.53 -8.42 15.53 -8.66C15.53 -9.06 15.32 -9.52 14.89 -10.05C14.47 -10.58 14.01 -10.85 13.53 -10.85ZM12.23 -12.11C12.33 -11.99 12.46 -11.93 12.61 -11.93C12.76 -11.93 13.02 -12.05 13.38 -12.29C13.47 -12.35 13.6 -12.45 13.79 -12.59C13.97 -12.73 14.15 -12.86 14.31 -12.97C14.47 -13.08 14.67 -13.21 14.91 -13.36C15.15 -13.51 15.33 -13.62 15.44 -13.69C15.56 -13.76 15.68 -13.85 15.82 -13.96C15.95 -14.06 16.04 -14.15 16.1 -14.21C16.16 -14.28 16.2 -14.35 16.24 -14.45C16.27 -14.54 16.29 -14.68 16.29 -14.87C16.29 -15.06 16.2 -15.29 16.01 -15.56C15.82 -15.83 15.62 -15.96 15.43 -15.96C15.24 -15.96 15.03 -15.86 14.79 -15.67C14.66 -15.55 14.54 -15.44 14.42 -15.33C14.31 -15.21 14.15 -15.06 13.95 -14.86C13.74 -14.66 13.47 -14.39 13.12 -14.05C12.77 -13.71 12.51 -13.43 12.33 -13.2C12.16 -12.98 12.07 -12.77 12.07 -12.58C12.07 -12.39 12.12 -12.23 12.23 -12.11Z M27.33 -8.6C27.33 -9.29 27.18 -9.85 26.87 -10.28C26.57 -10.72 26.19 -10.93 25.72 -10.93C25.41 -10.93 25.06 -10.5 24.69 -9.64C24.31 -8.77 23.83 -7.59 23.25 -6.07C22.66 -4.56 22.07 -3.3 21.49 -2.29C21.27 -3.52 21.14 -4.93 21.1 -6.51C21.07 -8.08 21.03 -9.05 20.98 -9.39C20.94 -9.74 20.79 -10.09 20.53 -10.44C20.27 -10.8 19.98 -10.97 19.67 -10.97C19.31 -10.97 19.14 -10.68 19.14 -10.1C19.14 -9.2 19.25 -7.69 19.47 -5.57C19.69 -3.46 19.95 -2.02 20.26 -1.27C20.39 -0.98 20.56 -0.74 20.78 -0.55C21 -0.37 21.21 -0.28 21.41 -0.28C21.85 -0.28 22.44 -0.96 23.19 -2.31C23.94 -3.67 24.81 -5.68 25.78 -8.34C25.71 -7.2 25.69 -5.84 25.72 -4.28C25.75 -2.71 25.88 -1.66 26.13 -1.1C26.38 -0.55 26.75 -0.28 27.25 -0.28C27.74 -0.28 28.44 -0.91 29.33 -2.18C30.22 -3.44 30.94 -4.84 31.49 -6.37C32.14 -8.02 32.47 -9.21 32.47 -9.93C32.47 -10.22 32.36 -10.47 32.15 -10.69C31.94 -10.91 31.7 -11.02 31.43 -11.02C31.24 -11.02 31.08 -10.83 30.94 -10.44C30.8 -10.06 30.65 -9.55 30.48 -8.91C30.32 -8.26 30.13 -7.57 29.91 -6.84C29.69 -6.1 29.36 -5.3 28.91 -4.45C28.47 -3.59 27.94 -2.84 27.33 -2.21C27.23 -2.7 27.18 -3.5 27.18 -4.61Z M38.43 -14.67C38.21 -14.41 38.09 -14.14 38.09 -13.86C38.09 -13.58 38.3 -13.23 38.72 -12.82C39.14 -12.41 39.52 -12.21 39.86 -12.21C40 -12.21 40.13 -12.26 40.26 -12.38C40.39 -12.49 40.45 -12.62 40.45 -12.76C40.45 -13.14 40.29 -13.62 39.96 -14.19C39.64 -14.76 39.36 -15.05 39.12 -15.05C38.89 -15.05 38.66 -14.92 38.43 -14.67ZM37.99 -10.85C37.78 -10.85 37.57 -10.5 37.37 -9.81C37.27 -9.44 37.18 -9.07 37.11 -8.71C37.03 -8.35 36.93 -7.88 36.8 -7.29C36.67 -6.7 36.55 -6.18 36.43 -5.71C36.31 -5.24 36.14 -4.64 35.94 -3.9C35.73 -3.15 35.58 -2.56 35.47 -2.11C35.37 -1.67 35.31 -1.34 35.31 -1.14C35.31 -0.93 35.38 -0.75 35.53 -0.58C35.67 -0.42 35.84 -0.34 36.04 -0.34C36.4 -0.34 36.71 -0.69 36.95 -1.4C37.57 -3.33 38.09 -5.06 38.5 -6.61C38.91 -8.16 39.11 -9.09 39.11 -9.4C39.11 -9.72 38.99 -10.03 38.75 -10.36C38.51 -10.68 38.26 -10.85 37.99 -10.85Z M50.13 -9.88C49.59 -10.53 49.01 -10.85 48.37 -10.85C47.49 -10.85 46.56 -10.36 45.57 -9.38C44.58 -8.41 43.77 -7.29 43.15 -6.04C42.52 -4.79 42.21 -3.74 42.21 -2.89C42.21 -2.29 42.53 -1.72 43.16 -1.16C43.79 -0.6 44.43 -0.32 45.08 -0.32C46.15 -0.32 47.32 -1.12 48.58 -2.72C48.61 -2.01 48.7 -1.43 48.87 -0.99C49.03 -0.54 49.24 -0.32 49.49 -0.32C49.69 -0.32 49.82 -0.5 49.88 -0.85C49.92 -1.02 49.95 -1.19 49.98 -1.37C50.01 -1.55 50.04 -1.78 50.08 -2.08C50.11 -2.38 50.22 -3.01 50.4 -3.97C50.57 -4.93 50.66 -5.61 50.66 -6.01C50.66 -6.16 50.58 -6.35 50.41 -6.56C50.76 -7.1 50.94 -7.62 50.94 -8.14C50.94 -8.66 50.67 -9.24 50.13 -9.88ZM49.35 -7.11L49.35 -7.09C49.15 -7.05 49.03 -6.92 48.98 -6.71C48.66 -5.42 48.08 -4.33 47.24 -3.43C46.41 -2.53 45.66 -2.08 44.99 -2.08C44.72 -2.08 44.49 -2.15 44.29 -2.3C44.09 -2.45 44 -2.65 44 -2.89C44 -3.47 44.25 -4.25 44.76 -5.24C45.27 -6.23 45.89 -7.12 46.63 -7.91C47.36 -8.69 48.01 -9.09 48.56 -9.09C49.08 -9.09 49.35 -8.43 49.35 -7.11Z M64.06 -16.79C63.74 -16.79 63.59 -16.58 63.59 -16.15C63.52 -14.41 63.12 -12.04 62.4 -9.04C62 -10.25 61.3 -10.85 60.3 -10.85C59.29 -10.85 58.35 -10.35 57.45 -9.36C56.56 -8.37 55.88 -7.27 55.41 -6.06C54.93 -4.85 54.69 -3.81 54.69 -2.93C54.69 -2.32 54.95 -1.73 55.45 -1.17C55.95 -0.6 56.51 -0.32 57.14 -0.32C58.17 -0.32 59.38 -1.03 60.77 -2.44C60.67 -1.89 60.62 -1.52 60.62 -1.34C60.62 -1.15 60.73 -0.94 60.97 -0.69C61.2 -0.44 61.42 -0.32 61.62 -0.32C61.94 -0.32 62.61 -2.38 63.63 -6.52C64.1 -8.36 64.51 -10.14 64.86 -11.86C65.22 -13.58 65.39 -14.62 65.39 -14.99C65.39 -15.35 65.23 -15.75 64.89 -16.17C64.56 -16.58 64.28 -16.79 64.06 -16.79ZM61.72 -6.37L61.72 -6.26L61.66 -6.01C61.23 -4.93 60.55 -4 59.61 -3.21C58.67 -2.41 57.92 -2.02 57.37 -2.02C57.11 -2.02 56.9 -2.09 56.71 -2.25C56.53 -2.41 56.44 -2.61 56.44 -2.87C56.44 -3.57 56.62 -4.41 57 -5.38C57.37 -6.35 57.88 -7.21 58.52 -7.96C59.15 -8.71 59.78 -9.09 60.38 -9.09C60.75 -9.09 61.07 -8.82 61.33 -8.3C61.59 -7.78 61.72 -7.13 61.72 -6.37Z M68.96 -1.28C69.68 -0.64 70.46 -0.32 71.28 -0.32C72.11 -0.32 73.02 -0.59 74 -1.14C74.99 -1.68 75.48 -2.16 75.48 -2.57C75.48 -2.84 75.34 -2.97 75.07 -2.97C74.92 -2.97 74.7 -2.9 74.42 -2.75C74.13 -2.6 73.73 -2.45 73.22 -2.3C72.7 -2.15 72.13 -2.08 71.52 -2.08C70.9 -2.08 70.46 -2.21 70.18 -2.46C69.9 -2.72 69.77 -3.06 69.77 -3.5C69.77 -4.51 70.28 -5.68 71.3 -7.03C72.31 -8.37 73.21 -9.04 73.97 -9.04C74.24 -9.04 74.54 -8.92 74.88 -8.66C75.22 -8.41 75.46 -8.28 75.59 -8.28C75.73 -8.28 75.83 -8.32 75.9 -8.4C75.97 -8.47 76.01 -8.57 76.01 -8.68C76.01 -9.08 75.79 -9.54 75.35 -10.06C74.91 -10.59 74.4 -10.85 73.82 -10.85C72.93 -10.85 72.01 -10.44 71.07 -9.62C70.13 -8.8 69.36 -7.8 68.77 -6.64C68.17 -5.48 67.88 -4.46 67.88 -3.58C67.88 -2.69 68.24 -1.93 68.96 -1.28Z M81.02 -10.62C80.4 -10.48 80.08 -10.27 80.08 -10C80.08 -9.79 80.21 -9.53 80.48 -9.23C80.74 -8.94 80.99 -8.79 81.22 -8.79C81.45 -8.79 81.83 -8.83 82.36 -8.91C82.88 -8.98 83.32 -9.02 83.67 -9.02C85.11 -9.02 85.84 -8.89 85.84 -8.62C85.84 -8.22 84.7 -7.23 82.42 -5.65C81.57 -5.07 80.79 -4.45 80.07 -3.81C79.36 -3.17 79 -2.65 79 -2.27C79 -1.89 79.26 -1.47 79.77 -1.01C80.27 -0.55 80.83 -0.32 81.44 -0.32C82.76 -0.32 84.12 -0.47 85.54 -0.79C86.95 -1.1 87.66 -1.48 87.66 -1.93C87.66 -2.26 87.39 -2.42 86.83 -2.42C86.61 -2.42 85.91 -2.36 84.73 -2.25C83.56 -2.14 82.57 -2.08 81.76 -2.08C81.39 -2.08 81.21 -2.2 81.21 -2.44C81.21 -2.61 81.54 -2.94 82.2 -3.44C82.85 -3.93 83.57 -4.45 84.35 -4.99C85.13 -5.53 85.85 -6.14 86.51 -6.84C87.16 -7.53 87.49 -8.14 87.49 -8.68C87.49 -8.94 87.36 -9.26 87.1 -9.65C86.84 -10.04 86.55 -10.3 86.24 -10.42C85.55 -10.71 84.66 -10.85 83.58 -10.85C82.49 -10.85 81.64 -10.77 81.02 -10.62Z M98.48 -5.49C99.29 -5.96 99.7 -6.58 99.7 -7.33C99.7 -8.09 99.36 -8.87 98.67 -9.66C97.98 -10.45 97.22 -10.85 96.39 -10.85C95.55 -10.85 94.71 -10.47 93.86 -9.72C93.01 -8.97 92.32 -8.05 91.78 -6.95C91.24 -5.86 90.97 -4.8 90.97 -3.8C90.97 -2.8 91.32 -1.96 92.01 -1.31C92.71 -0.65 93.61 -0.32 94.71 -0.32C95.53 -0.32 96.37 -0.54 97.24 -0.99C98.1 -1.43 98.53 -1.85 98.53 -2.23C98.53 -2.51 98.35 -2.65 97.98 -2.65C97.91 -2.65 97.5 -2.53 96.76 -2.28C96.02 -2.03 95.29 -1.91 94.59 -1.91C93.89 -1.91 93.39 -2.04 93.09 -2.31C92.78 -2.58 92.63 -2.96 92.63 -3.45C92.63 -3.94 92.73 -4.49 92.93 -5.12C93.76 -4.89 94.69 -4.78 95.72 -4.78C96.74 -4.78 97.66 -5.01 98.48 -5.49ZM96.49 -9.17C96.83 -9.17 97.18 -8.97 97.52 -8.58C97.87 -8.18 98.04 -7.79 98.04 -7.41C98.04 -7.03 97.77 -6.72 97.24 -6.49C96.7 -6.25 96.07 -6.13 95.35 -6.13C94.63 -6.13 93.98 -6.2 93.42 -6.33C93.81 -7.13 94.29 -7.81 94.86 -8.35C95.42 -8.9 95.97 -9.17 96.49 -9.17Z M108.48 -9.16C107.62 -8.03 106.51 -6.32 105.15 -4.01C105.47 -4.97 105.74 -6.01 105.97 -7.12C106.21 -8.23 106.32 -8.98 106.32 -9.37C106.32 -9.76 106.17 -10.12 105.85 -10.44C105.54 -10.77 105.23 -10.93 104.92 -10.93C104.67 -10.93 104.52 -10.42 104.48 -9.38C104.45 -7.84 104.27 -6.46 103.94 -5.25C103.62 -4.04 103.32 -3.03 103.05 -2.21C102.95 -1.9 102.9 -1.71 102.9 -1.63C102.9 -1.39 103.04 -1.11 103.31 -0.8C103.58 -0.48 103.81 -0.32 104.02 -0.32C104.22 -0.32 104.5 -0.58 104.86 -1.1C105.04 -1.37 105.21 -1.62 105.36 -1.85C105.5 -2.07 105.71 -2.39 105.96 -2.8C106.22 -3.21 106.42 -3.54 106.58 -3.78C106.73 -4.02 106.96 -4.37 107.26 -4.84C107.55 -5.31 107.78 -5.66 107.94 -5.91C108.09 -6.16 108.29 -6.46 108.52 -6.81C108.75 -7.17 108.95 -7.44 109.1 -7.63C109.26 -7.82 109.42 -8.02 109.6 -8.22C109.78 -8.41 109.94 -8.55 110.08 -8.64C110.22 -8.72 110.36 -8.77 110.49 -8.77C110.63 -8.77 110.76 -8.66 110.9 -8.45C111.03 -8.24 111.1 -7.91 111.1 -7.46C111.1 -7.02 110.97 -6.35 110.71 -5.47C110.44 -4.58 110.16 -3.68 109.86 -2.77C109.55 -1.86 109.4 -1.25 109.4 -0.96C109.4 -0.53 109.56 -0.32 109.87 -0.32C110.55 -0.32 111.31 -1.68 112.16 -4.39C112.63 -5.87 112.86 -7.11 112.86 -8.13C112.86 -8.78 112.62 -9.4 112.13 -9.98C111.64 -10.56 111.12 -10.85 110.58 -10.85C110.03 -10.85 109.33 -10.28 108.48 -9.16Z M119.74 -14.67C119.51 -14.41 119.4 -14.14 119.4 -13.86C119.4 -13.58 119.61 -13.23 120.02 -12.82C120.44 -12.41 120.82 -12.21 121.16 -12.21C121.3 -12.21 121.44 -12.26 121.56 -12.38C121.69 -12.49 121.75 -12.62 121.75 -12.76C121.75 -13.14 121.59 -13.62 121.27 -14.19C120.94 -14.76 120.66 -15.05 120.43 -15.05C120.19 -15.05 119.96 -14.92 119.74 -14.67ZM119.29 -10.85C119.08 -10.85 118.88 -10.5 118.68 -9.81C118.58 -9.44 118.49 -9.07 118.41 -8.71C118.33 -8.35 118.23 -7.88 118.1 -7.29C117.98 -6.7 117.85 -6.18 117.73 -5.71C117.61 -5.24 117.45 -4.64 117.24 -3.9C117.04 -3.15 116.88 -2.56 116.78 -2.11C116.67 -1.67 116.62 -1.34 116.62 -1.14C116.62 -0.93 116.69 -0.75 116.83 -0.58C116.97 -0.42 117.14 -0.34 117.34 -0.34C117.71 -0.34 118.01 -0.69 118.25 -1.4C118.88 -3.33 119.39 -5.06 119.8 -6.61C120.21 -8.16 120.42 -9.09 120.42 -9.4C120.42 -9.72 120.3 -10.03 120.06 -10.36C119.82 -10.68 119.56 -10.85 119.29 -10.85Z M131.28 -5.49C132.09 -5.96 132.5 -6.58 132.5 -7.33C132.5 -8.09 132.15 -8.87 131.47 -9.66C130.78 -10.45 130.02 -10.85 129.18 -10.85C128.35 -10.85 127.51 -10.47 126.66 -9.72C125.81 -8.97 125.12 -8.05 124.58 -6.95C124.04 -5.86 123.77 -4.8 123.77 -3.8C123.77 -2.8 124.12 -1.96 124.81 -1.31C125.51 -0.65 126.4 -0.32 127.51 -0.32C128.33 -0.32 129.17 -0.54 130.03 -0.99C130.9 -1.43 131.33 -1.85 131.33 -2.23C131.33 -2.51 131.14 -2.65 130.78 -2.65C130.71 -2.65 130.3 -2.53 129.56 -2.28C128.81 -2.03 128.09 -1.91 127.39 -1.91C126.69 -1.91 126.19 -2.04 125.88 -2.31C125.58 -2.58 125.43 -2.96 125.43 -3.45C125.43 -3.94 125.53 -4.49 125.72 -5.12C126.56 -4.89 127.49 -4.78 128.52 -4.78C129.54 -4.78 130.46 -5.01 131.28 -5.49ZM129.29 -9.17C129.63 -9.17 129.97 -8.97 130.32 -8.58C130.67 -8.18 130.84 -7.79 130.84 -7.41C130.84 -7.03 130.57 -6.72 130.03 -6.49C129.5 -6.25 128.87 -6.13 128.14 -6.13C127.42 -6.13 126.78 -6.2 126.21 -6.33C126.61 -7.13 127.09 -7.81 127.66 -8.35C128.22 -8.9 128.77 -9.17 129.29 -9.17Z M149.61 -10.85C148.25 -10.85 146.73 -9.23 145.06 -5.99C145.23 -6.86 145.32 -7.6 145.32 -8.19C145.32 -8.79 145.08 -9.38 144.61 -9.97C144.13 -10.55 143.73 -10.85 143.39 -10.85C142.82 -10.85 142.26 -10.54 141.71 -9.93C141.41 -9.59 141.06 -9.15 140.65 -8.6C140.24 -8.05 139.24 -6.28 137.66 -3.31C138.59 -6.17 139.06 -8.22 139.06 -9.47C139.06 -9.79 138.9 -10.12 138.6 -10.44C138.3 -10.77 137.99 -10.93 137.68 -10.93C137.48 -10.93 137.36 -10.69 137.32 -10.2C137.27 -9.71 137.21 -8.94 137.11 -7.89C137.02 -6.83 136.89 -6 136.71 -5.4C136.53 -4.8 136.38 -4.28 136.24 -3.83C136.11 -3.39 136.01 -3.05 135.95 -2.82C135.88 -2.6 135.82 -2.36 135.77 -2.12C135.71 -1.88 135.68 -1.68 135.68 -1.52C135.68 -1.36 135.82 -1.11 136.11 -0.8C136.39 -0.48 136.62 -0.32 136.8 -0.32C136.97 -0.32 137.25 -0.58 137.63 -1.1C137.82 -1.37 137.98 -1.62 138.13 -1.85C138.28 -2.07 138.49 -2.4 138.76 -2.81C139.03 -3.23 139.26 -3.6 139.47 -3.92C139.68 -4.23 139.98 -4.72 140.38 -5.38C140.79 -6.04 141.09 -6.52 141.29 -6.84C141.48 -7.15 141.71 -7.48 141.96 -7.82C142.22 -8.17 142.43 -8.41 142.6 -8.54C142.77 -8.68 142.93 -8.75 143.09 -8.75C143.25 -8.75 143.39 -8.64 143.51 -8.44C143.64 -8.23 143.71 -7.98 143.71 -7.68C143.71 -6.1 143.34 -4.39 142.6 -2.55C142.35 -1.92 142.22 -1.51 142.22 -1.32C142.22 -1.12 142.33 -0.91 142.54 -0.68C142.75 -0.45 142.94 -0.34 143.12 -0.34C143.3 -0.34 143.51 -0.52 143.75 -0.88C143.99 -1.24 144.27 -1.74 144.59 -2.38C144.9 -3.01 145.1 -3.4 145.18 -3.52C145.26 -3.65 145.33 -3.77 145.39 -3.88C145.46 -4 145.51 -4.09 145.55 -4.15C145.59 -4.21 145.88 -4.68 146.4 -5.56C146.92 -6.44 147.42 -7.19 147.88 -7.81C148.34 -8.43 148.74 -8.75 149.1 -8.75C149.38 -8.75 149.52 -8.3 149.52 -7.4C149.52 -6.5 149.28 -5.29 148.79 -3.77C148.3 -2.25 148.06 -1.29 148.06 -0.9C148.06 -0.51 148.21 -0.32 148.5 -0.32C148.93 -0.32 149.36 -0.81 149.8 -1.8C150.24 -2.8 150.59 -3.88 150.85 -5.07C151.11 -6.26 151.24 -7.23 151.24 -7.97C151.24 -8.71 151.07 -9.38 150.74 -9.97C150.41 -10.55 150.03 -10.85 149.61 -10.85Z M157.8 -5.07C157.97 -5.07 158.15 -5.16 158.34 -5.34C158.53 -5.52 158.63 -5.67 158.63 -5.8C158.63 -6.23 158.41 -6.88 157.98 -7.74C157.55 -8.59 157.17 -9.02 156.86 -9.02C156.54 -9.02 156.23 -8.83 155.92 -8.46C155.62 -8.08 155.47 -7.71 155.47 -7.32C155.47 -6.94 155.74 -6.47 156.29 -5.91C156.85 -5.35 157.35 -5.07 157.8 -5.07Z"></path></g><g id="SvgjsG19724" class="text" transform="translate(233.2501898403956, 361.0121366496857) scale(1)" light-content="false" fill="#fff5f5"><path d="M-106.63 -5.43C-106.45 -5.43 -106.26 -5.52 -106.06 -5.71C-105.85 -5.9 -105.75 -6.06 -105.75 -6.2C-105.75 -6.67 -105.98 -7.36 -106.44 -8.28C-106.9 -9.19 -107.3 -9.65 -107.64 -9.65C-107.98 -9.65 -108.32 -9.45 -108.64 -9.05C-108.97 -8.65 -109.13 -8.24 -109.13 -7.83C-109.13 -7.42 -108.84 -6.92 -108.25 -6.32C-107.66 -5.72 -107.12 -5.43 -106.63 -5.43Z M-96.17 -14.35C-96.3 -12.91 -96.78 -10.58 -97.6 -7.34C-98.42 -4.11 -98.82 -2.32 -98.82 -1.98C-98.82 -1.63 -98.68 -1.28 -98.4 -0.94C-98.12 -0.6 -97.87 -0.43 -97.64 -0.43C-97.48 -0.43 -97.29 -0.83 -97.08 -1.63C-96.96 -2.04 -96.77 -2.76 -96.53 -3.79C-96.29 -4.82 -96.11 -5.58 -95.99 -6.06C-94.81 -10.71 -94.22 -13.31 -94.22 -13.87C-94.22 -14.05 -94.24 -14.22 -94.28 -14.37C-93.47 -14.36 -92.61 -14.32 -91.72 -14.26C-90.83 -14.2 -90.13 -14.17 -89.63 -14.17C-89.13 -14.17 -88.88 -14.31 -88.88 -14.6C-88.88 -15.01 -89.38 -15.38 -90.37 -15.71C-91.36 -16.04 -92.62 -16.21 -94.15 -16.21C-97.1 -16.21 -99.01 -16.17 -99.88 -16.1C-100.75 -16.02 -101.19 -15.85 -101.19 -15.57C-101.19 -15.27 -101.06 -14.96 -100.8 -14.64C-100.54 -14.33 -100.29 -14.17 -100.05 -14.17Z M-78.37 -9.19C-78.37 -9.94 -78.53 -10.54 -78.86 -11C-79.18 -11.46 -79.6 -11.69 -80.09 -11.69C-80.43 -11.69 -80.79 -11.23 -81.2 -10.31C-81.6 -9.38 -82.11 -8.11 -82.74 -6.49C-83.37 -4.87 -83.99 -3.53 -84.61 -2.45C-84.85 -3.77 -84.99 -5.27 -85.03 -6.96C-85.07 -8.65 -85.11 -9.68 -85.16 -10.05C-85.2 -10.42 -85.37 -10.79 -85.65 -11.17C-85.93 -11.55 -86.23 -11.74 -86.56 -11.74C-86.94 -11.74 -87.13 -11.43 -87.13 -10.81C-87.13 -9.84 -87.02 -8.22 -86.78 -5.96C-86.55 -3.7 -86.26 -2.16 -85.93 -1.36C-85.79 -1.04 -85.61 -0.79 -85.37 -0.59C-85.14 -0.39 -84.92 -0.3 -84.7 -0.3C-84.23 -0.3 -83.6 -1.02 -82.8 -2.47C-81.99 -3.93 -81.07 -6.08 -80.03 -8.92C-80.1 -7.7 -80.12 -6.25 -80.09 -4.57C-80.06 -2.9 -79.92 -1.77 -79.65 -1.18C-79.39 -0.59 -78.99 -0.3 -78.46 -0.3C-77.93 -0.3 -77.19 -0.97 -76.24 -2.33C-75.28 -3.68 -74.51 -5.18 -73.92 -6.81C-73.22 -8.58 -72.88 -9.85 -72.88 -10.62C-72.88 -10.93 -72.99 -11.2 -73.22 -11.43C-73.44 -11.67 -73.7 -11.78 -73.99 -11.78C-74.18 -11.78 -74.36 -11.58 -74.51 -11.17C-74.66 -10.76 -74.82 -10.21 -75 -9.52C-75.17 -8.84 -75.38 -8.1 -75.61 -7.31C-75.85 -6.52 -76.2 -5.67 -76.68 -4.76C-77.15 -3.84 -77.72 -3.04 -78.37 -2.36C-78.48 -2.89 -78.53 -3.75 -78.53 -4.93Z M-63.09 -7.74C-63.09 -6.61 -63.47 -5.4 -64.24 -4.12C-65 -2.84 -65.93 -2.1 -67.02 -1.88C-67.59 -2.17 -67.88 -2.9 -67.88 -4.06C-67.88 -5.23 -67.51 -6.47 -66.76 -7.8C-66.01 -9.12 -65.11 -9.93 -64.07 -10.22C-63.75 -10 -63.51 -9.67 -63.34 -9.21C-63.17 -8.74 -63.09 -8.26 -63.09 -7.74ZM-66.98 -10.45C-67.84 -9.69 -68.53 -8.72 -69.05 -7.54C-69.57 -6.36 -69.83 -5.22 -69.83 -4.12C-69.83 -3.02 -69.58 -2.12 -69.06 -1.41C-68.55 -0.7 -67.9 -0.34 -67.13 -0.34C-66.09 -0.34 -65.1 -0.72 -64.17 -1.46C-63.24 -2.21 -62.51 -3.16 -61.98 -4.3C-61.45 -5.44 -61.18 -6.56 -61.18 -7.66C-61.18 -8.76 -61.49 -9.69 -62.09 -10.45C-62.7 -11.22 -63.45 -11.6 -64.35 -11.6C-65.25 -11.6 -66.13 -11.22 -66.98 -10.45Z M-56.03 -8.83C-56.03 -7.03 -56.34 -5.18 -56.96 -3.27C-57.22 -2.44 -57.35 -1.88 -57.35 -1.6C-57.35 -1.32 -57.27 -1.03 -57.11 -0.74C-56.95 -0.44 -56.74 -0.3 -56.48 -0.3C-56.17 -0.3 -55.89 -0.6 -55.64 -1.2C-55.51 -1.54 -55.39 -1.88 -55.28 -2.22C-55.17 -2.57 -55.02 -3.06 -54.82 -3.68C-54.61 -4.3 -54.33 -5.06 -53.99 -5.97C-53.64 -6.88 -53.19 -7.69 -52.64 -8.41C-52.08 -9.13 -51.41 -9.66 -50.6 -10.01C-50.24 -10.21 -49.98 -10.38 -49.81 -10.53C-49.64 -10.69 -49.56 -10.85 -49.56 -11.03C-49.56 -11.4 -49.93 -11.58 -50.67 -11.58C-51.85 -11.58 -53.1 -10.58 -54.42 -8.58C-54.39 -8.84 -54.37 -9.22 -54.37 -9.73C-54.37 -10.24 -54.51 -10.67 -54.77 -11.04C-55.03 -11.42 -55.31 -11.6 -55.6 -11.6C-55.93 -11.6 -56.1 -11.25 -56.1 -10.53Z M-46.09 -11.36C-46.75 -11.2 -47.09 -10.98 -47.09 -10.69C-47.09 -10.47 -46.95 -10.19 -46.67 -9.88C-46.39 -9.56 -46.12 -9.4 -45.87 -9.4C-45.62 -9.4 -45.22 -9.44 -44.66 -9.52C-44.1 -9.61 -43.63 -9.65 -43.25 -9.65C-41.7 -9.65 -40.93 -9.5 -40.93 -9.22C-40.93 -8.79 -42.15 -7.73 -44.59 -6.04C-45.5 -5.42 -46.33 -4.76 -47.1 -4.08C-47.86 -3.39 -48.24 -2.84 -48.24 -2.43C-48.24 -2.02 -47.97 -1.57 -47.43 -1.08C-46.88 -0.59 -46.28 -0.34 -45.63 -0.34C-44.22 -0.34 -42.76 -0.51 -41.25 -0.84C-39.74 -1.17 -38.98 -1.58 -38.98 -2.07C-38.98 -2.41 -39.28 -2.59 -39.87 -2.59C-40.11 -2.59 -40.86 -2.53 -42.11 -2.41C-43.37 -2.29 -44.43 -2.22 -45.29 -2.22C-45.69 -2.22 -45.88 -2.35 -45.88 -2.61C-45.88 -2.79 -45.53 -3.15 -44.83 -3.68C-44.12 -4.21 -43.35 -4.76 -42.52 -5.34C-41.69 -5.91 -40.92 -6.57 -40.22 -7.31C-39.51 -8.05 -39.16 -8.71 -39.16 -9.29C-39.16 -9.56 -39.3 -9.9 -39.58 -10.32C-39.86 -10.73 -40.17 -11.01 -40.5 -11.15C-41.24 -11.45 -42.19 -11.6 -43.35 -11.6C-44.51 -11.6 -45.42 -11.52 -46.09 -11.36Z M-25.69 -11.07C-25.97 -11.42 -26.23 -11.6 -26.47 -11.6C-26.71 -11.6 -26.86 -11.52 -26.93 -11.35C-27.5 -9.61 -28.05 -8.18 -28.58 -7.06C-29.22 -5.73 -29.91 -4.58 -30.67 -3.61C-31.43 -2.64 -32.08 -2.16 -32.62 -2.16C-32.84 -2.16 -33.02 -2.24 -33.17 -2.4C-33.32 -2.55 -33.4 -2.75 -33.4 -3C-33.4 -4.39 -32.78 -6.34 -31.56 -8.85C-31.16 -9.67 -30.97 -10.21 -30.97 -10.47C-30.97 -10.72 -31.08 -10.98 -31.32 -11.23C-31.55 -11.48 -31.81 -11.6 -32.08 -11.6C-32.41 -11.6 -32.84 -11.1 -33.37 -10.1C-33.9 -9.1 -34.36 -7.92 -34.76 -6.56C-35.15 -5.2 -35.35 -4.12 -35.35 -3.31C-35.35 -2.51 -35.08 -1.82 -34.54 -1.23C-34 -0.64 -33.42 -0.34 -32.78 -0.34C-31.74 -0.34 -30.68 -1.07 -29.6 -2.54C-29.65 -2.41 -29.7 -2.26 -29.75 -2.09C-29.8 -1.92 -29.85 -1.79 -29.89 -1.68C-29.93 -1.57 -30.11 -1 -30.46 0.03C-30.8 1.07 -31.16 2 -31.53 2.83C-31.91 3.65 -32.34 4.06 -32.81 4.06C-33.43 4.06 -34.17 3.56 -35.05 2.57C-35.36 2.23 -35.57 2.07 -35.71 2.07C-35.85 2.07 -36.01 2.19 -36.2 2.45C-36.39 2.71 -36.48 2.94 -36.48 3.16C-36.48 3.72 -36.09 4.26 -35.3 4.78C-34.52 5.3 -33.69 5.56 -32.83 5.56C-31.31 5.56 -30.18 4.48 -29.42 2.32C-29.07 1.33 -28.71 0.32 -28.34 -0.72C-27.97 -1.75 -27.68 -2.58 -27.46 -3.21C-27.24 -3.84 -26.82 -5.03 -26.2 -6.79C-25.58 -8.54 -25.27 -9.57 -25.27 -9.88C-25.27 -10.31 -25.41 -10.71 -25.69 -11.07Z M-7.74 -11.6C-9.19 -11.6 -10.81 -9.87 -12.6 -6.4C-12.42 -7.34 -12.33 -8.13 -12.33 -8.76C-12.33 -9.4 -12.58 -10.03 -13.09 -10.66C-13.6 -11.29 -14.03 -11.6 -14.39 -11.6C-15 -11.6 -15.6 -11.28 -16.19 -10.62C-16.5 -10.26 -16.88 -9.78 -17.32 -9.19C-17.76 -8.6 -18.83 -6.72 -20.52 -3.54C-19.52 -6.6 -19.02 -8.79 -19.02 -10.13C-19.02 -10.47 -19.19 -10.82 -19.51 -11.17C-19.84 -11.52 -20.17 -11.69 -20.5 -11.69C-20.71 -11.69 -20.84 -11.43 -20.89 -10.91C-20.93 -10.39 -21 -9.56 -21.1 -8.43C-21.2 -7.31 -21.34 -6.42 -21.53 -5.78C-21.72 -5.13 -21.89 -4.57 -22.03 -4.1C-22.18 -3.62 -22.28 -3.26 -22.35 -3.02C-22.42 -2.78 -22.48 -2.53 -22.54 -2.27C-22.6 -2.01 -22.63 -1.8 -22.63 -1.62C-22.63 -1.45 -22.48 -1.19 -22.18 -0.85C-21.88 -0.51 -21.63 -0.34 -21.44 -0.34C-21.25 -0.34 -20.95 -0.62 -20.55 -1.18C-20.35 -1.47 -20.17 -1.73 -20.01 -1.98C-19.85 -2.22 -19.63 -2.56 -19.34 -3.01C-19.06 -3.45 -18.8 -3.85 -18.58 -4.19C-18.36 -4.53 -18.04 -5.05 -17.61 -5.76C-17.17 -6.46 -16.85 -6.98 -16.64 -7.31C-16.43 -7.64 -16.19 -8 -15.91 -8.37C-15.64 -8.74 -15.42 -8.99 -15.23 -9.14C-15.05 -9.28 -14.88 -9.35 -14.71 -9.35C-14.54 -9.35 -14.39 -9.24 -14.26 -9.02C-14.12 -8.8 -14.05 -8.54 -14.05 -8.22C-14.05 -6.52 -14.45 -4.69 -15.23 -2.72C-15.51 -2.06 -15.64 -1.62 -15.64 -1.41C-15.64 -1.2 -15.53 -0.97 -15.3 -0.73C-15.07 -0.48 -14.87 -0.36 -14.68 -0.36C-14.49 -0.36 -14.26 -0.56 -14.01 -0.94C-13.75 -1.33 -13.45 -1.86 -13.11 -2.54C-12.77 -3.22 -12.56 -3.63 -12.48 -3.77C-12.39 -3.9 -12.32 -4.03 -12.25 -4.15C-12.18 -4.28 -12.12 -4.37 -12.08 -4.44C-12.03 -4.51 -11.73 -5.01 -11.17 -5.95C-10.61 -6.89 -10.08 -7.69 -9.59 -8.35C-9.1 -9.02 -8.66 -9.35 -8.29 -9.35C-7.98 -9.35 -7.83 -8.87 -7.83 -7.91C-7.83 -6.95 -8.09 -5.66 -8.62 -4.03C-9.14 -2.4 -9.4 -1.38 -9.4 -0.96C-9.4 -0.55 -9.24 -0.34 -8.92 -0.34C-8.47 -0.34 -8.01 -0.87 -7.54 -1.93C-7.07 -2.99 -6.69 -4.15 -6.41 -5.43C-6.13 -6.7 -5.99 -7.73 -5.99 -8.52C-5.99 -9.32 -6.17 -10.03 -6.53 -10.66C-6.88 -11.29 -7.29 -11.6 -7.74 -11.6Z M7.57 -11.07C7.29 -11.42 7.03 -11.6 6.79 -11.6C6.55 -11.6 6.39 -11.52 6.33 -11.35C5.76 -9.61 5.21 -8.18 4.68 -7.06C4.04 -5.73 3.34 -4.58 2.59 -3.61C1.83 -2.64 1.18 -2.16 0.64 -2.16C0.42 -2.16 0.24 -2.24 0.09 -2.4C-0.06 -2.55 -0.14 -2.75 -0.14 -3C-0.14 -4.39 0.48 -6.34 1.7 -8.85C2.1 -9.67 2.29 -10.21 2.29 -10.47C2.29 -10.72 2.18 -10.98 1.94 -11.23C1.71 -11.48 1.45 -11.6 1.18 -11.6C0.85 -11.6 0.42 -11.1 -0.11 -10.1C-0.64 -9.1 -1.1 -7.92 -1.5 -6.56C-1.89 -5.2 -2.09 -4.12 -2.09 -3.31C-2.09 -2.51 -1.82 -1.82 -1.28 -1.23C-0.75 -0.64 -0.16 -0.34 0.48 -0.34C1.52 -0.34 2.58 -1.07 3.66 -2.54C3.61 -2.41 3.56 -2.26 3.51 -2.09C3.45 -1.92 3.41 -1.79 3.37 -1.68C3.33 -1.57 3.14 -1 2.8 0.03C2.46 1.07 2.1 2 1.73 2.83C1.35 3.65 0.92 4.06 0.45 4.06C-0.17 4.06 -0.92 3.56 -1.79 2.57C-2.1 2.23 -2.32 2.07 -2.45 2.07C-2.59 2.07 -2.75 2.19 -2.94 2.45C-3.13 2.71 -3.22 2.94 -3.22 3.16C-3.22 3.72 -2.83 4.26 -2.04 4.78C-1.26 5.3 -0.43 5.56 0.43 5.56C1.94 5.56 3.08 4.48 3.84 2.32C4.18 1.33 4.54 0.32 4.92 -0.72C5.29 -1.75 5.58 -2.58 5.8 -3.21C6.02 -3.84 6.44 -5.03 7.06 -6.79C7.68 -8.54 7.99 -9.57 7.99 -9.88C7.99 -10.31 7.85 -10.71 7.57 -11.07Z M27.98 -9.8C27.07 -8.59 25.88 -6.76 24.43 -4.29C24.76 -5.32 25.05 -6.43 25.3 -7.62C25.55 -8.8 25.68 -9.61 25.68 -10.02C25.68 -10.44 25.51 -10.82 25.18 -11.17C24.84 -11.52 24.51 -11.69 24.18 -11.69C23.91 -11.69 23.75 -11.14 23.7 -10.03C23.67 -8.38 23.48 -6.91 23.13 -5.62C22.79 -4.32 22.47 -3.24 22.18 -2.36C22.07 -2.03 22.02 -1.82 22.02 -1.75C22.02 -1.49 22.17 -1.19 22.45 -0.85C22.74 -0.51 22.99 -0.34 23.21 -0.34C23.43 -0.34 23.73 -0.62 24.11 -1.18C24.31 -1.47 24.48 -1.73 24.64 -1.98C24.8 -2.22 25.02 -2.56 25.29 -3C25.56 -3.44 25.78 -3.78 25.95 -4.04C26.12 -4.3 26.36 -4.68 26.68 -5.18C26.99 -5.68 27.24 -6.06 27.4 -6.32C27.57 -6.59 27.78 -6.91 28.03 -7.29C28.28 -7.67 28.48 -7.96 28.65 -8.16C28.82 -8.37 28.99 -8.57 29.18 -8.79C29.37 -9 29.54 -9.15 29.69 -9.24C29.85 -9.33 29.99 -9.38 30.14 -9.38C30.28 -9.38 30.43 -9.26 30.57 -9.04C30.71 -8.81 30.78 -8.46 30.78 -7.98C30.78 -7.5 30.64 -6.79 30.36 -5.85C30.08 -4.9 29.78 -3.94 29.46 -2.96C29.13 -1.99 28.97 -1.34 28.97 -1.02C28.97 -0.57 29.13 -0.34 29.47 -0.34C30.19 -0.34 31.01 -1.79 31.92 -4.7C32.42 -6.27 32.67 -7.61 32.67 -8.7C32.67 -9.39 32.41 -10.05 31.89 -10.67C31.36 -11.29 30.81 -11.6 30.23 -11.6C29.65 -11.6 28.9 -11 27.98 -9.8Z M44.5 -10.57C43.92 -11.26 43.29 -11.6 42.61 -11.6C41.67 -11.6 40.68 -11.08 39.62 -10.03C38.56 -8.99 37.69 -7.8 37.03 -6.46C36.36 -5.12 36.03 -4 36.03 -3.09C36.03 -2.45 36.37 -1.84 37.04 -1.24C37.71 -0.64 38.4 -0.34 39.09 -0.34C40.24 -0.34 41.49 -1.2 42.84 -2.91C42.87 -2.15 42.97 -1.53 43.15 -1.06C43.32 -0.58 43.54 -0.34 43.82 -0.34C44.03 -0.34 44.16 -0.53 44.22 -0.91C44.27 -1.09 44.31 -1.28 44.34 -1.46C44.37 -1.65 44.4 -1.91 44.44 -2.22C44.48 -2.54 44.59 -3.22 44.78 -4.25C44.97 -5.27 45.06 -6 45.06 -6.42C45.06 -6.59 44.97 -6.79 44.79 -7.02C45.17 -7.59 45.36 -8.15 45.36 -8.71C45.36 -9.26 45.07 -9.88 44.5 -10.57ZM43.66 -7.61L43.66 -7.58C43.45 -7.54 43.32 -7.4 43.27 -7.17C42.92 -5.8 42.3 -4.63 41.41 -3.67C40.52 -2.71 39.71 -2.22 39 -2.22C38.72 -2.22 38.47 -2.3 38.25 -2.46C38.04 -2.62 37.94 -2.83 37.94 -3.09C37.94 -3.71 38.21 -4.55 38.75 -5.61C39.3 -6.67 39.96 -7.62 40.75 -8.46C41.54 -9.3 42.23 -9.72 42.82 -9.72C43.38 -9.72 43.66 -9.01 43.66 -7.61Z M65.34 -16.05C65.34 -16.46 65.15 -16.88 64.78 -17.31C64.41 -17.74 64.13 -17.96 63.93 -17.96C63.73 -17.96 63.61 -17.91 63.54 -17.82C63.48 -17.73 63.45 -17.58 63.45 -17.37C63.45 -15.38 63.23 -13.16 62.8 -10.68C62.36 -8.21 61.92 -6.12 61.48 -4.43C61.04 -2.73 60.82 -1.79 60.82 -1.61C60.82 -1.43 60.96 -1.17 61.24 -0.84C61.52 -0.51 61.77 -0.34 61.98 -0.34C62.28 -0.34 62.81 -1.88 63.57 -4.97C64.75 -9.51 65.34 -13.21 65.34 -16.05Z M76.62 -10.57C76.05 -11.26 75.42 -11.6 74.74 -11.6C73.8 -11.6 72.8 -11.08 71.74 -10.03C70.68 -8.99 69.82 -7.8 69.15 -6.46C68.49 -5.12 68.15 -4 68.15 -3.09C68.15 -2.45 68.49 -1.84 69.16 -1.24C69.84 -0.64 70.52 -0.34 71.22 -0.34C72.37 -0.34 73.62 -1.2 74.96 -2.91C74.99 -2.15 75.1 -1.53 75.27 -1.06C75.44 -0.58 75.67 -0.34 75.94 -0.34C76.15 -0.34 76.29 -0.53 76.35 -0.91C76.39 -1.09 76.43 -1.28 76.46 -1.46C76.49 -1.65 76.53 -1.91 76.56 -2.22C76.6 -2.54 76.72 -3.22 76.91 -4.25C77.09 -5.27 77.19 -6 77.19 -6.42C77.19 -6.59 77.1 -6.79 76.92 -7.02C77.29 -7.59 77.48 -8.15 77.48 -8.71C77.48 -9.26 77.2 -9.88 76.62 -10.57ZM75.78 -7.61L75.78 -7.58C75.57 -7.54 75.44 -7.4 75.4 -7.17C75.05 -5.8 74.43 -4.63 73.53 -3.67C72.64 -2.71 71.84 -2.22 71.13 -2.22C70.84 -2.22 70.59 -2.3 70.38 -2.46C70.17 -2.62 70.06 -2.83 70.06 -3.09C70.06 -3.71 70.33 -4.55 70.88 -5.61C71.42 -6.67 72.09 -7.62 72.88 -8.46C73.66 -9.3 74.35 -9.72 74.94 -9.72C75.5 -9.72 75.78 -9.01 75.78 -7.61Z M84.16 -2.61C84.16 -2.94 84.4 -3.88 84.88 -5.41C85.37 -6.95 85.77 -8.32 86.09 -9.51C87.66 -9.83 88.7 -10.06 89.19 -10.22C89.68 -10.37 89.92 -10.56 89.92 -10.78C89.92 -11.18 89.47 -11.37 88.56 -11.37C88.05 -11.37 87.36 -11.34 86.5 -11.26C86.75 -12.29 86.88 -13.01 86.88 -13.42C86.88 -13.83 86.69 -14.19 86.32 -14.52C85.94 -14.84 85.62 -15.01 85.36 -15.01C85.06 -15.01 84.91 -14.78 84.91 -14.33C84.91 -13.36 84.77 -12.24 84.5 -10.99C82.53 -10.66 81.55 -10.31 81.55 -9.94C81.55 -9.72 81.66 -9.48 81.9 -9.23C82.13 -8.98 82.37 -8.85 82.61 -8.85C82.86 -8.85 83.33 -8.94 84.04 -9.1C83.85 -8.39 83.58 -7.5 83.24 -6.41C82.9 -5.33 82.64 -4.46 82.46 -3.8C82.27 -3.14 82.18 -2.6 82.18 -2.18C82.18 -1.76 82.43 -1.34 82.91 -0.94C83.39 -0.54 84 -0.34 84.74 -0.34C85.47 -0.34 86.29 -0.63 87.19 -1.2C88.09 -1.78 88.54 -2.29 88.54 -2.72C88.54 -3.01 88.4 -3.16 88.13 -3.16C88.04 -3.16 87.58 -2.99 86.76 -2.67C85.93 -2.34 85.23 -2.18 84.66 -2.18C84.32 -2.18 84.16 -2.32 84.16 -2.61Z M100.6 -10.57C100.02 -11.26 99.39 -11.6 98.71 -11.6C97.77 -11.6 96.77 -11.08 95.71 -10.03C94.65 -8.99 93.79 -7.8 93.13 -6.46C92.46 -5.12 92.13 -4 92.13 -3.09C92.13 -2.45 92.46 -1.84 93.14 -1.24C93.81 -0.64 94.5 -0.34 95.19 -0.34C96.34 -0.34 97.59 -1.2 98.94 -2.91C98.97 -2.15 99.07 -1.53 99.24 -1.06C99.42 -0.58 99.64 -0.34 99.91 -0.34C100.13 -0.34 100.26 -0.53 100.32 -0.91C100.37 -1.09 100.41 -1.28 100.44 -1.46C100.47 -1.65 100.5 -1.91 100.54 -2.22C100.58 -2.54 100.69 -3.22 100.88 -4.25C101.07 -5.27 101.16 -6 101.16 -6.42C101.16 -6.59 101.07 -6.79 100.89 -7.02C101.27 -7.59 101.46 -8.15 101.46 -8.71C101.46 -9.26 101.17 -9.88 100.6 -10.57ZM99.76 -7.61L99.76 -7.58C99.54 -7.54 99.41 -7.4 99.37 -7.17C99.02 -5.8 98.4 -4.63 97.51 -3.67C96.61 -2.71 95.81 -2.22 95.1 -2.22C94.81 -2.22 94.56 -2.3 94.35 -2.46C94.14 -2.62 94.03 -2.83 94.03 -3.09C94.03 -3.71 94.31 -4.55 94.85 -5.61C95.4 -6.67 96.06 -7.62 96.85 -8.46C97.64 -9.3 98.32 -9.72 98.92 -9.72C99.48 -9.72 99.76 -9.01 99.76 -7.61Z M108.52 -5.43C108.7 -5.43 108.89 -5.52 109.1 -5.71C109.3 -5.9 109.4 -6.06 109.4 -6.2C109.4 -6.67 109.17 -7.36 108.71 -8.28C108.25 -9.19 107.85 -9.65 107.51 -9.65C107.17 -9.65 106.83 -9.45 106.51 -9.05C106.18 -8.65 106.02 -8.24 106.02 -7.83C106.02 -7.42 106.32 -6.92 106.91 -6.32C107.5 -5.72 108.03 -5.43 108.52 -5.43Z"></path></g></g></g></svg>